<?xml version="1.0" encoding="UTF-8" standalone="no"?>
<!-- Generator: Adobe Illustrator 14.0.0, SVG Export Plug-In . SVG Version: 6.00 Build 43363)  -->

<svg
   xmlns:dc="http://purl.org/dc/elements/1.1/"
   xmlns:cc="http://creativecommons.org/ns#"
   xmlns:rdf="http://www.w3.org/1999/02/22-rdf-syntax-ns#"
   xmlns:svg="http://www.w3.org/2000/svg"
   xmlns="http://www.w3.org/2000/svg"
   xmlns:xlink="http://www.w3.org/1999/xlink"
   xmlns:sodipodi="http://sodipodi.sourceforge.net/DTD/sodipodi-0.dtd"
   xmlns:inkscape="http://www.inkscape.org/namespaces/inkscape"
   version="1.1"
   id="Layer_1"
   x="0px"
   y="0px"
   width="108.34016"
   height="108.34063"
   viewBox="0 0 108.34016 108.34061"
   enable-background="new 0 0 595.28 841.89"
   xml:space="preserve"
   inkscape:version="0.47 r22583"
   sodipodi:docname="bowling_ball.svg"><metadata
   id="metadata3695"><rdf:RDF><cc:Work
       rdf:about=""><dc:format>image/svg+xml</dc:format><dc:type
         rdf:resource="http://purl.org/dc/dcmitype/StillImage" /></cc:Work></rdf:RDF></metadata><defs
   id="defs3693"><linearGradient
     id="linearGradient4473"><stop
       style="stop-color:#aacced;stop-opacity:0.15447155;"
       offset="0"
       id="stop4475" /><stop
       style="stop-color:#ededed;stop-opacity:0.43902439;"
       offset="1"
       id="stop4477" /></linearGradient><inkscape:perspective
     sodipodi:type="inkscape:persp3d"
     inkscape:vp_x="0 : 420.94501 : 1"
     inkscape:vp_y="0 : 1000 : 0"
     inkscape:vp_z="595.28003 : 420.94501 : 1"
     inkscape:persp3d-origin="297.64001 : 280.63 : 1"
     id="perspective3697" /><linearGradient
     inkscape:collect="always"
     xlink:href="#linearGradient4473"
     id="linearGradient4479"
     x1="256.34738"
     y1="447.12131"
     x2="304.90518"
     y2="488.42432"
     gradientUnits="userSpaceOnUse" /><linearGradient
     inkscape:collect="always"
     xlink:href="#linearGradient4473"
     id="linearGradient4481"
     gradientUnits="userSpaceOnUse"
     x1="256.34738"
     y1="447.12131"
     x2="304.90518"
     y2="488.42432" /></defs><sodipodi:namedview
   pagecolor="#ffffff"
   bordercolor="#666666"
   borderopacity="1"
   objecttolerance="10"
   gridtolerance="10"
   guidetolerance="10"
   inkscape:pageopacity="0"
   inkscape:pageshadow="2"
   inkscape:window-width="879"
   inkscape:window-height="983"
   id="namedview3691"
   showgrid="false"
   inkscape:zoom="3.1714775"
   inkscape:cx="47.104663"
   inkscape:cy="44.90218"
   inkscape:window-x="929"
   inkscape:window-y="32"
   inkscape:window-maximized="0"
   inkscape:current-layer="Layer_1" />





<g
   id="g4483"><g
     transform="translate(-245.01742,-391.3962)"
     id="g3655">
	<path
   style="fill:#0c3183"
   id="path3657"
   d="m 344.634,475.036 c -16.272,25.099 -49.816,32.25 -74.913,15.978 -25.104,-16.277 -32.254,-49.818 -15.977,-74.918 16.269,-25.096 49.812,-32.25 74.912,-15.977 25.102,16.277 32.25,49.819 15.978,74.917 z" />
</g><g
     transform="translate(-245.01742,-391.3962)"
     id="g3659">
	<linearGradient
   y2="475.78311"
   x2="268.48209"
   y1="414.28271"
   x1="330.98239"
   gradientUnits="userSpaceOnUse"
   id="SVGID_1_">
		<stop
   id="stop3662"
   style="stop-color:#0B72B5"
   offset="0" />
		<stop
   id="stop3664"
   style="stop-color:#0C3183"
   offset="1" />
	</linearGradient>
	<path
   style="fill:url(#SVGID_1_)"
   id="path3666"
   d="m 341.191,472.8 c -15.039,23.198 -46.042,29.808 -69.237,14.768 -23.202,-15.041 -29.811,-46.04 -14.765,-69.235 15.037,-23.195 46.037,-29.807 69.234,-14.768 23.198,15.04 29.807,46.04 14.768,69.235 z" />
</g><g
     transform="translate(-245.01742,-391.3962)"
     id="g3668">
	<path
   style="fill:#13235b"
   id="path3670"
   d="m 335.548,428.268 c -1.833,1.295 -5.19,-0.315 -7.497,-3.586 -2.311,-3.279 -2.691,-6.982 -0.859,-8.275 1.838,-1.291 5.195,0.315 7.502,3.588 2.304,3.277 2.686,6.98 0.854,8.273 z" />
</g><g
     transform="translate(-245.01742,-391.3962)"
     id="g3672">
	<path
   style="fill:#13235b"
   id="path3674"
   d="m 322.706,431.004 c -1.833,1.294 -5.192,-0.314 -7.502,-3.589 -2.31,-3.275 -2.691,-6.977 -0.854,-8.274 1.833,-1.286 5.192,0.32 7.498,3.596 2.308,3.274 2.695,6.977 0.858,8.267 z" />
</g><g
     transform="translate(-245.01742,-391.3962)"
     id="g3676">
	<path
   style="fill:#13235b"
   id="path3678"
   d="m 335.763,445.006 c -1.837,1.293 -5.192,-0.313 -7.502,-3.592 -2.305,-3.273 -2.689,-6.975 -0.854,-8.268 1.832,-1.295 5.192,0.315 7.498,3.589 2.308,3.277 2.691,6.978 0.858,8.271 z" />
</g><g
     transform="translate(-243.75618,-391.08089)"
     style="fill:url(#linearGradient4479);fill-opacity:1"
     id="g3680">
	<linearGradient
   y2="475.63281"
   x2="302.19971"
   y1="441.38281"
   x1="272.94971"
   gradientUnits="userSpaceOnUse"
   id="SVGID_2_"
   style="fill:url(#linearGradient4479);fill-opacity:1">
		<stop
   id="stop3683"
   style="stop-color:#000000;stop-opacity:0.00813008000000000;fill-opacity:1;fill:url(#linearGradient4479)"
   offset="0" />
		<stop
   id="stop3685"
   style="stop-color:#000000;stop-opacity:0.89049999999999985;fill-opacity:1;fill:url(#linearGradient4479)"
   offset="0.4619" />
		<stop
   id="stop3687"
   style="stop-color:#ffffff;stop-opacity:0.66666669000000001;fill-opacity:1;fill:url(#linearGradient4479)"
   offset="1" />
	</linearGradient>
	<path
   style="fill:url(#linearGradient4481);fill-opacity:1"
   id="path3689"
   d="m 280.272,473.59 c -15.896,-10.305 -23.04,-28.703 -18.759,-44.814 -10.544,17.213 -4.286,40.597 14.264,52.627 18.828,12.204 43.176,8.094 54.378,-9.184 0.425,-0.656 0.812,-1.322 1.188,-1.993 -12.815,12.515 -34.115,14.364 -51.071,3.364 z" />
</g></g>
</svg>