<?xml version="1.0" encoding="UTF-8" standalone="no"?>
<!-- Created with Inkscape (http://www.inkscape.org/) -->

<svg
   xmlns:dc="http://purl.org/dc/elements/1.1/"
   xmlns:cc="http://creativecommons.org/ns#"
   xmlns:rdf="http://www.w3.org/1999/02/22-rdf-syntax-ns#"
   xmlns:svg="http://www.w3.org/2000/svg"
   xmlns="http://www.w3.org/2000/svg"
   xmlns:sodipodi="http://sodipodi.sourceforge.net/DTD/sodipodi-0.dtd"
   xmlns:inkscape="http://www.inkscape.org/namespaces/inkscape"
   width="168.41946"
   height="570.19916"
   id="svg2"
   version="1.1"
   inkscape:version="0.47 r22583"
   sodipodi:docname="New document 1">
  <title
     id="title2862">Bowling Pin</title>
  <defs
     id="defs4">
    <inkscape:perspective
       sodipodi:type="inkscape:persp3d"
       inkscape:vp_x="0 : 526.18109 : 1"
       inkscape:vp_y="0 : 1000 : 0"
       inkscape:vp_z="744.09448 : 526.18109 : 1"
       inkscape:persp3d-origin="372.04724 : 350.78739 : 1"
       id="perspective10" />
    <inkscape:perspective
       id="perspective2824"
       inkscape:persp3d-origin="0.5 : 0.33333333 : 1"
       inkscape:vp_z="1 : 0.5 : 1"
       inkscape:vp_y="0 : 1000 : 0"
       inkscape:vp_x="0 : 0.5 : 1"
       sodipodi:type="inkscape:persp3d" />
  </defs>
  <sodipodi:namedview
     id="base"
     pagecolor="#ffffff"
     bordercolor="#666666"
     borderopacity="1.0"
     inkscape:pageopacity="0.0"
     inkscape:pageshadow="2"
     inkscape:zoom="0.7"
     inkscape:cx="-129.23772"
     inkscape:cy="231.9583"
     inkscape:document-units="px"
     inkscape:current-layer="layer1"
     showgrid="false"
     inkscape:window-width="1280"
     inkscape:window-height="753"
     inkscape:window-x="-4"
     inkscape:window-y="-4"
     inkscape:window-maximized="1" />
  <metadata
     id="metadata7">
    <rdf:RDF>
      <cc:Work
         rdf:about="">
        <dc:format>image/svg+xml</dc:format>
        <dc:type
           rdf:resource="http://purl.org/dc/dcmitype/StillImage" />
        <dc:title>Bowling Pin</dc:title>
        <cc:license
           rdf:resource="http://creativecommons.org/licenses/publicdomain/" />
        <dc:date>2010-04-24</dc:date>
        <dc:creator>
          <cc:Agent>
            <dc:title>mazeo</dc:title>
          </cc:Agent>
        </dc:creator>
        <dc:subject>
          <rdf:Bag>
            <rdf:li>bowling</rdf:li>
            <rdf:li>bowling pin</rdf:li>
            <rdf:li>tenpin</rdf:li>
          </rdf:Bag>
        </dc:subject>
      </cc:Work>
      <cc:License
         rdf:about="http://creativecommons.org/licenses/publicdomain/">
        <cc:permits
           rdf:resource="http://creativecommons.org/ns#Reproduction" />
        <cc:permits
           rdf:resource="http://creativecommons.org/ns#Distribution" />
        <cc:permits
           rdf:resource="http://creativecommons.org/ns#DerivativeWorks" />
      </cc:License>
    </rdf:RDF>
  </metadata>
  <g
     inkscape:label="Layer 1"
     inkscape:groupmode="layer"
     id="layer1"
     transform="translate(-304.952,-194.1213)">
    <g
       id="g2830"
       transform="translate(307.08637,-8.0812204)">
      <path
         style="fill:#d7d7d7"
         d="m 66.83067,771.71391 c -22.00753,-3.49893 -33.78235,-14.84977 -45.1933,-43.56601 -10.00976,-25.19008 -17.48441,-54.90145 -21.88707,-87 -2.53076,-18.45103 -2.50859,-60.83043 0.0413,-79 4.67811,-33.3342 11.81851,-58.29434 29.89453,-104.5 24.5929,-62.86404 25.46113,-69.82977 17.38778,-139.5 -5.28255,-45.58659 -5.81722,-60.19484 -2.74753,-75.06823 3.84073,-18.60923 10.80782,-27.72363 27.54228,-36.03105 9.69756,-4.81412 10.0327,-4.89957 18.96594,-4.83586 10.46413,0.0746 15.68923,1.8123 26.52281,8.82051 13.04347,8.43778 17.97839,18.17472 20.04331,39.54681 1.30875,13.54569 -0.12265,26.88365 -7.62684,71.06782 -11.29206,66.48686 -10.72082,74.74512 9.23443,133.5 22.51258,66.28451 28.45436,98.06658 27.09348,144.92071 -1.09563,37.72153 -7.76151,71.97401 -21.28014,109.34748 -13.21122,36.52358 -26.02505,54.80947 -42.20904,60.23411 -7.39434,2.47848 -26.31096,3.56948 -35.78197,2.06371 z"
         id="path2860" />
      <path
         style="fill:#c7c7c7"
         d="M 71.64572,771.39746 C 56.63126,770.03714 45.54357,764.96261 37.8549,755.93237 22.82092,738.27516 7.57076,691.53044 0.73346,642.1479 c -2.4842,-17.94219 -2.48224,-63.78389 0.003,-80.5 5.23752,-35.22201 11.94692,-58.39975 30.72422,-106.13729 18.67631,-47.48081 23.32254,-69.48609 20.55733,-97.36271 -0.94723,-9.54923 -3.11025,-29.60887 -6.09355,-56.51117 -6.22335,-56.11986 -0.9536,-78.52227 21.58262,-91.75049 9.70268,-5.69525 16.30923,-7.50551 25.63539,-7.02438 7.18861,0.37085 9.28149,0.95255 16.75994,4.65827 18.50522,9.16947 25.5591,21.14707 27.16615,46.12777 0.80875,12.57161 -0.57809,24.6015 -7.68507,66.66253 -7.70868,45.62208 -8.70195,55.57186 -7.19644,72.08819 1.5085,16.54908 5.23569,31.03751 16.24624,63.15276 9.91053,28.90671 15.6118,47.95158 19.3376,64.59652 10.13262,45.26723 10.67978,91.15181 1.61246,135.21972 -7.77883,37.80572 -21.48098,75.08927 -35.20041,95.78028 -3.87574,5.84522 -5.9231,8.00878 -12.39982,13.10357 -7.342,5.77545 -23.50436,8.65297 -40.1374,7.14599 z M 55.1835,671.65586 c 6.68495,-4.07588 14.49336,-20.29382 19.74829,-41.01688 8.18552,-32.28002 9.58613,-72.95369 3.89086,-112.99108 -3.43917,-24.17713 -9.80481,-51.45043 -13.26852,-56.84839 -2.60535,-4.06026 -9.16,3.44794 -17.10788,19.59669 -13.93858,28.32082 -22.71922,56.7795 -25.99501,84.2517 -1.2479,10.46547 -1.56045,37.4851 -0.53968,46.65508 2.94624,26.46722 11.6477,50.98443 21.01357,59.20777 4.17042,3.66167 7.60472,3.98248 12.25837,1.14511 z M 82.17094,384.3979 c 1.47333,-1.86541 3.58269,-22.82493 2.41464,-23.99298 -0.94956,-0.94956 -18.5524,-0.72976 -19.45866,0.24298 -0.25621,0.275 -0.23138,6.0125 0.0552,12.75 l 0.52101,12.25 7.74028,0 c 4.99902,0 8.08994,-0.44269 8.72756,-1.25 z m 3.38961,-66.33157 c 1.42532,-0.8809 0.53756,-41.24433 -1.13091,-51.41843 -1.45261,-8.85777 -5.66988,-17.21478 -9.31915,-18.46698 -6.50865,-2.23335 -11.82126,4.85905 -13.73422,18.33538 -1.17887,8.30477 -0.55459,48.38653 0.80897,51.93989 0.46953,1.2236 2.40587,1.37725 11.38597,0.90351 5.95112,-0.31395 11.34632,-0.89597 11.98934,-1.29337 z"
         id="path2858" />
      <path
         style="fill:#b7b7b7"
         d="M 69.92856,771.02206 C 59.44077,768.95679 56.22186,768.08456 51.67541,766.07597 37.90983,759.99445 27.18299,743.24888 16.97814,711.91036 2.94301,668.80925 -3.38093,623.14123 -0.73729,583.97915 2.17053,540.90364 8.9497,514.07442 31.68927,455.6479 43.56414,425.13689 47.7202,412.0466 51.02668,394.7411 c 3.55932,-18.62886 3.26148,-24.72914 -4.34996,-89.0932 -3.37433,-28.53405 -3.70462,-52.66866 -0.87586,-64 4.34578,-17.40816 11.62867,-26.55512 27.10959,-34.04831 13.54741,-6.55733 23.44403,-6.5107 36.94092,0.17405 17.43848,8.63694 24.32691,19.47865 26.62893,41.91132 1.40035,13.64603 0.0239,26.60258 -7.62289,71.75305 -11.28734,66.64631 -10.72073,74.89369 9.18621,133.70989 17.78714,52.55312 23.25931,75.27268 26.4704,109.9008 1.44087,15.5382 0.64474,52.49445 -1.44548,67.0992 -7.80224,54.51553 -29.02408,112.06269 -47.47184,128.72913 -5.42266,4.89904 -10.9764,7.62215 -19.02416,9.32792 -6.07428,1.28747 -21.80546,1.76991 -26.64398,0.81711 z M 58.07857,707.71967 C 66.07654,702.84281 75.58282,682.42752 82.84476,654.53281 91.89305,619.77633 95.30019,586.06319 93.3764,550.32372 92.40417,532.26191 91.72283,525.91417 85.95217,481.15555 84.5345,470.15976 83.0934,454.34867 82.74973,446.0198 l -0.62486,-15.1434 -6.79668,-0.66973 c -7.90221,-0.77867 -18.48357,0.19678 -19.72644,1.81849 -0.47326,0.61751 -1.63609,3.9601 -2.58407,7.42798 -0.94798,3.46789 -4.21422,12.91789 -7.25832,21 -3.04409,8.08212 -7.97252,21.21976 -10.95207,29.19476 -20.05148,53.66935 -25.45859,98.84743 -17.42979,145.6313 6.00296,34.97928 18.76947,65.34743 30.47133,72.48321 3.90029,2.37839 6.27539,2.36847 10.22974,-0.0427 z M 88.86818,385.52299 c 0.19605,-0.2063 0.84444,-5.76048 1.44088,-12.34263 0.74761,-8.25058 0.76285,-12.28821 0.0491,-13 -1.35476,-1.351 -23.63575,-1.19803 -26.93972,0.18495 -2.50547,1.04874 -2.50976,1.07375 -2.30084,13.41665 0.11511,6.80127 0.23218,12.54226 0.26014,12.75775 0.0638,0.49143 27.0041,-0.50495 27.49046,-1.01672 z m -0.68962,-66.52798 5.25,-0.57756 0,-27.42693 c 0,-29.77306 -1.01527,-38.52262 -5.48664,-47.28352 -5.17854,-10.14649 -13.38134,-13.69263 -20.51336,-8.86809 -5.73007,3.87617 -10.75946,15.10817 -12.11537,27.05694 -1.04715,9.22777 -0.2869,31.62111 1.7862,52.61371 l 0.62824,6.36165 12.60046,-0.64932 c 6.93026,-0.35713 14.96297,-0.90923 17.85047,-1.22688 z"
         id="path2856" />
      <path
         style="fill:#cca6a6"
         d="M 65.98361,770.09979 C 53.80572,767.80081 44.70444,762.96011 38.35443,755.40467 23.40539,737.61783 7.5565,688.1243 1.28662,639.6479 c -2.09885,-16.22748 -1.82108,-63.18215 0.46733,-79 4.73425,-32.72382 12.70999,-60.09423 30.82264,-105.77426 4.85759,-12.25084 9.08074,-23.72584 9.38477,-25.5 0.30403,-1.77416 1.71053,-6.60074 3.12555,-10.72574 6.2487,-18.21584 9.74993,-41.46753 8.1313,-54 -1.71056,-13.24425 -2.95165,-25.36953 -3.78717,-37 -0.49389,-6.875 -1.83895,-20.375 -2.98903,-30 -4.68709,-39.22629 -1.78892,-63.28351 9.3247,-77.40284 5.84009,-7.41956 21.47026,-15.8353 31.76124,-17.10119 15.20418,-1.87026 35.95138,9.66111 42.85542,23.81921 8.75788,17.95975 8.29228,37.18431 -2.38763,98.58631 -6.04586,34.75943 -6.5702,39.15773 -6.54737,54.92087 0.034,23.4507 1.69412,31.0826 16.11103,74.06388 18.50553,55.17071 23.87226,77.67816 26.97114,113.11376 1.40673,16.08582 0.65491,46.38792 -1.56306,63 -7.40962,55.49623 -29.97855,115.98096 -49.06268,131.48797 -10.04938,8.16573 -29.62214,11.41848 -47.92119,7.96392 z m -2.05505,-39.32764 c 7.44538,-5.05996 15.54462,-22.42464 23.40937,-50.18942 12.79526,-45.17083 17.82215,-88.15545 15.24217,-130.33473 -1.12611,-18.41043 -2.20346,-28.1717 -8.10456,-73.43104 -1.0994,-8.43202 -2.47983,-22.13962 -3.06763,-30.46135 -0.58779,-8.32172 -1.31183,-15.3728 -1.60897,-15.66906 -0.29715,-0.29626 -8.75819,-0.53865 -18.8023,-0.53865 -13.04662,0 -18.6879,0.35359 -19.75321,1.23812 -0.82015,0.68097 -2.05849,3.15597 -2.75187,5.5 -0.69337,2.34404 -6.16705,17.6396 -12.16373,33.99016 -15.93179,43.4397 -21.6854,64.43105 -25.42815,92.77172 -2.21772,16.79286 -2.21428,48.21144 0.007,65.5 5.50256,42.82378 20.38538,85.33513 34.76081,99.29089 6.98057,6.77679 10.97219,7.28684 18.26089,2.33336 z M 92.63593,385.3979 c 1.21997,-0.95933 1.74875,-4.07947 2.27394,-13.4177 l 0.68433,-12.16769 -5.77564,-0.72162 c -6.33326,-0.79129 -23.13977,0.0267 -27.89,1.3575 l -3,0.84044 -0.27988,12.67954 -0.27987,12.67953 16.33874,0 c 11.55653,0 16.80402,-0.36586 17.92838,-1.25 z M 79.60269,319.97423 c 9.17078,-0.33799 17.19709,-0.93772 17.83625,-1.33275 0.82033,-0.50699 1.31554,-9.36128 1.68377,-30.1059 0.5793,-32.63517 -0.0866,-38.7184 -5.50646,-50.30029 -3.60371,-7.70095 -7.82626,-11.94629 -13.44759,-13.52017 -12.25986,-3.43254 -22.94477,7.05067 -27.35931,26.84284 -1.34589,6.03416 -1.55038,10.86187 -1.10132,26 0.3033,10.22447 1.11289,24.37685 1.7991,31.44973 l 1.24765,12.85979 4.08689,-0.63937 c 2.24779,-0.35165 11.59025,-0.9159 20.76102,-1.25388 z"
         id="path2854" />
      <path
         style="fill:#a7a7a7"
         d="M 65.98361,770.09979 C 53.80572,767.80081 44.70444,762.96011 38.35443,755.40467 23.40539,737.61783 7.5565,688.1243 1.28662,639.6479 c -2.09885,-16.22748 -1.82108,-63.18215 0.46733,-79 4.66547,-32.24844 12.81468,-60.41286 29.9471,-103.5 11.45471,-28.80798 16.60917,-45.15731 20.65022,-65.5 1.58336,-7.9707 1.41555,-26.32922 -0.39308,-43 -0.86521,-7.975 -2.0026,-18.775 -2.52754,-24 -0.52493,-5.225 -1.88261,-17.375 -3.01706,-27 -4.63817,-39.35172 -1.74375,-63.30478 9.35312,-77.40284 5.84009,-7.41956 21.47026,-15.8353 31.76124,-17.10119 15.20418,-1.87026 35.95138,9.66111 42.85542,23.81921 8.75788,17.95975 8.29228,37.18431 -2.38763,98.58631 -6.04586,34.75943 -6.5702,39.15773 -6.54737,54.92087 0.034,23.4507 1.69412,31.0826 16.11103,74.06388 18.50553,55.17071 23.87226,77.67816 26.97114,113.11376 1.40673,16.08582 0.65491,46.38792 -1.56306,63 -7.40962,55.49623 -29.97855,115.98096 -49.06268,131.48797 -10.04938,8.16573 -29.62214,11.41848 -47.92119,7.96392 z m -2.05505,-39.32764 c 15.49332,-10.52942 34.7058,-78.53769 38.59663,-136.62425 1.86581,-27.85472 0.44281,-52.8483 -5.60805,-98.5 -3.35464,-25.30963 -4.88618,-39.53041 -6.04705,-56.14843 l -0.60415,-8.64844 -3.16869,-0.77288 c -1.74278,-0.42509 -9.46869,-0.80829 -17.16869,-0.85157 -16.88581,-0.0949 -19.13344,0.68818 -21.30092,7.42132 -0.79674,2.475 -6.34332,17.87772 -12.32573,34.22828 -15.93339,43.54759 -21.66683,64.48672 -25.40223,92.77172 -2.21772,16.79286 -2.21428,48.21144 0.007,65.5 5.50256,42.82378 20.38538,85.33513 34.76081,99.29089 6.98057,6.77679 10.97219,7.28684 18.26089,2.33336 z M 90.96068,386.19893 c 3.19329,-1.33425 3.46835,-1.78954 3.47387,-5.75 0.003,-2.36557 0.28641,-7.90212 0.62913,-12.30345 l 0.62313,-8.00242 -3.45012,-1.24758 c -6.87802,-2.48712 -31.07023,-1.01017 -32.99104,2.01413 -0.95423,1.50244 -1.09057,25.13148 -0.15042,26.07162 1.38,1.38 28.27032,0.71984 31.86545,-0.7823 z M 78.92856,321.02814 c 7.15,-0.30788 14.39401,-0.98168 16.09779,-1.49733 l 3.09779,-0.93755 0.65221,-12.12968 c 1.14818,-21.35362 0.74387,-47.71911 -0.84691,-55.22812 -1.83491,-8.6614 -6.22576,-18.15859 -10.26081,-22.19364 -6.8323,-6.8323 -17.0621,-6.5719 -24.25133,0.61734 -8.37527,8.37527 -11.98874,20.63229 -11.98874,40.66623 0,16.99939 2.83516,50.55254 4.36138,51.61555 0.62624,0.43617 3.16362,0.53518 5.63862,0.22001 2.475,-0.31516 10.35,-0.82493 17.5,-1.13281 z"
         id="path2852" />
      <path
         style="fill:#979797"
         d="M 71.32622,770.57526 C 57.20964,769.07748 47.21341,764.56856 39.30632,756.1323 24.74092,740.59216 8.44833,690.2247 1.78831,640.1479 c -2.44461,-18.38111 -2.46921,-58.22323 -0.0469,-76 4.76039,-34.93559 12.33731,-61.26135 31.76046,-110.35057 4.90967,-12.40854 8.92669,-23.25939 8.92669,-24.11299 0,-0.8536 1.28654,-5.3735 2.85899,-10.04422 1.57244,-4.67072 3.6069,-11.86722 4.52103,-15.99222 0.91413,-4.125 2.36883,-10.48348 3.23268,-14.12995 1.84812,-7.80129 1.5121,-21.09234 -1.05855,-41.87005 -0.91863,-7.425 -1.84895,-17.1 -2.06738,-21.5 -0.21843,-4.4 -1.39877,-15.65 -2.62299,-25 -3.09811,-23.66197 -3.14862,-50.70463 -0.11516,-61.65411 1.16628,-4.20977 3.24646,-9.87607 4.62261,-12.59178 3.37004,-6.65046 12.19861,-14.49107 21.18262,-18.81221 13.64087,-6.56099 23.08427,-6.3834 37.44615,0.70421 10.72505,5.29283 17.90264,12.31836 21.002,20.55708 7.15701,19.02471 6.72726,34.59834 -2.45031,88.79681 -7.69451,45.44023 -8.96181,57.91463 -7.53599,74.17904 1.49687,17.07506 3.82033,26.17082 15.87728,62.15577 12.19734,36.4039 15.82627,48.46872 19.50236,64.83792 10.59021,47.15692 11.08538,89.06075 1.61096,136.32727 -6.91168,34.48144 -21.14092,73.86669 -33.7099,93.30601 -9.01656,13.9451 -18.51054,19.88569 -34.76872,21.75555 -4.41523,0.50779 -8.70268,0.86682 -9.52768,0.79784 -0.825,-0.069 -4.92105,-0.48841 -9.10234,-0.93204 z m -6.31051,-23.62138 c 4.86283,-1.26956 13.90497,-11.79928 17.39028,-20.25126 9.98147,-24.2053 21.11789,-68.42025 25.46672,-101.11049 5.66933,-42.61657 4.37174,-77.17096 -5.36786,-142.94423 -1.66958,-11.275 -3.53089,-26.125 -4.13624,-33 -1.48889,-16.90948 -1.84326,-18.16367 -5.45824,-19.3179 -1.63999,-0.52364 -11.08181,-1.00382 -20.98181,-1.06708 -20.4965,-0.13097 -24.87295,0.74167 -25.98137,5.18053 -0.37143,1.48745 -5.0967,14.62945 -10.50059,29.20445 -12.99662,35.05359 -16.28855,44.89765 -20.39884,61 -13.04004,51.08522 -12.73859,99.58486 0.94272,151.66964 9.24753,35.20539 20.61094,59.08643 32.03808,67.33036 6.90809,4.98373 9.00082,5.39101 16.98715,3.30598 z m 26.8745,-360.14359 c 4.62653,-0.61765 5.0072,-0.88601 5.63616,-3.97333 0.37099,-1.82102 0.83825,-7.67102 1.03836,-13 l 0.36383,-9.68906 -4.5,-1.16952 c -5.65833,-1.47057 -22.03081,-1.65216 -29.04399,-0.32214 -8.59864,1.6307 -8.95601,2.29495 -8.95601,16.64665 l 0,12.34501 15.25,-0.0876 c 8.3875,-0.0482 17.48274,-0.38568 20.21165,-0.75 z M 84.37667,320.6062 c 9.04646,-0.52499 16.79337,-1.29978 17.21535,-1.72176 1.17052,-1.17052 2.80583,-28.72211 2.80371,-47.23654 -0.003,-23.07937 -3.32387,-36.95624 -10.83797,-45.2837 -4.5599,-5.05348 -8.51016,-6.72221 -15.84708,-6.69434 -13.14863,0.0499 -21.47313,8.06826 -26.45089,25.47804 -1.97898,6.92147 -2.28155,10.22447 -2.24435,24.5 0.0376,14.43271 2.60578,47.97293 3.97331,51.89147 0.38513,1.10354 1.98109,1.24971 7.71271,0.70641 3.97491,-0.37679 14.62875,-1.1146 23.67521,-1.63958 z"
         id="path2850" />
      <path
         style="fill:#878787"
         d="M 63.72146,769.13996 C 44.76257,765.01976 35.00617,754.89878 24.30087,728.24627 14.42267,703.65297 6.80544,673.04482 2.25203,639.6479 c -1.77699,-13.03323 -1.76051,-63.52335 0.0246,-75.5 5.49041,-36.83557 12.52808,-61.35118 31.02136,-108.06232 5.02183,-12.68427 9.13057,-23.96795 9.13057,-25.07484 0,-1.1069 1.14039,-5.35385 2.5342,-9.43769 3.00732,-8.81139 6.01726,-20.60126 6.91691,-27.09338 0.3558,-2.56753 1.18736,-5.06877 1.8479,-5.55831 0.66054,-0.48954 10.01763,-1.01868 20.79352,-1.17586 10.77589,-0.15718 21.12589,-0.59818 23,-0.97999 l 3.40747,-0.6942 0.66029,-12.46171 c 0.36316,-6.85393 0.34735,-12.79251 -0.0351,-13.19684 -1.35352,-1.43077 -11.52401,-2.76486 -21.07802,-2.76486 -10.83582,0 -20.44032,1.44223 -23.74502,3.56559 -1.20882,0.7767 -2.44145,1.01803 -2.73918,0.5363 -0.29773,-0.48173 -1.2404,-7.78923 -2.09484,-16.23888 -0.85443,-8.44966 -1.74668,-15.92942 -1.98277,-16.62169 -0.59666,-1.74956 1.32128,-6.47886 2.36569,-5.83337 0.47014,0.29056 3.73348,0.0553 7.25188,-0.52278 3.51839,-0.57808 15.03977,-1.35394 25.60307,-1.72411 10.56329,-0.37018 19.63565,-1.12035 20.16078,-1.66706 1.51735,-1.57966 4.44558,-49.68252 3.67381,-60.35052 -1.24061,-17.14847 -6.05369,-30.87476 -12.94903,-36.92895 -4.11211,-3.61048 -9.04688,-5.20113 -16.16006,-5.20895 -21.48443,-0.0236 -32.46116,16.56272 -32.75505,49.49442 -0.0687,7.7 0.16834,17.825 0.52679,22.5 0.55954,7.2977 0.50705,7.79277 -0.37113,3.5 -1.62466,-7.94173 -1.57798,-42.85818 0.0675,-50.5 3.51182,-16.30925 10.86674,-25.81424 25.63915,-33.13426 14.48039,-7.17531 26.51449,-6.48322 41.25433,2.3726 12.16747,7.31031 17.92125,16.25762 20.67008,32.14265 2.8981,16.74765 2.09874,26.2427 -6.49722,77.17568 -7.61382,45.11367 -8.65242,55.59224 -7.16629,72.30197 1.45755,16.38837 5.62526,32.53849 16.63029,64.44325 18.12883,52.55742 24.5054,81.12039 26.49887,118.69811 2.36486,44.57839 -5.09135,90.41305 -22.12398,136 -11.62054,31.10178 -23.86911,49.66942 -36.27304,54.98636 -9.54516,4.09153 -29.49588,5.27505 -42.23892,2.5057 z m 8.81311,-16.088 c 1.01801,-0.92128 2.842,-1.72659 4.0533,-1.78956 1.74246,-0.0906 3.34647,-2.30713 7.68123,-10.6145 7.98689,-15.30653 10.61056,-22.1851 16.16529,-42.38116 17.70587,-64.37546 21.84381,-116.85288 13.99804,-177.52319 -1.03812,-8.02761 -3.70049,-25.84565 -5.91639,-39.59565 -2.2159,-13.75 -4.72719,-30.3876 -5.58064,-36.97245 -0.85345,-6.58484 -1.89876,-12.31947 -2.32291,-12.74362 -2.92175,-2.92175 -47.39659,-3.64623 -53.22191,-0.86697 -1.72108,0.82112 -3.126,2.88012 -4.36487,6.39695 -1.00478,2.85235 -5.18853,13.96109 -9.29721,24.68609 -16.81864,43.90211 -23.36274,66.55998 -27.87097,96.4985 -7.45469,49.50565 0.15707,110.16051 20.04081,159.69668 9.38591,23.38301 18.18958,33.83194 31.03022,36.82921 4.86465,1.13552 13.55823,0.23289 15.60601,-1.62033 z"
         id="path2848" />
      <path
         style="fill:#a25f5f"
         d="m 66.04188,769.11292 c -20.5724,-3.89533 -30.68749,-14.04486 -40.82605,-40.96502 -5.34406,-14.18969 -5.87194,-15.74867 -5.46904,-16.15157 0.21798,-0.21797 1.4129,2.42695 2.65539,5.87762 1.24248,3.45067 4.54,10.77395 7.32781,16.27395 5.79548,11.43372 14.59856,21.02695 22.53461,24.55728 6.41949,2.85569 17.75067,3.62672 20.23658,1.377 1.20932,-1.09442 2.69973,-1.45725 4.31781,-1.05114 1.98009,0.49697 2.89868,0.0196 4.62362,-2.40287 1.18394,-1.66269 3.58319,-3.6208 5.33166,-4.35136 2.71728,-1.13535 3.78777,-2.76636 7.36972,-11.2286 7.59834,-17.95082 10.95261,-27.68953 15.63709,-45.40031 17.03191,-64.39319 20.4417,-116.89133 11.56123,-178 -1.07902,-7.425 -4.4118,-27 -7.40619,-43.5 -2.99438,-16.5 -5.74044,-32.35429 -6.10235,-35.23175 -1.01435,-8.06476 -1.51623,-8.40536 -13.99183,-9.49553 -10.93841,-0.95584 -42.50199,-0.42203 -47.66338,0.80609 -2.42775,0.57767 -2.75,0.36825 -2.75,-1.78708 0,-1.34278 1.0543,-5.55774 2.34289,-9.36658 2.3407,-6.91866 5.02503,-17.68607 6.12649,-24.57467 0.98727,-6.1744 1.35965,-6.26659 27.03378,-6.69286 12.78657,-0.21229 23.70435,-0.6721 24.26172,-1.0218 0.55738,-0.3497 1.34189,-6.36408 1.74336,-13.36529 l 0.72995,-12.72947 -2.86909,-1.09864 c -1.57801,-0.60425 -9.3941,-1.33557 -17.3691,-1.62516 -13.73568,-0.49876 -16.97973,-0.1917 -29.98048,2.83776 -1.0624,0.24756 -1.69498,-0.92578 -2.24007,-4.15502 -1.26117,-7.47139 -3.32564,-28.40236 -2.97896,-30.20256 0.17832,-0.92592 1.75866,-2.1433 3.51186,-2.70529 5.35379,-1.71614 23.05346,-3.09215 39.77455,-3.09215 18.4794,0 16.20665,2.03335 17.88379,-16 3.61911,-38.91436 3.28993,-53.74063 -1.53209,-69.00501 -4.86392,-15.39704 -12.64521,-21.3567 -27.9386,-21.39806 -10.07262,-0.0272 -16.85785,2.20545 -22.92052,7.54202 -6.24392,5.49612 -5.79277,3.1925 0.67052,-3.4238 3.61123,-3.69671 8.03579,-6.7541 14.17461,-9.79471 8.46138,-4.191 9.36971,-4.42031 17.5,-4.4179 7.86132,0.002 9.23793,0.31866 16.53197,3.79882 18.61419,8.88126 25.07211,18.58266 27.628,41.5041 1.44691,12.97598 0.11839,26.18544 -6.65119,66.13247 -7.06984,41.71885 -8.43339,52.15154 -8.43339,64.52472 0,21.78624 2.82192,34.56115 16.5754,75.03735 22.81284,67.13767 28.37756,96.86899 27.10962,144.84182 -0.88222,33.37906 -5.07619,58.43389 -15.3428,91.65818 -12.49126,40.42357 -27.07353,66.62511 -41.14622,73.93189 -8.60717,4.46899 -27.95718,6.11309 -41.58268,3.53313 z"
         id="path2846" />
      <path
         style="fill:#707070"
         d="m 66.04188,769.11292 c -20.5724,-3.89533 -30.68749,-14.04486 -40.82605,-40.96502 -5.34406,-14.18969 -5.87194,-15.74867 -5.46904,-16.15157 0.21798,-0.21797 1.4129,2.42695 2.65539,5.87762 1.24248,3.45067 4.54,10.77395 7.32781,16.27395 5.79548,11.43372 14.59856,21.02695 22.53461,24.55728 6.41949,2.85569 17.75067,3.62672 20.23658,1.377 1.20932,-1.09442 2.69973,-1.45725 4.31781,-1.05114 1.98009,0.49697 2.89868,0.0196 4.62362,-2.40287 1.18394,-1.66269 3.58319,-3.6208 5.33166,-4.35136 2.71728,-1.13535 3.78777,-2.76636 7.36972,-11.2286 7.59834,-17.95082 10.95261,-27.68953 15.63709,-45.40031 17.03191,-64.39319 20.4417,-116.89133 11.56123,-178 -1.07902,-7.425 -4.4048,-27 -7.39061,-43.5 -2.98582,-16.5 -5.73251,-32.25 -6.10377,-35 -0.83344,-6.17357 -1.9799,-8.49545 -4.20455,-8.51531 -1.38748,-0.0124 -1.44689,-0.18495 -0.31121,-0.90396 2.50314,-1.58476 -10.709,-2.30968 -35.31324,-1.93754 -12.97482,0.19625 -23.59053,0.0981 -23.59047,-0.21804 5e-5,-0.31616 1.13808,-3.91616 2.52895,-8 1.39086,-4.08383 3.44425,-11.92515 4.56307,-17.42515 1.11883,-5.5 2.45489,-10.42655 2.96903,-10.94788 1.51649,-1.53769 13.21249,-2.44487 32.43905,-2.51608 12.00868,-0.0445 17.50072,-0.38932 16.5,-1.03604 -0.825,-0.53316 -0.99163,-0.97627 -0.37028,-0.98469 1.59457,-0.0216 2.97347,-24.58359 1.48106,-26.38183 -0.60138,-0.72462 -0.83694,-1.57399 -0.52345,-1.88747 2.17963,-2.17964 -38.46226,-2.04429 -45.5211,0.1516 -1.88857,0.5875 -3.563,0.93895 -3.72096,0.781 -0.41317,-0.41317 -3.34527,-27.32652 -3.34527,-30.70578 0,-2.71656 0.32747,-2.91238 7.75,-4.63436 6.11062,-1.41762 12.11911,-1.80223 28.40451,-1.81821 11.35998,-0.0111 20.13498,-0.35087 19.5,-0.75495 -0.74755,-0.47571 -0.54436,-0.74008 0.57644,-0.75 2.08645,-0.0185 2.36157,-1.19665 3.73974,-16.01531 3.61911,-38.91436 3.28993,-53.74063 -1.53209,-69.00501 -4.86392,-15.39704 -12.64521,-21.3567 -27.9386,-21.39806 -10.07262,-0.0272 -16.85785,2.20545 -22.92052,7.54202 -6.24392,5.49612 -5.79277,3.1925 0.67052,-3.4238 3.61123,-3.69671 8.03579,-6.7541 14.17461,-9.79471 8.46138,-4.191 9.36971,-4.42031 17.5,-4.4179 7.86132,0.002 9.23793,0.31866 16.53197,3.79882 18.61419,8.88126 25.07211,18.58266 27.628,41.5041 1.44691,12.97598 0.11839,26.18544 -6.65119,66.13247 -7.06984,41.71885 -8.43339,52.15154 -8.43339,64.52472 0,21.78624 2.82192,34.56115 16.5754,75.03735 22.81284,67.13767 28.37756,96.86899 27.10962,144.84182 -0.88222,33.37906 -5.07619,58.43389 -15.3428,91.65818 -12.49126,40.42357 -27.07353,66.62511 -41.14622,73.93189 -8.60717,4.46899 -27.95718,6.11309 -41.58268,3.53313 z"
         id="path2844" />
      <path
         style="fill:#505050"
         d="m 73.13125,769.59367 c -8.41694,-0.76899 -20.67356,-4.75955 -24.70269,-8.0428 -2.39127,-1.9486 -2.39872,-1.98743 -0.17143,-0.89285 5.18855,2.54985 12.42199,4.01214 21.57622,4.36177 8.42812,0.32191 9.97302,0.11876 12.15605,-1.5984 1.86559,-1.46748 2.83549,-1.68946 3.81821,-0.87387 1.42607,1.18353 3.33636,-0.41065 5.49215,-4.58332 0.62052,-1.20104 2.96953,-3.45104 5.22005,-5 3.52307,-2.42483 4.65253,-4.20631 8.12562,-12.8163 15.78755,-39.13833 26.33523,-85.34972 29.90054,-131 1.95606,-25.04546 0.11042,-61.46242 -4.59783,-90.72151 -3.68574,-22.90475 -17.34585,-86.04449 -18.82278,-87.00262 -4.23701,-2.74867 -10.34398,-3.27587 -37.9471,-3.27587 -15.81266,0 -28.75016,-0.25868 -28.75,-0.57485 1.7e-4,-0.31616 1.13828,-3.91616 2.52915,-8 2.01399,-5.91345 6.47115,-24.71493 6.47115,-27.29705 0,-2.16647 6.42174,-2.9547 28.64236,-3.51566 14.05364,-0.35478 24.64921,-1.03314 25.18544,-1.61244 0.50912,-0.55 1.22621,-6.70686 1.59354,-13.68192 l 0.66787,-12.68191 -3.79461,-1.81809 c -3.27113,-1.56727 -6.48464,-1.8162 -23.2946,-1.80442 -12.3698,0.009 -20.94205,0.45582 -23.44377,1.2229 -2.16908,0.66508 -4.06851,1.0845 -4.22096,0.93204 -0.40519,-0.40519 -3.33527,-27.36134 -3.33527,-30.68382 0,-2.67954 0.37202,-2.91378 7.25,-4.56484 5.63458,-1.35259 12.44839,-1.78943 30.58037,-1.96053 12.83171,-0.12108 23.74188,-0.63166 24.24482,-1.1346 1.34219,-1.34219 4.91063,-34.4691 5.58258,-51.82481 0.44093,-11.38853 0.19766,-17.18796 -1.0104,-24.08756 -3.06207,-17.48844 -7.57316,-25.27909 -17.41859,-30.08189 -5.15133,-2.51292 -6.78716,-2.79643 -16.22878,-2.81258 -5.775,-0.01 -12.075,0.34073 -14,0.77915 -3.35942,0.7651 -3.41967,0.7304 -1.5,-0.86392 3.38662,-2.81265 12.15573,-6.4993 17.44999,-7.33621 7.51953,-1.18868 15.39139,0.45911 24.27671,5.08176 14.33578,7.45829 20.02016,15.19978 23.34672,31.79564 2.90945,14.51493 1.65803,32.36579 -5.01425,71.52561 -8.16779,47.93699 -8.63933,51.58969 -8.64928,67 -0.0155,24.03444 1.5085,30.81115 18.10366,80.5 6.52099,19.525 13.66741,42.925 15.88094,52 7.64102,31.32662 10.75785,59.24714 9.76782,87.5 -0.94187,26.87836 -3.72241,45.83786 -10.85262,74 -11.77333,46.50103 -29.68256,82.64274 -44.83979,90.48891 -8.60205,4.45287 -21.27995,6.23477 -35.26721,4.95686 z"
         id="path2842" />
      <path
         style="fill:#c70d0d"
         d="m 80.7024,768.3523 c 0.22556,-0.66242 1.71872,-1.21552 3.31813,-1.22911 1.59942,-0.0136 4.03303,-0.54494 5.40803,-1.18079 1.375,-0.63585 3.72932,-1.41875 5.23181,-1.73978 1.65023,-0.3526 3.32675,-1.73418 4.23449,-3.48954 0.82647,-1.59822 3.46596,-4.51462 5.86554,-6.4809 3.63721,-2.98042 5.15886,-5.44696 9.14867,-14.82966 12.12109,-28.50479 22.07788,-65.77554 27.58422,-103.25462 2.65023,-18.03885 3.72334,-60.04448 2.03096,-79.5 -2.42681,-27.8987 -5.03123,-41.79068 -16.74166,-89.30025 -7.46293,-30.2773 -8.8805,-34.9986 -10.90699,-36.32641 -3.63744,-2.38334 -21.50309,-3.58664 -47.6972,-3.21254 -13.06259,0.18656 -23.75009,0.0805 -23.75,-0.23565 9e-5,-0.31616 1.13814,-3.91616 2.52901,-8 1.39086,-4.08383 3.43674,-11.92515 4.54639,-17.42515 1.12352,-5.56878 2.67574,-10.50226 3.5029,-11.13346 2.1902,-1.67131 17.93062,-2.58935 37.80796,-2.2051 10.84181,0.20959 17.86548,-0.0424 18.4378,-0.66144 0.50847,-0.55 1.17647,-6.69458 1.48444,-13.65461 0.68004,-15.36896 0.69292,-15.3497 -11.34197,-16.96935 -9.61753,-1.29431 -37.65002,-0.63206 -42.90014,1.0135 -1.88857,0.59194 -3.563,0.94702 -3.72096,0.78907 -0.41317,-0.41317 -3.34527,-27.32652 -3.34527,-30.70578 0,-2.71482 0.33223,-2.91435 7.75,-4.65462 6.53525,-1.53322 11.77753,-1.79669 33.4453,-1.68092 l 25.6953,0.13729 0.54489,-2.63729 c 0.29968,-1.45051 1.71422,-11.63729 3.14342,-22.63729 6.15075,-47.33997 1.87383,-72.68868 -13.89884,-82.37658 -5.41721,-3.32737 -15.51936,-6.19422 -22.22998,-6.30858 -7.41156,-0.12629 -7.55469,-1.11047 -0.41074,-2.82428 7.32197,-1.75651 14.69884,-0.50643 23.74792,4.02432 14.14699,7.08319 19.65229,13.56392 23.15434,27.25684 4.61636,18.04976 3.91573,29.74774 -4.92488,82.22828 -7.41421,44.01299 -8.43366,52.98596 -7.72569,68 0.84913,18.00748 3.61754,29.26982 17.69841,72 21.21642,64.38393 26.06675,89.24555 26.09934,133.77913 0.0265,36.24824 -6.4319,72.6465 -19.64607,110.72087 -11.73038,33.79908 -24.0159,54.43401 -36.27129,60.92177 -6.70148,3.54763 -27.82929,6.51885 -26.89759,3.78263 z"
         id="path2840" />
      <path
         style="fill:#a60c0c"
         d="m 80.7024,768.3523 c 0.22556,-0.66242 1.71872,-1.21552 3.31813,-1.22911 1.59942,-0.0136 4.03303,-0.54494 5.40803,-1.18079 1.375,-0.63585 3.72932,-1.41875 5.23181,-1.73978 1.65023,-0.3526 3.32675,-1.73418 4.23449,-3.48954 0.82647,-1.59822 3.46596,-4.51462 5.86554,-6.4809 3.63721,-2.98042 5.15886,-5.44696 9.14867,-14.82966 12.12109,-28.50479 22.07788,-65.77554 27.58422,-103.25462 2.65023,-18.03885 3.72334,-60.04448 2.03096,-79.5 -2.42681,-27.8987 -5.03123,-41.79068 -16.74166,-89.30025 -7.62664,-30.94147 -8.84817,-34.97742 -11.01637,-36.39808 -1.70453,-1.11685 -6.56247,-1.87821 -16.13813,-2.52925 -19.22326,-1.30697 -18.53449,-1.09136 -17.78416,-5.56729 3.00076,-17.90049 6.12806,-32.84663 7.01284,-33.51613 0.58949,-0.44605 5.04993,-0.58513 9.9121,-0.30908 13.65986,0.77554 13.25376,1.18485 13.93822,-14.04852 0.71939,-16.01082 0.83781,-15.84158 -12.30491,-17.58609 l -9.47362,-1.25749 0.36865,-15.99391 c 0.20276,-8.79665 0.79623,-16.52734 1.31883,-17.17931 0.6871,-0.85718 4.36113,-1.02422 13.26967,-0.6033 l 12.3195,0.5821 0.60186,-2.8967 c 0.33102,-1.59319 1.7712,-11.8967 3.2004,-22.8967 6.15075,-47.33997 1.87383,-72.68868 -13.89884,-82.37658 -5.41721,-3.32737 -15.51936,-6.19422 -22.22998,-6.30858 -7.41156,-0.12629 -7.55469,-1.11047 -0.41074,-2.82428 7.32197,-1.75651 14.69884,-0.50643 23.74792,4.02432 14.14699,7.08319 19.65229,13.56392 23.15434,27.25684 4.61636,18.04976 3.91573,29.74774 -4.92488,82.22828 -7.41421,44.01299 -8.43366,52.98596 -7.72569,68 0.84913,18.00748 3.61754,29.26982 17.69841,72 21.21642,64.38393 26.06675,89.24555 26.09934,133.77913 0.0265,36.24824 -6.4319,72.6465 -19.64607,110.72087 -11.73038,33.79908 -24.0159,54.43401 -36.27129,60.92177 -6.70148,3.54763 -27.82929,6.51885 -26.89759,3.78263 z M 44.42856,427.93828 c 0,-0.51704 1.13798,-4.28139 2.52885,-8.36523 1.39086,-4.08383 3.43674,-11.92515 4.54639,-17.42515 2.08649,-10.34174 3.59221,-12.8361 7.4175,-12.28774 1.87411,0.26865 1.99247,0.95111 1.78432,10.28774 -0.26711,11.98128 -2.07944,25.09546 -3.64556,26.37953 -1.62333,1.33098 -12.6315,2.56051 -12.6315,1.41085 z m 9.99001,-69.02133 c -0.005,-0.42298 -0.67172,-6.61905 -1.48049,-13.76905 -2.14214,-18.93761 -2.12114,-19.20676 1.56199,-20.01571 1.68932,-0.37103 3.32451,-0.42161 3.63374,-0.11238 1.13945,1.13946 3.26272,32.05899 2.26181,32.93702 -1.01153,0.88734 -5.96765,1.68347 -5.97705,0.96012 z"
         id="path2838" />
      <path
         style="fill:#302f2f"
         d="m 80.7024,768.3523 c 0.22556,-0.66242 1.71872,-1.21552 3.31813,-1.22911 1.59942,-0.0136 4.03303,-0.54494 5.40803,-1.18079 1.375,-0.63585 3.72932,-1.41875 5.23181,-1.73978 1.65023,-0.3526 3.32675,-1.73418 4.23449,-3.48954 0.82647,-1.59822 3.46596,-4.51462 5.86554,-6.4809 3.63721,-2.98042 5.15886,-5.44696 9.14867,-14.82966 12.12109,-28.50479 22.07788,-65.77554 27.58422,-103.25462 2.65023,-18.03885 3.72334,-60.04448 2.03096,-79.5 -2.42681,-27.8987 -5.03123,-41.79068 -16.74166,-89.30025 -9.53288,-38.67515 -8.82366,-37.15869 -17.91899,-38.31432 -2.71427,-0.34487 -5.49754,-1.33368 -6.18504,-2.19736 -0.89442,-1.12363 -1.25,-6.63628 -1.25,-19.3792 l 0,-17.80887 2.9349,0 c 1.6142,0 4.02214,-0.41337 5.351,-0.9186 2.33758,-0.88875 2.43438,-1.33559 2.97862,-13.75 0.63216,-14.41969 0.20629,-15.64529 -5.82989,-16.77769 -2.91917,-0.54764 -3.42976,-1.05025 -3.40217,-3.34902 0.0694,-5.78332 2.69276,-29.95107 3.37006,-31.04696 0.39804,-0.64405 3.09441,-1.15773 6.07704,-1.15773 6.3769,0 5.44799,2.60318 9.09935,-25.5 6.15075,-47.33997 1.87383,-72.68868 -13.89884,-82.37658 -5.41721,-3.32737 -15.51936,-6.19422 -22.22998,-6.30857 -7.41156,-0.1263 -7.55469,-1.11048 -0.41074,-2.82429 7.32197,-1.75651 14.69884,-0.50643 23.74792,4.02432 14.14699,7.08319 19.65229,13.56392 23.15434,27.25684 4.61636,18.04976 3.91573,29.74774 -4.92488,82.22828 -7.41421,44.01299 -8.43366,52.98596 -7.72569,68 0.84913,18.00748 3.61754,29.26982 17.69841,72 21.21642,64.38393 26.06675,89.24555 26.09934,133.77913 0.0265,36.24824 -6.4319,72.6465 -19.64607,110.72087 -11.73038,33.79908 -24.0159,54.43401 -36.27129,60.92177 -6.70148,3.54763 -27.82929,6.51885 -26.89759,3.78263 z M 45.56913,426.6479 c 0,-0.825 0.38674,-2.4 0.85943,-3.5 0.54172,-1.26064 0.85943,-1.44548 0.85943,-0.5 0,0.825 -0.38674,2.4 -0.85943,3.5 -0.54172,1.26064 -0.85943,1.44548 -0.85943,0.5 z"
         id="path2836" />
      <path
         style="fill:#610808"
         d="m 97.42856,766.20692 c 0,-0.24254 0.45,-0.7191 1,-1.05902 0.55,-0.33992 1,-0.14148 1,0.44098 0,0.58246 -0.45,1.05902 -1,1.05902 -0.55,0 -1,-0.19844 -1,-0.44098 z m 11.3519,-8.90669 c 6.68033,-7.37616 8.6408,-10.42165 13.13916,-20.41104 12.19197,-27.07439 22.76373,-66.55544 28.18025,-105.24129 1.35509,-9.67833 1.75044,-19.38489 1.75141,-43 0.001,-26.42942 -0.29891,-32.54117 -2.24771,-45.79402 -2.43913,-16.58733 -5.83826,-34.0964 -9.18763,-47.32595 -4.46601,-17.64013 -17.25032,-61.47577 -18.51341,-63.47998 -1.10352,-1.75099 -2.70688,-2.21262 -9.6487,-2.77799 -6.01221,-0.48966 -8.67257,-1.14012 -9.57527,-2.34118 -0.89157,-1.18625 -1.25,-6.79912 -1.25,-19.57465 l 0,-17.91151 6.75,0.35264 6.75,0.35264 0.75721,-14.38885 c 0.49833,-9.46963 0.4066,-14.81131 -0.26832,-15.62453 -0.56403,-0.67963 -3.27717,-1.45204 -6.02919,-1.71647 -2.75202,-0.26443 -5.27379,-0.7509 -5.60393,-1.08104 -0.97687,-0.97687 2.2441,-32.68898 3.44184,-33.88672 0.79715,-0.79715 2.76994,-0.74302 7.20239,0.19761 3.59594,0.76311 6.45819,0.92656 6.96516,0.39773 0.47334,-0.49375 2.32558,-10.79773 4.1161,-22.89773 4.06059,-27.44084 4.6556,-52.31254 1.53108,-64 -3.68403,-13.78034 -8.1709,-19.72662 -19.6614,-26.05651 -7.66962,-4.22504 -3.97058,-3.5424 4.2534,0.78494 12.52944,6.59282 18.62863,15.27812 21.31474,30.35235 2.99227,16.79239 1.93743,29.09467 -7.02406,81.91922 -6.45995,38.07891 -7.86706,50.7984 -7.02478,63.5 1.30645,19.70113 4.1017,31.01495 17.17104,69.5 14.14339,41.64774 19.52856,61.62519 23.31717,86.5 6.89369,45.2618 4.37962,87.10116 -7.99178,133 -8.52414,31.6252 -17.96535,55.05712 -29.32263,72.77508 -4.60869,7.1898 -13.06552,14.55799 -18.14404,15.80838 -2.73496,0.67338 -2.3063,-0.0273 4.8519,-7.93113 z M 45.56913,426.6479 c 0,-0.825 0.38674,-2.4 0.85943,-3.5 0.54172,-1.26064 0.85943,-1.44548 0.85943,-0.5 0,0.825 -0.38674,2.4 -0.85943,3.5 -0.54172,1.26064 -0.85943,1.44548 -0.85943,0.5 z"
         id="path2834" />
      <path
         style="fill:#0c0b0b"
         d="m 97.42856,766.20692 c 0,-0.24254 0.45,-0.7191 1,-1.05902 0.55,-0.33992 1,-0.14148 1,0.44098 0,0.58246 -0.45,1.05902 -1,1.05902 -0.55,0 -1,-0.19844 -1,-0.44098 z m 11.3519,-8.90669 c 6.68033,-7.37616 8.6408,-10.42165 13.13916,-20.41104 12.19197,-27.07439 22.76373,-66.55544 28.18025,-105.24129 1.35509,-9.67833 1.75044,-19.38489 1.75141,-43 0.001,-26.52684 -0.29517,-32.51915 -2.27416,-46 -4.10948,-27.99368 -8.50715,-46.52351 -22.54473,-94.99355 -3.12942,-10.8055 -5.12332,-16.00869 -6.58966,-17.19606 -1.5541,-1.25843 -2.59596,-4.25973 -3.99432,-11.50645 -2.46285,-12.76328 -3.59725,-26.88437 -2.29251,-28.53739 1.45981,-1.8495 2.53425,-28.74642 1.21196,-30.33968 -1.72084,-2.0735 2.81431,-33.50212 5.1121,-35.42687 1.40083,-1.17341 2.49775,-6.29002 5.03803,-23.5 4.05166,-27.44942 4.64363,-52.32673 1.52291,-64 -3.68403,-13.78034 -8.1709,-19.72662 -19.6614,-26.05651 -7.66962,-4.22504 -3.97058,-3.5424 4.2534,0.78494 12.52944,6.59282 18.62863,15.27811 21.31474,30.35235 2.99227,16.79239 1.93743,29.09467 -7.02406,81.91922 -6.45995,38.07891 -7.86706,50.7984 -7.02478,63.5 1.30645,19.70113 4.1017,31.01495 17.17104,69.5 14.14339,41.64774 19.52856,61.62519 23.31717,86.5 6.89369,45.2618 4.37962,87.10116 -7.99178,133 -8.52414,31.6252 -17.96535,55.05712 -29.32263,72.77508 -4.60869,7.1898 -13.06552,14.55799 -18.14404,15.80838 -2.73496,0.67338 -2.3063,-0.0273 4.8519,-7.93113 z"
         id="path2832" />
    </g>
  </g>
</svg>
