<?xml version="1.0" standalone="no"?>
<!DOCTYPE svg PUBLIC "-//W3C//DTD SVG 20010904//EN"
 "http://www.w3.org/TR/2001/REC-SVG-20010904/DTD/svg10.dtd">
<svg version="1.0" xmlns="http://www.w3.org/2000/svg"
 width="469pt" height="452pt" viewBox="0 0 469 452"
 preserveAspectRatio="xMidYMid meet">
<metadata>
Created by potrace 1.8, written by Peter Selinger 2001-2007
</metadata>
<g transform="translate(0,452) scale(0.128571,-0.128571)"
fill="#000000" stroke="none">
<path d="M1165 2063 c-612 -1436 -691 -1615 -766 -1724 -88 -130 -152 -173
-303 -200 l-66 -12 0 -44 0 -43 530 0 530 0 0 45 0 45 -39 0 c-53 0 -177 24
-229 45 -49 20 -95 74 -110 129 -22 77 0 147 176 558 l126 298 651 0 651 0
109 -262 c169 -408 196 -498 181 -600 -5 -33 -17 -55 -46 -86 -46 -48 -107
-70 -217 -79 l-73 -6 0 -43 0 -44 665 0 665 0 0 45 0 45 -36 0 c-50 0 -148 27
-205 56 -142 72 -213 190 -453 764 -75 179 -342 818 -594 1420 l-459 1095 -44
3 -44 2 -600 -1407z m794 -47 c155 -368 280 -671 278 -673 -2 -2 -260 -2 -573
-1 l-570 3 290 672 c160 370 291 671 292 670 1 -1 128 -303 283 -671z"/>
</g>
</svg>
