<?xml version="1.0" encoding="UTF-8" standalone="no"?>
<!-- Created with Inkscape (http://www.inkscape.org/) -->
<svg
   xmlns:svg="http://www.w3.org/2000/svg"
   xmlns="http://www.w3.org/2000/svg"
   version="1.0"
   width="458.16299"
   height="515.13501"
   viewBox="0 0 458.163 515.135"
   id="Layer_1"
   xml:space="preserve"><defs
   id="defs104" />

<metadata>
<rdf:RDF
      xmlns="http://web.resource.org/cc/"
      xmlns:dc="http://purl.org/dc/elements/1.1/"
      xmlns:rdf="http://www.w3.org/1999/02/22-rdf-syntax-ns#">
      <Work rdf:about="">
         <dc:title>Girl Face Cartoon</dc:title>
         <dc:description>Girl Face Cartoon</dc:description>
         <dc:subject>
          <rdf:Bag>
            <rdf:li>people</rdf:li>
	    <rdf:li>girl</rdf:li>
	    <rdf:li>cartoon</rdf:li>
          </rdf:Bag>
         </dc:subject>
         <dc:publisher><Agent rdf:about="http://www.openclipart.org/"><dc:title>Open Clip Art Project</dc:title></Agent></dc:publisher>
         <dc:creator><Agent rdf:about=""><dc:title>worldlabel.com - SVG by Gerald G.</dc:title></Agent></dc:creator>
         <dc:rights><Agent rdf:about="http://web.resource.org/cc/PublicDomain"><dc:title>Public Domain</dc:title></Agent></dc:rights>
         <dc:date>2006/11/13</dc:date>
         <dc:format>image/svg+xml</dc:format>
         <dc:type>http://purl.org/dc/dcmitype/StillImage</dc:type>
         <license rdf:resource="http://web.resource.org/cc/PublicDomain" />
      </Work>
      <License rdf:about="http://web.resource.org/cc/PublicDomain">
         <permits rdf:resource="http://web.resource.org/cc/Reproduction" />
         <permits rdf:resource="http://web.resource.org/cc/Distribution" />
         <permits rdf:resource="http://web.resource.org/cc/DerivativeWorks" />
      </License>
   </rdf:RDF>
</metadata>

<g
   id="g5">
	<path
   d="M 57.315,228.886 C 57.315,341.366 131.658,432.59 223.365,432.59 C 315.041,432.59 389.384,341.366 389.384,228.886 C 389.384,116.404 315.041,25.18 223.365,25.18 C 131.658,25.181 57.315,116.404 57.315,228.886 L 57.315,228.886 z "
   style="fill-rule:evenodd;stroke:black;stroke-width:0.036;stroke-miterlimit:10"
   id="path7" />
	<path
   d="M 60.848,229.248 C 60.848,339.858 133.923,429.571 224.06,429.571 C 314.195,429.571 387.271,339.858 387.271,229.248 C 387.271,118.609 314.195,28.895 224.06,28.895 C 133.923,28.895 60.848,118.608 60.848,229.248 L 60.848,229.248 z "
   style="fill:#e8ccba;fill-rule:evenodd;stroke:black;stroke-width:0.036;stroke-miterlimit:10"
   id="path9" />
	<path
   d="M 67.28,184.044 C 62.539,182.836 57.768,183.047 52.846,184.678 C 47.833,186.248 41.583,188.392 37.687,193.798 C 33.641,199.173 29.685,208.292 29.444,217.079 C 29.172,225.927 32.856,238.579 36.419,245.947 C 39.921,253.074 43.968,257.512 50.671,260.079 C 57.375,262.586 65.83,262.767 76.368,260.864 L 76.368,260.864 L 67.28,184.044 L 67.28,184.044 z "
   style="fill-rule:evenodd;stroke:black;stroke-width:0.036;stroke-miterlimit:10"
   id="path11" />
	<path
   d="M 64.351,266.571 C 71.93,268.896 77.275,268.202 80.627,264.488 C 83.888,260.623 85.005,255.701 84.099,244.135 C 83.073,232.358 77.819,206.087 74.859,195.156 C 71.779,184.345 69.062,179.152 66.254,179.454 L 66.254,179.454 C 65.982,182.564 65.348,184.829 64.11,186.369 C 62.842,187.788 61.332,187.758 59.007,188.483 C 56.531,189.208 52.786,189.328 49.858,190.808 C 46.838,192.287 43.939,193.133 41.403,197.18 C 38.806,201.166 35.515,207.96 34.79,214.664 C 34.005,221.307 35.424,230.97 36.844,236.646 C 38.233,242.263 40.89,245.041 43.064,248.121 C 45.178,250.99 47.201,252.953 49.617,254.372 C 52.002,255.701 54.841,255.912 57.075,256.516 C 59.158,257.09 61.061,256.154 62.329,257.906 C 63.475,259.596 64.26,262.404 64.351,266.571 L 64.351,266.571 z "
   style="fill:#e8ccba;fill-rule:evenodd"
   id="path13" />
	<path
   d="M 380.868,185.373 C 385.579,184.165 390.349,184.376 395.303,186.007 C 400.255,187.577 406.476,189.721 410.461,195.127 C 414.387,200.502 418.463,209.621 418.734,218.408 C 418.825,227.195 415.322,239.969 411.729,247.306 C 408.135,254.432 404.119,258.902 397.476,261.407 C 390.743,263.914 382.288,264.095 371.779,262.193 L 371.779,262.193 L 380.868,185.373 L 380.868,185.373 z "
   style="fill-rule:evenodd;stroke:black;stroke-width:0.036;stroke-miterlimit:10"
   id="path15" />
	<path
   d="M 383.828,267.9 C 376.219,270.285 370.873,269.561 367.552,265.846 C 364.2,261.95 363.114,257.149 364.05,245.493 C 364.986,233.717 370.239,207.446 373.289,196.514 C 376.31,185.674 379.057,180.54 381.894,180.782 L 381.894,180.782 C 382.136,183.892 382.77,186.157 384.039,187.697 C 385.217,189.086 386.757,189.146 389.143,189.841 C 391.559,190.506 395.243,190.687 398.322,192.136 C 401.252,193.525 404.18,194.521 406.777,198.507 C 409.314,202.493 412.514,209.287 413.361,215.99 C 414.055,222.634 412.666,232.266 411.307,238.004 C 409.857,243.65 407.2,246.338 405.086,249.448 C 402.882,252.287 400.889,254.34 398.533,255.729 C 396.087,257.087 393.219,257.208 391.075,257.842 C 388.901,258.386 386.998,257.54 385.821,259.261 C 384.582,260.955 383.918,263.793 383.828,267.9 L 383.828,267.9 z "
   style="fill:#e8ccba;fill-rule:evenodd"
   id="path17" />
	<path
   d="M 249.515,214.12 C 250.209,219.374 245.952,224.266 240.002,225.052 C 234.054,225.837 228.648,222.213 227.954,216.959 C 227.26,211.704 231.548,206.813 237.496,206.028 C 243.445,205.242 248.82,208.866 249.515,214.12 L 249.515,214.12 z "
   style="fill-rule:evenodd;stroke:black;stroke-width:0.036;stroke-miterlimit:10"
   id="path19" />
	<path
   d="M 240.697,213.486 C 240.938,215.087 239.791,216.596 238.16,216.807 C 236.56,217.019 235.051,215.871 234.839,214.241 C 234.628,212.64 235.776,211.131 237.405,210.92 C 239.006,210.708 240.485,211.855 240.697,213.486 L 240.697,213.486 z "
   style="fill:white;fill-rule:evenodd;stroke:black;stroke-width:0.036;stroke-miterlimit:10"
   id="path21" />
	<path
   d="M 193.742,210.859 C 191.236,215.66 193.531,221.82 198.845,224.598 C 204.159,227.375 210.531,225.745 213.037,220.944 C 215.543,216.143 213.249,210.013 207.934,207.205 C 202.62,204.427 196.279,206.057 193.742,210.859 L 193.742,210.859 z "
   style="fill-rule:evenodd;stroke:black;stroke-width:0.036;stroke-miterlimit:10"
   id="path23" />
	<path
   d="M 199.449,211.825 C 198.694,213.274 199.238,215.056 200.687,215.811 C 202.137,216.596 203.918,216.022 204.703,214.573 C 205.458,213.124 204.884,211.343 203.435,210.587 C 201.985,209.832 200.204,210.375 199.449,211.825 L 199.449,211.825 z "
   style="fill:white;fill-rule:evenodd;stroke:black;stroke-width:0.036;stroke-miterlimit:10"
   id="path25" />
	<path
   d="M 258.664,193.768 C 256.158,192.198 251.114,189.842 247.37,188.665 C 243.506,187.336 238.855,186.46 235.986,186.4 C 232.966,186.279 230.34,187.155 229.977,188.091 C 229.645,188.997 231.517,191.02 234.083,191.836 C 236.649,192.47 241.21,191.594 244.863,192.47 C 248.396,193.376 252.26,195.429 254.948,196.879 C 257.455,198.117 259.177,200.049 260.354,200.231 C 261.5,200.291 262.105,198.993 261.924,197.845 C 261.684,196.727 260.988,195.247 258.664,193.768 L 258.664,193.768 z "
   style="fill-rule:evenodd;stroke:black;stroke-width:0.036;stroke-miterlimit:10"
   id="path27" />
	<path
   d="M 185.77,188.875 C 188.186,187.546 193.168,186.006 196.973,185.191 C 200.687,184.406 205.187,183.983 208.026,184.285 C 210.773,184.587 213.34,185.674 213.641,186.731 C 213.853,187.637 211.83,189.48 209.444,189.932 C 206.878,190.325 202.529,188.785 199.087,189.268 C 195.554,189.721 191.719,191.351 189.092,192.408 C 186.434,193.374 184.774,195.005 183.656,195.096 C 182.478,195.035 181.965,193.556 182.358,192.529 C 182.66,191.442 183.294,190.114 185.77,188.875 L 185.77,188.875 z "
   style="fill-rule:evenodd;stroke:black;stroke-width:0.036;stroke-miterlimit:10"
   id="path29" />
	<path
   d="M 215.242,373.95 C 208.658,373.104 206.031,373.376 198.513,370.538 C 190.964,367.669 178.825,362.838 170.46,357.069 C 162.126,351.272 155.543,344.9 148.93,336.052 C 142.317,327.145 135.371,315.036 131.084,304.316 C 126.826,293.596 124.35,283.119 123.475,272.338 L 123.475,272.338 C 124.26,270.466 124.713,268.413 124.954,265.937 C 125.135,263.371 125.256,258.539 124.743,257.632 C 124.109,256.757 122.509,258.146 121.693,260.653 C 120.878,263.068 121.119,268.625 119.851,272.308 C 118.401,275.902 114.506,279.797 113.419,282.484 C 112.272,285.141 112.845,287.437 113.177,288.222 C 113.388,288.886 113.992,288.584 115.231,286.832 C 116.469,285.02 118.19,282.121 120.515,277.804 L 120.515,277.804 C 122.146,288.433 125.196,298.971 129.786,309.783 C 134.285,320.562 140.234,332.883 147.994,342.213 C 155.724,351.423 167.621,359.396 176.227,364.831 C 184.894,370.145 192.926,372.017 199.267,374.191 C 205.427,376.274 208.266,376.757 213.007,377.392 C 217.747,377.906 222.307,377.906 227.138,377.392 C 231.788,376.757 234.658,376.274 240.878,374.191 C 247.128,372.016 255.191,370.145 263.917,364.831 C 272.462,359.395 284.36,351.423 292.151,342.213 C 299.88,332.883 305.678,320.563 310.359,309.783 C 314.979,298.971 317.999,288.433 319.66,277.804 L 319.66,277.804 C 320.565,280.974 322.045,283.118 324.098,284.357 C 326.091,285.535 331.677,286.289 331.768,285.112 C 331.768,283.874 326.061,279.918 324.098,277.2 C 321.953,274.392 320.383,271.825 319.507,268.564 C 318.662,265.181 319.507,258.69 318.903,257.24 C 318.119,255.701 316.185,258.328 315.551,259.777 C 314.917,261.256 314.917,263.733 315.189,265.937 C 315.401,268.05 315.853,270.104 316.668,272.338 L 316.668,272.338 C 315.822,283.118 313.316,293.596 309.059,304.316 C 304.771,315.037 297.826,327.145 291.213,336.052 C 284.6,344.9 278.017,351.272 269.683,357.069 C 261.318,362.838 249.179,367.669 241.63,370.538 C 234.111,373.376 231.484,373.104 224.901,373.95 C 218.322,374.826 221.854,374.826 215.242,373.95 L 215.242,373.95 z "
   style="fill-rule:evenodd;stroke:black;stroke-width:0.036;stroke-miterlimit:10"
   id="path31" />
	<path
   d="M 62.599,212.066 C 61.089,211.584 59.368,210.979 57.435,211.191 C 55.412,211.372 52.755,211.191 50.973,213.546 C 49.131,215.961 46.775,221.155 46.685,225.051 C 46.534,228.765 48.467,233.567 50.52,235.83 C 52.543,238.005 56.741,238.549 58.915,238.035 C 61.059,237.31 62.116,232.63 63.354,232.146 C 64.501,231.663 66.042,233.595 65.86,235.377 C 65.649,237.098 64.833,241.566 62.025,242.594 C 58.975,243.59 51.849,243.499 48.467,241.145 C 45.055,238.638 42.669,232.69 42.246,227.858 C 41.793,222.936 43.575,215.689 46.081,212.065 C 48.527,208.472 53.569,206.721 57.012,206.328 C 60.485,205.845 64.712,207.869 66.433,209.136 C 67.852,210.374 66.826,212.971 66.161,213.545 C 65.468,213.909 64.049,212.489 62.599,212.066 L 62.599,212.066 z "
   style="fill-rule:evenodd;stroke:black;stroke-width:0.036;stroke-miterlimit:10"
   id="path33" />
	<path
   d="M 162.308,17.27 C 160.254,14.069 156.933,12.77 152.011,13.254 C 147.028,13.737 142.65,13.797 133.047,20.29 C 123.294,26.782 107.562,38.136 94.577,51.906 C 81.532,65.614 65.86,84.818 55.594,102.061 C 45.236,119.272 38.684,139.474 33.369,154.27 C 28.054,168.855 24.944,179.937 24.159,189.389 C 23.313,198.81 24.763,205.725 28.507,210.466 L 28.507,210.466 C 24.279,212.036 21.683,213.999 20.384,216.475 C 19.146,218.92 19.448,222.846 20.928,224.991 C 22.317,226.954 24.733,228.131 28.507,228.524 L 28.507,228.524 C 27.269,237.613 25.397,248.333 22.559,261.136 C 19.599,273.939 15.13,285.262 11.718,304.769 C 8.276,324.276 3.535,353.023 2.508,377.03 C 1.572,400.975 5.95,427.427 5.739,447.297 C 5.226,466.985 0.666,483.291 0.334,494.584 C 0.001,505.848 -1.056,512.219 4.139,514.151 C 9.333,515.841 18.361,516.597 31.225,505.123 C 44.089,493.406 67.189,467.679 80.506,445.394 C 93.672,422.989 108.589,398.861 109.766,372.651 C 110.642,346.38 92.312,314.855 86.454,289.369 C 80.566,263.944 76.972,241.509 75.1,221.126 L 75.1,221.126 C 79.479,218.831 82.257,216.355 83.767,213.456 C 85.156,210.527 85.277,206.269 83.767,203.944 C 82.167,201.589 79.207,200.079 74.557,199.415 L 74.557,199.415 C 90.803,188.333 104.331,176.647 115.715,163.783 C 127.039,150.768 133.984,143.189 142.257,122.656 C 150.47,102.032 157.688,75.368 164.482,41.367 L 164.482,41.367 C 170.099,59.786 180.517,76.757 196.43,93.546 C 212.284,110.214 227.714,122.293 259.268,140.713 C 291.035,159.163 332.222,179.515 384.946,203.038 L 384.946,203.038 C 379.45,204.579 375.947,206.511 374.106,209.077 C 372.263,211.675 372.414,215.54 374.106,218.106 C 375.766,220.521 378.907,222.363 383.859,223.631 L 383.859,223.631 C 383.979,234.11 381.202,247.758 375.193,265.273 C 369.032,282.847 351.729,305.615 348.106,327.99 C 344.543,350.275 346.837,375.157 354.055,397.744 C 361.241,420.271 376.159,443.31 390.894,461.973 C 405.66,480.543 430.391,500.926 441.806,508.113 C 452.948,515.028 456.843,516.054 458.05,503.613 C 459.137,490.962 450.592,463.423 448.841,433.346 C 447.12,402.999 449.717,350.82 447.784,323.975 C 445.639,297.312 440.083,291.514 436.943,274.302 C 433.802,256.999 431.386,239.546 429.364,221.126 L 429.364,221.126 C 433.651,218.499 436.249,215.69 437.486,212.46 C 438.634,209.107 438.151,204.155 436.399,201.921 C 434.527,199.746 431.386,198.871 426.646,199.414 L 426.646,199.414 C 430.571,185.011 428.7,167.799 420.698,146.722 C 412.665,125.584 402.912,96.445 378.967,73.978 C 354.689,51.482 308.669,25.181 277.144,12.77 C 245.559,0.42 210.894,-0.546 191.538,0.209 C 172.272,1.024 162.761,6.55 162.308,17.27 L 162.308,17.27 z "
   style="fill-rule:evenodd;stroke:black;stroke-width:0.036;stroke-miterlimit:10"
   id="path35" />
	<path
   d="M 43.666,135.699 C 39.71,144.97 36.419,154.814 33.913,162.786 C 31.286,170.637 29.444,176.706 28.508,182.867 C 27.572,189.057 27.451,195.006 28.508,199.414 C 29.535,203.672 30.199,207.265 34.457,208.443 C 38.715,209.59 45.268,208.987 53.42,205.937 C 61.513,202.615 72.051,196.939 82.137,189.39 C 92.041,181.811 103.697,171.121 112.454,161.277 C 121.03,151.432 127.22,142.826 133.591,130.688 C 139.932,118.338 146.032,102.304 150.38,88.534 C 154.608,74.673 157.265,59.908 159.047,48.886 C 160.738,37.865 161.976,28.564 160.677,23.31 C 159.319,18.055 156.299,17.149 150.924,17.784 C 145.459,18.297 138.423,19.173 128.186,26.813 C 117.738,34.482 101.04,49.914 89.172,63.441 C 77.184,76.939 64.864,94.875 57.224,107.105 C 49.615,119.242 47.501,126.249 43.666,135.699 L 43.666,135.699 z "
   style="fill:#ffb600;fill-rule:evenodd;stroke:black;stroke-width:0.036;stroke-miterlimit:10"
   id="path37" />
	<path
   d="M 143.344,31.311 C 135.795,37.561 117.194,54.23 104.33,70.476 C 91.436,86.661 77.184,108.946 66.947,127.668 C 56.711,146.329 47.863,169.822 43.666,181.357 C 39.469,192.62 41.522,194.734 42.035,195.398 C 42.428,195.912 43.183,192.982 46.384,184.859 C 49.525,176.555 53.812,161.004 60.999,146.721 C 68.246,132.287 79.933,113.142 89.172,99.554 C 98.261,85.965 106.928,75.185 115.171,65.946 C 123.294,56.706 131.749,49.79 137.396,44.386 C 142.982,38.92 147.089,35.508 148.207,33.333 C 149.142,31.07 150.622,25.12 143.344,31.311 L 143.344,31.311 z "
   style="fill-rule:evenodd;stroke:black;stroke-width:0.036;stroke-miterlimit:10"
   id="path39" />
	<path
   d="M 136.852,58.427 C 131.658,64.165 121.844,77.33 114.627,91.039 C 107.35,104.749 102.971,123.38 94.033,139.716 C 84.944,155.932 66.464,179.032 61.541,187.366 C 56.77,195.459 60.605,193.496 65.346,188.363 C 69.967,182.988 82.377,166.501 89.171,156.264 C 95.875,146.027 100.706,138.086 105.417,127.668 C 110.007,117.129 111.125,104.96 116.801,94.059 C 122.508,83.127 134.103,69.177 138.995,62.926 C 143.676,56.645 145.276,57.672 144.974,56.917 C 144.552,56.042 141.955,52.781 136.852,58.427 L 136.852,58.427 z "
   style="fill-rule:evenodd;stroke:black;stroke-width:0.036;stroke-miterlimit:10"
   id="path41" />
	<path
   d="M 151.467,71.955 C 150.954,76.455 147.119,91.191 144.975,97.048 C 142.77,102.756 138.845,106.62 138.453,106.077 C 137.939,105.322 140.687,98.951 142.257,93.033 C 143.858,86.993 145.971,74.039 147.663,70.476 C 149.142,66.912 151.89,67.516 151.467,71.955 L 151.467,71.955 z "
   style="fill-rule:evenodd;stroke:black;stroke-width:0.036;stroke-miterlimit:10"
   id="path43" />
	<path
   d="M 98.925,162.031 C 98.925,163.571 99.922,164.779 101.16,164.779 C 102.398,164.779 103.394,163.571 103.394,162.031 C 103.394,160.521 102.398,159.282 101.16,159.282 C 99.922,159.283 98.925,160.521 98.925,162.031 L 98.925,162.031 z "
   style="fill-rule:evenodd;stroke:black;stroke-width:0.036;stroke-miterlimit:10"
   id="path45" />
	<path
   d="M 96.751,168.795 C 95.694,171.09 92.222,175.589 89.716,178.337 C 87.028,180.934 82.378,184.467 81.593,184.377 C 80.838,184.105 82.952,180.632 85.367,177.341 C 87.752,173.899 93.671,166.289 95.664,164.779 C 97.506,163.299 97.718,166.5 96.751,168.795 L 96.751,168.795 z "
   style="fill-rule:evenodd;stroke:black;stroke-width:0.036;stroke-miterlimit:10"
   id="path47" />
	<path
   d="M 29.051,213.456 C 25.941,213.426 23.948,214.302 23.072,215.962 C 22.135,217.593 21.924,221.699 23.615,223.512 C 25.216,225.263 27.782,226.259 32.824,226.501 C 37.806,226.712 46.533,226.562 53.418,224.991 C 60.303,223.269 68.849,219.827 73.468,216.989 C 77.967,214.12 80.172,211.04 79.961,208.443 C 79.538,205.846 76.76,203.461 71.294,201.407 L 71.294,201.407 C 65.224,205.483 58.913,208.382 51.787,210.466 C 44.632,212.429 37.204,213.425 29.051,213.456 L 29.051,213.456 z "
   style="fill:#ff80c2;fill-rule:evenodd;stroke:black;stroke-width:0.036;stroke-miterlimit:10"
   id="path49" />
	<path
   d="M 40.948,222.998 C 42.79,223.36 45.719,223.269 49.615,222.484 C 53.389,221.639 61.391,219.797 63.717,218.468 C 65.861,217.109 65.015,214.421 63.174,214.482 C 61.272,214.421 56.984,217.532 52.877,218.468 C 48.71,219.314 40.799,219.193 38.806,219.978 C 36.842,220.733 39.076,222.514 40.948,222.998 L 40.948,222.998 z "
   style="fill-rule:evenodd;stroke:black;stroke-width:0.036;stroke-miterlimit:10"
   id="path51" />
	<path
   d="M 66.947,213.214 C 66.947,214.724 67.973,215.961 69.212,215.961 C 70.42,215.961 71.417,214.724 71.417,213.214 C 71.417,211.703 70.42,210.466 69.212,210.466 C 67.974,210.466 66.947,211.704 66.947,213.214 L 66.947,213.214 z "
   style="fill-rule:evenodd;stroke:black;stroke-width:0.036;stroke-miterlimit:10"
   id="path53" />
	<path
   d="M 396.843,203.943 C 382.439,198.236 365.197,190.567 344.301,180.36 C 323.254,170.093 294.657,156.475 272.252,143.218 C 249.785,129.781 226.354,114.411 211.045,101.064 C 195.705,87.717 188.88,75.307 181.271,63.953 C 173.691,52.448 167.773,42.121 166.082,33.334 C 164.331,24.547 165.84,16.425 170.974,11.744 C 176.077,6.973 183.203,5.614 196.429,5.222 C 209.625,4.739 230.973,4.678 249.514,9.238 C 267.964,13.858 287.772,23.461 306.373,32.821 C 324.944,42.242 345.96,54.774 360.002,64.95 C 373.862,74.914 381.441,83.189 389.262,92.55 C 397.023,101.85 401.22,110.94 406.052,120.632 C 410.733,130.296 414.567,136.908 417.436,150.255 C 420.274,163.632 421.965,179.878 422.841,199.928 L 422.841,199.928 C 419.942,202.223 416.379,203.763 412.03,204.427 C 407.622,205.061 402.671,204.94 396.843,203.943 L 396.843,203.943 z "
   style="fill:#ffb600;fill-rule:evenodd;stroke:black;stroke-width:0.036;stroke-miterlimit:10"
   id="path55" />
	<path
   d="M 196.429,18.779 C 208.81,20.349 238.613,22.373 260.898,31.823 C 283.183,41.245 308.155,58.578 328.598,74.974 C 348.89,91.401 368.367,111.179 381.683,129.176 C 394.819,147.143 403.153,171.602 407.139,181.356 C 410.913,190.687 408.165,191.683 404.964,185.855 C 401.673,179.937 396.116,160.097 388.175,146.721 C 380.264,133.253 372.292,120.752 357.859,106.076 C 343.273,91.31 318.633,71.561 301.511,59.423 C 284.33,47.254 269.835,39.735 255.462,33.846 C 240.907,27.898 226.776,26.236 215.392,24.304 C 203.978,22.402 190.963,23.126 187.762,22.281 C 184.532,21.286 184.2,17.209 196.429,18.779 L 196.429,18.779 z "
   style="fill-rule:evenodd;stroke:black;stroke-width:0.036;stroke-miterlimit:10"
   id="path57" />
	<path
   d="M 185.045,36.837 C 190.661,44.024 206.183,64.889 221.341,79.504 C 236.378,94.059 251.96,108.734 274.969,123.652 C 298.039,138.387 339.318,157.834 358.402,167.799 C 377.245,177.643 380.898,178.156 387.632,182.867 C 394.215,187.547 395.241,193.405 397.929,195.912 C 400.526,198.358 403.998,199.716 403.334,197.422 C 402.488,195.006 399.287,186.43 393.61,181.841 C 387.964,177.22 386.151,178.217 369.755,169.822 C 353.117,161.216 316.64,144.487 295.02,131.171 C 273.369,117.794 258.693,106.379 240.847,90.526 C 222.851,74.522 197.727,45.986 188.306,36.837 C 178.946,27.808 179.489,29.71 185.045,36.837 L 185.045,36.837 z "
   style="fill-rule:evenodd;stroke:black;stroke-width:0.036;stroke-miterlimit:10"
   id="path59" />
	<path
   d="M 342.67,174.321 C 344.633,176.103 353.088,181.81 361.634,185.856 C 370.089,189.752 387.905,196.485 393.068,197.904 C 397.93,199.142 396.451,196.606 391.437,193.888 C 386.275,191.11 370.24,184.92 363.264,181.84 C 356.379,178.73 353.632,176.555 350.249,175.317 C 346.656,174.049 340.828,172.509 342.67,174.321 L 342.67,174.321 z "
   style="fill-rule:evenodd;stroke:black;stroke-width:0.036;stroke-miterlimit:10"
   id="path61" />
	<path
   d="M 334.548,170.577 C 334.548,172.087 335.544,173.325 336.782,173.325 C 338.019,173.325 339.016,172.087 339.016,170.577 C 339.016,169.037 338.019,167.799 336.782,167.799 C 335.544,167.799 334.548,169.037 334.548,170.577 L 334.548,170.577 z "
   style="fill-rule:evenodd;stroke:black;stroke-width:0.036;stroke-miterlimit:10"
   id="path63" />
	<path
   d="M 389.414,205.574 C 393.189,208.655 397.869,209.983 404.029,209.56 C 410.129,209.137 417.224,206.963 425.679,203.038 L 425.679,203.038 C 429.817,202.857 432.533,203.703 433.832,205.575 C 435.131,207.387 435.07,211.584 433.288,214.09 C 431.326,216.476 429.303,218.983 422.448,220.1 C 415.383,221.126 399.438,221.187 392.1,220.613 C 384.823,219.949 381.079,218.379 379.116,216.597 C 377.093,214.755 378.422,211.916 380.203,210.075 C 381.955,208.232 384.915,206.692 389.414,205.574 L 389.414,205.574 z "
   style="fill:#ff80c2;fill-rule:evenodd;stroke:black;stroke-width:0.036;stroke-miterlimit:10"
   id="path65" />
	<path
   d="M 418.886,216.626 C 417.135,217.471 414.357,218.075 410.431,218.438 C 406.415,218.709 398.322,218.982 395.695,218.317 C 393.038,217.502 393.19,214.814 394.97,214.332 C 396.722,213.879 401.825,215.57 406.082,215.449 C 410.34,215.117 417.708,213.003 420.033,213.184 C 422.116,213.395 420.486,215.629 418.886,216.626 L 418.886,216.626 z "
   style="fill-rule:evenodd;stroke:black;stroke-width:0.036;stroke-miterlimit:10"
   id="path67" />
	<path
   d="M 390.954,214.15 C 391.436,215.599 390.833,217.048 389.655,217.381 C 388.478,217.713 387.149,216.777 386.666,215.327 C 386.213,213.848 386.787,212.398 387.965,212.097 C 389.143,211.764 390.471,212.67 390.954,214.15 L 390.954,214.15 z "
   style="fill-rule:evenodd;stroke:black;stroke-width:0.036;stroke-miterlimit:10"
   id="path69" />
	<path
   d="M 274.033,154.875 C 277.687,157.652 291.819,166.833 301.634,171.936 C 311.417,176.888 326.546,183.29 331.981,184.981 C 337.175,186.582 337.929,184.92 333.068,181.991 C 327.995,178.971 311.629,171.906 302.721,167.436 C 293.661,162.907 284.874,157.532 279.983,155.388 C 275.121,153.244 270.381,152.096 274.033,154.875 L 274.033,154.875 z "
   style="fill-rule:evenodd;stroke:black;stroke-width:0.036;stroke-miterlimit:10"
   id="path71" />
	<path
   d="M 343.273,187.547 C 343.756,188.997 343.183,190.446 342.005,190.778 C 340.797,191.111 339.468,190.174 339.016,188.725 C 338.533,187.275 339.106,185.827 340.285,185.494 C 341.463,185.162 342.82,186.098 343.273,187.547 L 343.273,187.547 z "
   style="fill-rule:evenodd;stroke:black;stroke-width:0.036;stroke-miterlimit:10"
   id="path73" />
	<path
   d="M 189.876,94.271 C 191.356,96.596 199.328,105.051 204.129,109.731 C 208.87,114.2 215.513,119.756 218.231,121.266 C 220.919,122.625 221.734,120.571 220.103,118.609 C 218.412,116.586 212.01,113.687 207.994,109.912 C 203.767,106.047 198.543,98.83 195.463,96.173 C 192.353,93.515 188.428,91.945 189.876,94.271 L 189.876,94.271 z "
   style="fill-rule:evenodd;stroke:black;stroke-width:0.036;stroke-miterlimit:10"
   id="path75" />
	<path
   d="M 187.25,88.684 C 187.613,89.771 187.19,90.858 186.284,91.1 C 185.408,91.342 184.382,90.677 184.049,89.56 C 183.687,88.473 184.11,87.386 185.015,87.144 C 185.891,86.872 186.917,87.566 187.25,88.684 L 187.25,88.684 z "
   style="fill-rule:evenodd;stroke:black;stroke-width:0.036;stroke-miterlimit:10"
   id="path77" />
	<path
   d="M 183.475,82.645 C 183.807,83.762 183.385,84.849 182.509,85.091 C 181.603,85.333 180.607,84.638 180.244,83.551 C 179.882,82.434 180.334,81.347 181.21,81.105 C 182.116,80.863 183.113,81.558 183.475,82.645 L 183.475,82.645 z "
   style="fill-rule:evenodd;stroke:black;stroke-width:0.036;stroke-miterlimit:10"
   id="path79" />
	<path
   d="M 389.414,224.991 C 397.295,225.293 404.18,225.293 410.521,224.991 C 416.832,224.629 422.056,223.964 426.766,222.998 L 426.766,222.998 C 427.913,243.351 429.726,260.472 432.202,275.177 C 434.709,289.733 439.178,295.5 441.412,310.296 C 443.526,325.213 444.1,347.528 444.643,363.502 C 445.066,379.265 443.676,389.44 444.099,404.629 C 444.432,419.818 445.337,439.356 446.817,453.819 C 448.237,468.162 451.618,481.328 452.765,489.933 C 453.882,498.297 455.272,502.374 453.309,504.489 C 451.135,506.572 447.39,507.146 440.325,502.466 C 433.138,497.574 421.059,486.462 411.064,475.893 C 400.978,465.294 390.018,453.82 380.748,439.265 C 371.417,424.53 360.426,406.502 355.806,388.566 C 351.125,370.539 351.548,348.042 353.118,332.37 C 354.658,316.639 360.758,305.707 365.014,295.259 C 369.152,284.78 374.345,278.863 378.03,270.166 C 381.714,261.378 384.643,250.599 386.696,243.08 C 388.568,235.499 389.475,229.55 389.414,224.991 L 389.414,224.991 z "
   style="fill:#ffb600;fill-rule:evenodd;stroke:black;stroke-width:0.036;stroke-miterlimit:10"
   id="path81" />
	<path
   d="M 396.45,242.051 C 394.94,247.97 394.336,262.646 391.014,276.173 C 387.541,289.55 378.724,305.736 375.856,321.83 C 372.926,337.773 370.994,353.898 373.681,371.503 C 376.399,389.168 383.676,409.278 391.558,426.702 C 399.348,443.943 414.839,467.527 419.731,474.382 C 424.381,480.995 423.143,473.868 419.731,466.863 C 416.107,459.646 405.328,444.608 399.168,432.227 C 392.947,419.756 387.119,406.711 383.435,393.092 C 379.721,379.353 377.427,364.104 377.487,350.939 C 377.548,337.652 381.111,325.845 383.979,314.824 C 386.818,303.893 391.649,294.502 394.277,285.715 C 396.692,276.898 398.202,269.47 399.169,262.132 C 400.195,254.582 400.588,245.01 400.226,241.568 C 399.621,238.186 398.051,236.253 396.45,242.051 L 396.45,242.051 z "
   style="fill-rule:evenodd;stroke:black;stroke-width:0.036;stroke-miterlimit:10"
   id="path83" />
	<path
   d="M 411.064,232.54 C 410.098,239.576 411.668,261.77 410.521,280.703 C 409.193,299.546 401.644,323.823 403.485,344.931 C 405.358,365.918 417.255,385.395 421.362,406.139 C 425.378,426.824 425.499,457.111 427.31,468.344 C 428.97,479.365 431.357,479.849 431.658,472.36 C 431.81,464.661 430.783,437.213 428.94,423.201 C 427.069,409.13 424.321,402.063 420.818,389.079 C 417.134,376.034 409.495,360.483 407.803,345.929 C 406.202,331.314 409.856,312.954 411.064,302.265 C 412.122,291.545 413.36,292.784 414.326,282.215 C 415.292,271.525 416.862,247.398 416.471,239.064 C 415.836,230.667 412.092,225.625 411.064,232.54 L 411.064,232.54 z "
   style="fill-rule:evenodd;stroke:black;stroke-width:0.036;stroke-miterlimit:10"
   id="path85" />
	<path
   d="M 360.697,392.097 C 361.664,396.597 365.951,408.132 369.364,415.167 C 372.655,422.021 377.939,430.718 380.204,433.225 C 382.408,435.58 383.978,434.371 382.348,429.722 C 380.597,425.011 372.957,412.51 369.908,405.625 C 366.768,398.649 365.439,390.828 363.929,388.564 C 362.298,386.269 359.822,387.598 360.697,392.097 L 360.697,392.097 z "
   style="fill-rule:evenodd;stroke:black;stroke-width:0.036;stroke-miterlimit:10"
   id="path87" />
	<path
   d="M 361.15,380.23 C 361.633,381.68 361.059,383.128 359.882,383.461 C 358.673,383.793 357.345,382.857 356.892,381.407 C 356.409,379.928 356.983,378.478 358.16,378.176 C 359.339,377.844 360.697,378.75 361.15,380.23 L 361.15,380.23 z "
   style="fill-rule:evenodd;stroke:black;stroke-width:0.036;stroke-miterlimit:10"
   id="path89" />
	<path
   d="M 32.977,229.007 C 40.949,229.973 48.015,229.973 54.628,229.007 C 61.211,227.98 66.797,226.017 71.961,222.997 L 71.961,222.997 C 74.346,245.644 77.487,265.694 81.714,284.205 C 85.911,302.625 92.645,319.776 96.903,332.882 C 101.04,345.927 105.962,350.97 106.656,361.991 C 107.26,372.922 105.69,384.337 100.677,398.106 C 95.423,411.815 85.277,429.479 76.308,443.762 C 67.309,458.015 56.499,472.418 47.591,482.897 C 38.532,493.315 30.017,500.924 23.223,505.484 C 16.398,509.802 10.661,511.946 7.521,509.138 C 4.411,506.208 4.471,496.939 4.803,488.543 C 5.044,480.118 8.548,471.15 9.151,458.951 C 9.634,446.599 8.578,429.992 8.064,415.286 C 7.49,400.52 4.742,388.834 5.89,371.14 C 7.037,353.264 11.325,326.902 14.556,309.418 C 17.606,291.995 21.169,280.701 24.309,267.264 C 27.42,253.677 30.198,241.236 32.977,229.007 L 32.977,229.007 z "
   style="fill:#ffb600;fill-rule:evenodd;stroke:black;stroke-width:0.036;stroke-miterlimit:10"
   id="path91" />
	<path
   d="M 38.381,237.16 C 36.66,247.819 35.452,281.397 32.433,301.901 C 29.292,322.222 23.102,338.288 20.505,358.61 C 17.968,378.963 17.123,404.569 17.274,422.838 C 17.395,440.805 21.411,454.182 21.048,466.472 C 20.505,478.732 15.039,491.595 14.556,496.094 C 14.073,500.382 16.73,496.215 18.331,492.561 C 19.901,488.697 22.92,481.298 23.766,473.991 C 24.431,466.653 23.373,459.859 22.679,449.412 C 21.894,438.903 19.025,427.882 19.418,411.787 C 19.72,395.511 22.196,370.086 24.853,353.085 C 27.51,336.084 32.614,323.07 35.15,310.418 C 37.566,297.735 38.23,289.189 39.468,277.322 C 40.676,265.304 42.246,245.948 42.186,239.184 C 41.945,232.509 39.982,226.59 38.381,237.16 L 38.381,237.16 z "
   style="fill-rule:evenodd;stroke:black;stroke-width:0.036;stroke-miterlimit:10"
   id="path93" />
	<path
   d="M 56.801,237.673 C 55.11,246.278 50.913,271.553 52.483,287.859 C 54.023,304.075 62.84,320.17 66.011,334.513 C 69.121,348.765 72.775,358.338 70.903,373.134 C 68.85,387.839 59.942,404.78 54.084,422.323 C 48.105,439.897 38.049,468.584 35.694,477.522 C 33.369,486.188 36.751,481.569 40.012,474.502 C 43.273,467.164 48.648,451.462 54.627,434.854 C 60.485,418.096 71.748,391.885 74.677,375.669 C 77.455,359.424 74.344,352.206 71.416,338.527 C 68.306,324.848 59.126,307.847 56.801,294.381 C 54.506,280.822 56.922,267.959 57.888,258.235 C 58.825,248.452 62.297,240.177 62.237,236.674 C 61.995,233.234 58.402,229.067 56.801,237.673 L 56.801,237.673 z "
   style="fill-rule:evenodd;stroke:black;stroke-width:0.036;stroke-miterlimit:10"
   id="path95" />
	<path
   d="M 95.815,392.732 C 93.49,395.661 88.115,406.591 82.256,416.798 C 76.187,426.883 63.685,446.693 60.605,452.912 C 57.646,458.952 60.696,457.955 64.38,453.426 C 68.004,448.745 76.911,434.885 82.256,425.826 C 87.54,416.798 93.459,405.232 95.815,399.736 C 98.05,394.18 98.05,389.833 95.815,392.732 L 95.815,392.732 z "
   style="fill-rule:evenodd;stroke:black;stroke-width:0.036;stroke-miterlimit:10"
   id="path97" />
	<path
   d="M 101.16,384.729 C 101.613,386.208 101.039,387.659 99.861,387.96 C 98.683,388.292 97.324,387.386 96.872,385.907 C 96.389,384.457 96.962,383.008 98.17,382.676 C 99.348,382.344 100.677,383.28 101.16,384.729 L 101.16,384.729 z "
   style="fill-rule:evenodd;stroke:black;stroke-width:0.036;stroke-miterlimit:10"
   id="path99" />
	<path
   d="M 57.828,461.005 C 58.281,462.454 57.707,463.903 56.53,464.236 C 55.352,464.567 53.993,463.632 53.541,462.182 C 53.058,460.733 53.631,459.283 54.809,458.952 C 56.016,458.62 57.345,459.556 57.828,461.005 L 57.828,461.005 z "
   style="fill-rule:evenodd;stroke:black;stroke-width:0.036;stroke-miterlimit:10"
   id="path101" />
</g>
</svg>