<?xml version="1.0" encoding="UTF-8" standalone="no"?>
<!-- Created with Inkscape (http://www.inkscape.org/) -->
<svg
   xmlns:svg="http://www.w3.org/2000/svg"
   xmlns="http://www.w3.org/2000/svg"
   xmlns:xlink="http://www.w3.org/1999/xlink"
   xmlns:inkscape="http://www.inkscape.org/namespaces/inkscape"
   version="1.0"
   width="611.93396"
   height="368.06027"
   id="svg2">
  <defs
     id="defs4">
    <linearGradient
       id="linearGradient3459">
      <stop
         id="stop3461"
         style="stop-color:#000000;stop-opacity:0"
         offset="0" />
      <stop
         id="stop3465"
         style="stop-color:#000000;stop-opacity:0.37068966"
         offset="1" />
    </linearGradient>
    <linearGradient
       id="linearGradient4674">
      <stop
         id="stop4676"
         style="stop-color:#000000;stop-opacity:0"
         offset="0" />
      <stop
         id="stop3400"
         style="stop-color:#000000;stop-opacity:0"
         offset="0.5" />
      <stop
         id="stop4678"
         style="stop-color:#000000;stop-opacity:0.37068966"
         offset="1" />
    </linearGradient>
    <filter
       height="1.2491238"
       y="-0.12456191"
       width="1.2315209"
       x="-0.11576043"
       id="filter3485">
      <feGaussianBlur
         id="feGaussianBlur3487"
         stdDeviation="6.0922004"
         inkscape:collect="always" />
    </filter>
    <radialGradient
       cx="515.86072"
       cy="519.23804"
       r="76.268501"
       fx="515.86072"
       fy="519.23804"
       id="radialGradient2527"
       xlink:href="#linearGradient4674"
       gradientUnits="userSpaceOnUse"
       gradientTransform="matrix(0.7799418,3.9457985,-1.9193972,0.3793954,1155.6567,-1723.0337)" />
    <linearGradient
       x1="500.98517"
       y1="504.49615"
       x2="499.79654"
       y2="388.13977"
       id="linearGradient2529"
       xlink:href="#linearGradient3459"
       gradientUnits="userSpaceOnUse"
       gradientTransform="translate(54,0)" />
    <radialGradient
       cx="453.75168"
       cy="542.7088"
       r="77.982285"
       fx="453.75168"
       fy="542.7088"
       id="radialGradient2531"
       xlink:href="#linearGradient4674"
       gradientUnits="userSpaceOnUse"
       gradientTransform="matrix(2.1030877,-0.7570669,0.3518971,0.9775496,-636.7502,356.48724)" />
    <radialGradient
       cx="515.86072"
       cy="519.23804"
       r="76.268501"
       fx="515.86072"
       fy="519.23804"
       id="radialGradient2533"
       xlink:href="#linearGradient4674"
       gradientUnits="userSpaceOnUse"
       gradientTransform="matrix(0.7799418,3.9457985,-1.9193972,0.3793954,1155.6567,-1723.0337)" />
    <linearGradient
       x1="500.98517"
       y1="504.49615"
       x2="499.79654"
       y2="388.13977"
       id="linearGradient2535"
       xlink:href="#linearGradient3459"
       gradientUnits="userSpaceOnUse"
       gradientTransform="translate(54,0)" />
    <radialGradient
       cx="453.75168"
       cy="542.7088"
       r="77.982285"
       fx="453.75168"
       fy="542.7088"
       id="radialGradient2537"
       xlink:href="#linearGradient4674"
       gradientUnits="userSpaceOnUse"
       gradientTransform="matrix(2.1030877,-0.7570669,0.3518971,0.9775496,-636.7502,356.48724)" />
  </defs>
  <g
     transform="translate(-85.515581,-358.09935)"
     id="layer1"
     style="display:inline" />
  <g
     transform="translate(-85.515581,-358.09935)"
     id="layer3"
     style="display:inline">
    <g
       id="g2466">
      <g
         transform="translate(54,0)"
         id="g4765"
         style="fill:none;fill-opacity:1;display:inline">
        <path
           d="M 503.03125,358.1875 C 499.61097,358.4583 496.84611,359.32885 494.875,360.78125 C 492.93496,362.21075 491.27062,364.54896 489.3125,367.65625 C 487.35438,370.76354 485.18419,374.65295 482.65625,379.1875 C 477.60037,388.2566 471.13617,399.83451 462.46875,412.25 C 439.94202,443.49376 417.27515,462.92329 376.51562,485.98438 C 425.87387,466.8666 450.749,434.32845 465.75,414.53125 C 474.55181,401.92326 481.10044,390.22524 486.15625,381.15625 C 488.68416,376.62176 490.82423,372.73802 492.6875,369.78125 C 494.55077,366.82448 496.19981,364.80507 497.25,364.03125 C 499.28823,362.5294 505.70706,361.35857 514.40625,363.125 C 523.10544,364.89143 534.15169,369.28837 546.0625,377.71875 C 569.88411,394.5795 597.18364,427.54574 616.28125,487.65625 C 635.39678,547.82319 639.95504,606.01998 639.40625,649.53125 C 639.13186,671.28689 637.5704,689.36874 635.9375,702.1875 C 635.12105,708.59688 634.29864,713.69172 633.59375,717.25 C 633.24131,719.02914 632.91445,720.41525 632.65625,721.375 C 632.5822,721.65025 632.52998,721.80228 632.46875,722 C 632.17459,721.89424 631.86185,721.77039 631.3125,721.40625 C 629.8594,720.44305 627.87485,718.61071 625.96875,716.21875 C 622.15656,711.43482 618.59961,704.44737 618.3125,697.84375 C 618.16937,694.55201 618.52292,682.8645 618.375,666.59375 C 618.22708,650.323 617.54887,629.29434 615.21875,606.625 C 613.69862,590.91745 605.50111,517.53508 569.71875,475.40625 C 598.79114,514.48467 606.91064,574.12408 611.25,607.03125 C 613.5626,629.53008 614.22783,650.43605 614.375,666.625 C 614.52217,682.81395 614.14085,694.0835 614.3125,698.03125 C 614.65491,705.90662 618.62955,713.39909 622.84375,718.6875 C 624.95085,721.3317 627.10415,723.43118 629.09375,724.75 C 630.08855,725.40941 631.03091,725.88896 632.09375,726.09375 C 633.15659,726.29854 634.65957,726.05052 635.5,725 C 635.93167,724.46041 635.95417,724.20204 636.09375,723.8125 C 636.23333,723.42296 636.38386,722.98536 636.53125,722.4375 C 636.82603,721.34177 637.13562,719.87063 637.5,718.03125 C 638.22875,714.35249 639.08004,709.17347 639.90625,702.6875 C 641.55866,689.71555 643.12982,671.47992 643.40625,649.5625 C 643.95912,605.72766 639.37902,547.1387 620.09375,486.4375 C 600.79055,425.67987 573.02655,391.91692 548.375,374.46875 C 536.04923,365.74466 524.50837,361.11142 515.1875,359.21875 C 510.52707,358.27242 506.45153,357.9167 503.03125,358.1875 z"
           id="path2385"
           style="fill:#000000;fill-opacity:1;fill-rule:evenodd;stroke:none;stroke-width:4;stroke-linecap:round;stroke-linejoin:round;stroke-miterlimit:4;stroke-dasharray:none;stroke-opacity:1" />
        <path
           d="M 570.50956,523.0916 C 584.89839,549.08851 589.1673,581.92226 592.4375,604.15625 C 593.92464,616.0142 594.68832,626.55506 595.21875,634.875 C 595.74918,643.19494 595.98885,649.12168 596.71875,652.40625 C 598.12752,658.7457 602.72039,664.87654 606.96875,668.875 C 609.09293,670.87423 611.04249,672.33481 612.96875,673 C 613.93188,673.33259 615.12799,673.59403 616.3125,672.8125 C 617.49701,672.03097 617.77107,670.55438 617.65625,669.40625 C 617.5624,668.4751 616.83544,667.73351 615.90634,667.62111 C 614.97725,667.50872 614.09443,668.05559 613.78125,668.9375 C 612.85221,668.48683 611.35635,667.51002 609.71875,665.96875 C 605.94071,662.41295 601.73432,656.55443 600.625,651.5625 C 600.09586,649.18139 599.71938,642.9677 599.1875,634.625 C 598.65562,626.2823 597.90934,615.64143 596.40625,603.65625 C 595.6264,597.33901 589.65983,544.53872 570.50956,523.0916 z"
           id="path4499"
           style="fill:#000000;fill-opacity:1;fill-rule:evenodd;stroke:none;stroke-width:4;stroke-linecap:round;stroke-linejoin:round;stroke-miterlimit:4;stroke-dasharray:none;stroke-opacity:1" />
        <path
           d="M 550.33253,526.95658 C 559.151,541.92185 564.08452,558.50913 568.46875,574.65625 C 571.66237,587.50861 572.74817,597.39798 574.0625,603.3125 C 575.49254,609.74766 580.597,616.00845 585.5,619.8125 C 587.9515,621.71452 590.27141,623.08606 592.71875,623.21875 C 593.94242,623.28509 595.35675,622.89873 596.28125,621.875 C 597.20575,620.85127 597.53125,619.48035 597.53125,618 C 597.54145,617.27873 597.1625,616.60784 596.5395,616.24422 C 595.91651,615.88061 595.14599,615.88061 594.523,616.24422 C 593.9,616.60784 593.52105,617.27873 593.53125,618 C 593.53125,618.88035 593.32736,619.17104 593.3125,619.1875 C 593.29764,619.20396 593.34665,619.24093 592.9375,619.21875 C 592.1192,619.17438 590.05003,618.29528 587.9375,616.65625 C 583.71243,613.37818 579.0568,607.33373 577.96875,602.4375 C 576.76501,597.02063 575.63398,586.8029 572.375,573.6875 C 570.74171,567.73757 563.8641,542.51571 550.33253,526.95658 z"
           id="path4501"
           style="fill:#000000;fill-opacity:1;fill-rule:evenodd;stroke:none;stroke-width:4;stroke-linecap:round;stroke-linejoin:round;stroke-miterlimit:4;stroke-dasharray:none;stroke-opacity:1" />
        <path
           d="M 507.28125,422.0625 C 502.58473,474.94786 520.56541,510.99069 532.6875,535.03125 C 537.3914,543.96867 542.33533,554.00455 546.375,562.59375 C 550.41467,571.18295 553.57792,578.42126 554.59375,581.46875 C 556.99585,588.67505 562.11652,592.93508 566.71875,594.25 C 569.01987,594.90746 571.34388,594.92192 573.15625,593.625 C 574.96862,592.32808 575.56285,589.7277 574.78125,587.1875 C 574.45333,586.12608 573.32705,585.53146 572.26562,585.85938 C 571.2042,586.18729 570.60958,587.31358 570.9375,588.375 C 571.41494,589.9267 571.14444,590.13746 570.8125,590.375 C 570.48056,590.61254 569.3672,590.85045 567.8125,590.40625 C 564.70309,589.51785 560.4108,586.23241 558.40625,580.21875 C 557.21875,576.65627 554.06542,569.51895 550,560.875 C 545.93458,552.23105 540.95768,542.19146 536.21875,533.1875 C 533.68173,527.41311 509.75096,487.30001 507.28125,422.0625 L 507.28125,422.0625 z"
           id="path4503"
           style="fill:#000000;fill-opacity:1;fill-rule:evenodd;stroke:none;stroke-width:4;stroke-linecap:round;stroke-linejoin:round;stroke-miterlimit:4;stroke-dasharray:none;stroke-opacity:1" />
      </g>
      <g
         transform="translate(54,0)"
         id="g4735"
         style="fill:none;fill-opacity:1;display:inline">
        <path
           d="M 493.78931,489.35539 C 497.94331,512.32306 504.2053,531.26456 514.34375,549.59375 C 520.44721,559.41882 526.48481,565.01942 531.59375,567.71875 C 534.14822,569.06841 536.47577,569.67974 538.53125,569.65625 C 540.58673,569.63276 542.50359,568.8728 543.5625,567.28125 C 544.68901,565.58807 544.66534,563.66908 544.5,561.4375 C 544.33466,559.20592 543.85307,556.66305 543.21875,553.96875 C 541.95011,548.58015 540.04933,542.64939 538.6875,538.40625 C 538.35095,537.35346 537.22467,536.77283 536.17188,537.10938 C 535.11908,537.44592 534.53845,538.57221 534.875,539.625 C 536.23683,543.86814 538.13029,549.72081 539.34375,554.875 C 539.95048,557.4521 540.36092,559.87283 540.5,561.75 C 540.63908,563.62717 540.30862,564.92742 540.21875,565.0625 C 540.06127,565.2992 539.65588,565.64304 538.5,565.65625 C 537.34412,565.66946 535.5827,565.27317 533.46875,564.15625 C 529.24084,561.92242 523.58419,556.86037 517.75,547.46875 C 508.26179,528.72761 502.61537,515.77788 493.78931,489.35539 z"
           id="path4527"
           style="fill:#000000;fill-opacity:1;fill-rule:evenodd;stroke:none;stroke-width:4;stroke-linecap:round;stroke-linejoin:round;stroke-miterlimit:4;stroke-dasharray:none;stroke-opacity:1" />
        <path
           d="M 483.58365,515.28334 C 487.9646,534.75617 496.52697,551.55876 504.65625,567.21875 C 509.62609,575.53664 514.62004,580.32782 518.90625,582.6875 C 521.04935,583.86734 522.99459,584.46216 524.78125,584.46875 C 526.56791,584.47534 528.30574,583.80109 529.28125,582.375 C 530.32554,580.84835 530.29844,579.20659 530.1875,577.3125 C 530.07656,575.41841 529.71401,573.26749 529.21875,571 C 528.22823,566.46502 526.73452,561.49818 525.65625,557.9375 C 525.33696,556.87608 524.21767,556.27446 523.15625,556.59375 C 522.09483,556.91304 521.49321,558.03233 521.8125,559.09375 C 522.89077,562.65442 524.37314,567.543 525.3125,571.84375 C 525.78218,573.99413 526.12849,575.99023 526.21875,577.53125 C 526.30901,579.07227 525.98962,580.14018 526,580.125 C 525.9416,580.21038 525.69509,580.47201 524.8125,580.46875 C 523.92991,580.46549 522.51798,580.12642 520.8125,579.1875 C 517.40154,577.30966 512.80245,573.03707 508.09375,565.15625 C 504.26762,559.88388 491.27631,534.95195 483.58365,515.28334 z"
           id="path4529"
           style="fill:#000000;fill-opacity:1;fill-rule:evenodd;stroke:none;stroke-width:4;stroke-linecap:round;stroke-linejoin:round;stroke-miterlimit:4;stroke-dasharray:none;stroke-opacity:1" />
        <path
           d="M 478.72924,534.76236 C 481.87828,558.17885 487.59622,570.87987 491.96875,579.5625 C 496.06841,587.29725 500.34356,591.84434 504.125,594.1875 C 506.01572,595.35908 507.78796,596.00581 509.4375,596.09375 C 511.08704,596.18169 512.73343,595.64901 513.71875,594.34375 C 514.7774,592.94137 514.82879,591.41498 514.8125,589.6875 C 514.79621,587.96002 514.56381,586.00746 514.21875,583.9375 C 513.52863,579.79758 512.37225,575.25518 511.5625,572 C 511.42286,571.2722 510.89228,570.68126 510.18367,570.46432 C 509.47507,570.24738 508.70459,570.43999 508.18144,570.96488 C 507.65829,571.48976 507.46822,572.26087 507.6875,572.96875 C 508.49726,576.22393 509.59911,580.68917 510.25,584.59375 C 510.57544,586.54604 510.79953,588.34313 510.8125,589.71875 C 510.82547,591.09437 510.46566,592.02439 510.53125,591.9375 C 510.52352,591.94774 510.39846,592.13332 509.65625,592.09375 C 508.91404,592.05418 507.68397,591.72042 506.21875,590.8125 C 503.28831,588.99666 499.36195,584.97378 495.5,577.6875 C 493.44282,574.8376 486.95691,562.39966 478.72924,534.76236 z"
           id="path4531"
           style="fill:#000000;fill-opacity:1;fill-rule:evenodd;stroke:none;stroke-width:4;stroke-linecap:round;stroke-linejoin:round;stroke-miterlimit:4;stroke-dasharray:none;stroke-opacity:1" />
        <path
           d="M 472.05805,550.29492 C 472.80092,557.77099 473.9812,564.15636 475.36893,569.64516 C 477.86453,579.51576 481.03105,586.4869 483.53125,591.6875 C 486.81468,598.42823 490.31169,602.48124 493.5,604.625 C 495.09416,605.69688 496.59986,606.31192 498.0625,606.4375 C 499.52514,606.56308 501.06565,606.12312 502,604.9375 C 503.00968,603.65624 503.06789,602.34148 503.09375,600.84375 C 503.11961,599.34602 502.96274,597.62719 502.71875,595.84375 C 502.23077,592.27686 501.38768,588.36217 500.78125,585.5625 C 500.53963,584.47519 499.46231,583.78963 498.375,584.03125 C 497.28769,584.27287 496.60213,585.35019 496.84375,586.4375 C 497.45018,589.23718 498.29383,593.07187 498.75,596.40625 C 498.97808,598.07344 499.11363,599.59857 499.09375,600.75 C 499.07387,601.90143 498.72931,602.65362 498.875,602.46875 C 498.94533,602.3795 498.94985,602.48417 498.40625,602.4375 C 497.86265,602.39083 496.89652,602.10441 495.71875,601.3125 C 493.36321,599.72868 490.18903,596.22783 487.125,589.9375 C 484.76614,586.76913 477.52099,570.80902 472.05805,550.29492 z"
           id="path4533"
           style="fill:#000000;fill-opacity:1;fill-rule:evenodd;stroke:none;stroke-width:4;stroke-linecap:round;stroke-linejoin:round;stroke-miterlimit:4;stroke-dasharray:none;stroke-opacity:1" />
        <path
           d="M 439.15625,598.65625 C 440.95503,606.78556 443.69136,612.06717 446.53125,615.1875 C 447.9512,616.74767 449.38098,617.77238 450.875,618.28125 C 452.36902,618.79012 454.09551,618.73467 455.34375,617.75 C 456.68842,616.68926 457.06191,615.28052 457.46875,613.6875 C 457.87559,612.09448 458.1499,610.2357 458.34375,608.25 C 458.73145,604.27861 458.81004,599.84359 458.875,596.65625 C 458.90089,595.55168 458.02644,594.63526 456.92188,594.60937 C 455.81731,594.58349 454.90089,595.45793 454.875,596.5625 C 454.81004,599.74984 454.70876,604.13608 454.34375,607.875 C 454.16125,609.74446 453.91504,611.4607 453.59375,612.71875 C 453.27246,613.9768 452.7097,614.69949 452.84375,614.59375 C 452.88135,614.56409 452.80802,614.71135 452.1875,614.5 C 451.56698,614.28865 450.55373,613.66087 449.46875,612.46875 C 447.29879,610.08451 444.75401,605.42575 443.0625,597.78125 C 441.54565,590.61582 439.3391,568.36397 440.1434,552.22569 C 435.17651,566.49231 437.82963,589.39342 439.15625,598.65625 z"
           id="path4535"
           style="fill:#000000;fill-opacity:1;fill-rule:evenodd;stroke:none;stroke-width:4;stroke-linecap:round;stroke-linejoin:round;stroke-miterlimit:4;stroke-dasharray:none;stroke-opacity:1" />
        <path
           d="M 424.3125,542.5625 C 418.79666,562.59838 420.88165,585.34014 421.34375,593.65625 C 422.33738,602.36535 424.60334,608.1778 427.21875,611.75 C 428.52646,613.5361 429.92196,614.77437 431.40625,615.46875 C 432.89054,616.16313 434.61563,616.27341 436,615.40625 C 437.48907,614.47351 438.05864,613.08232 438.65625,611.46875 C 439.25386,609.85518 439.73654,607.96066 440.15625,605.90625 C 440.99567,601.79743 441.5833,597.1433 442,593.8125 C 442.09844,593.09904 441.80571,592.38774 441.2336,591.95024 C 440.66149,591.51274 439.89835,591.41659 439.2356,591.69852 C 438.57285,591.98045 438.11285,592.59692 438.03125,593.3125 C 437.61455,596.64329 437.01132,601.21426 436.21875,605.09375 C 435.82246,607.0335 435.38334,608.80559 434.90625,610.09375 C 434.42916,611.38191 433.7587,612.1041 433.875,612.03125 C 433.8866,612.02398 433.74595,612.14886 433.09375,611.84375 C 432.44155,611.53864 431.45299,610.76198 430.4375,609.375 C 428.40653,606.60104 426.24995,601.40415 425.3125,593.1875 C 424.02123,584.1938 423.55564,556.78303 424.3125,542.5625 z"
           id="path4537"
           style="fill:#000000;fill-opacity:1;fill-rule:evenodd;stroke:none;stroke-width:4;stroke-linecap:round;stroke-linejoin:round;stroke-miterlimit:4;stroke-dasharray:none;stroke-opacity:1" />
        <path
           d="M 410.37049,538.56493 C 402.15861,554.73458 402.6325,576.62684 402.375,584.0625 C 402.45691,593.17659 404.18338,599.43054 406.5,603.40625 C 407.65831,605.39411 408.96052,606.84251 410.40625,607.71875 C 411.85198,608.59499 413.6207,608.91101 415.125,608.1875 C 416.74087,607.41032 417.48635,606.03289 418.28125,604.4375 C 419.07615,602.84211 419.77751,600.91874 420.4375,598.84375 C 421.75748,594.69377 422.85944,589.95997 423.65625,586.5625 C 423.9065,585.48382 423.23493,584.4065 422.15625,584.15625 C 421.07757,583.906 420.00025,584.57757 419.75,585.65625 C 418.95319,589.05372 417.87354,593.69963 416.625,597.625 C 416.00073,599.58768 415.32649,601.37378 414.6875,602.65625 C 414.04851,603.93872 413.27992,604.60823 413.375,604.5625 C 413.35849,604.57044 413.16591,604.68485 412.5,604.28125 C 411.83409,603.87765 410.87884,602.96812 409.96875,601.40625 C 408.14858,598.28252 406.45243,592.64768 406.375,584.03125 C 405.98007,575.21255 406.72681,555.48287 410.37049,538.56493 z"
           id="path4539"
           style="fill:#000000;fill-opacity:1;fill-rule:evenodd;stroke:none;stroke-width:4;stroke-linecap:round;stroke-linejoin:round;stroke-miterlimit:4;stroke-dasharray:none;stroke-opacity:1" />
        <path
           d="M 463.45607,558.09596 C 462.92666,574.80086 466.94895,584.61987 471.09375,597.15625 C 473.69394,603.77266 476.60806,607.86553 479.375,610.125 C 480.75847,611.25473 482.09561,611.93763 483.46875,612.15625 C 484.84189,612.37487 486.38779,611.99684 487.3125,610.875 C 488.31448,609.65942 488.40686,608.42225 488.5,607 C 488.59314,605.57775 488.50785,603.96253 488.375,602.25 C 488.10929,598.82494 487.56348,595.04745 487.15625,592.34375 C 486.99229,591.24781 485.97094,590.49229 484.875,590.65625 C 483.77906,590.82021 483.02354,591.84156 483.1875,592.9375 C 483.59473,595.6412 484.15745,599.35536 484.40625,602.5625 C 484.53065,604.16607 484.57201,605.65045 484.5,606.75 C 484.42799,607.84955 484.06721,608.53426 484.25,608.3125 C 484.35551,608.18449 484.49504,608.28264 484.09375,608.21875 C 483.69246,608.15486 482.89803,607.80988 481.90625,607 C 479.92269,605.38023 477.23957,601.89466 474.8125,595.71875 C 472.28191,591.27599 467.35578,576.97203 463.45607,558.09596 z"
           id="path4543"
           style="fill:#000000;fill-opacity:1;fill-rule:evenodd;stroke:none;stroke-width:4;stroke-linecap:round;stroke-linejoin:round;stroke-miterlimit:4;stroke-dasharray:none;stroke-opacity:1" />
        <path
           d="M 452.9375,558.78125 C 450.50525,574.63764 455.88834,594.36593 457.3125,600.53125 C 459.293,607.3588 461.82765,611.68308 464.375,614.1875 C 465.64868,615.43971 466.93404,616.24974 468.28125,616.59375 C 469.62846,616.93776 471.19475,616.7195 472.21875,615.6875 C 473.3283,614.56925 473.49516,613.34515 473.71875,611.9375 C 473.94234,610.52985 474.03725,608.90499 474.0625,607.1875 C 474.113,603.75252 473.90679,599.94844 473.75,597.21875 C 473.68959,596.11418 472.74519,595.26772 471.64062,595.32812 C 470.53606,595.38853 469.68959,596.33293 469.75,597.4375 C 469.90679,600.16719 470.10978,603.90857 470.0625,607.125 C 470.03886,608.73322 469.95411,610.22424 469.78125,611.3125 C 469.60839,612.40076 469.17258,613.079 469.375,612.875 C 469.49184,612.75724 469.64371,612.81929 469.25,612.71875 C 468.85629,612.61821 468.10057,612.24143 467.1875,611.34375 C 465.36136,609.54838 463.0049,605.8105 461.15625,599.4375 C 459.26092,594.93237 455.10035,575.80203 452.9375,558.78125 L 452.9375,558.78125 z"
           id="path4545"
           style="fill:#000000;fill-opacity:1;fill-rule:evenodd;stroke:none;stroke-width:4;stroke-linecap:round;stroke-linejoin:round;stroke-miterlimit:4;stroke-dasharray:none;stroke-opacity:1" />
        <path
           d="M 388.75,542.28125 C 384.93375,553.66453 385.30026,566.71379 384.8125,573 C 384.08345,582.08526 385.26492,588.459 387.21875,592.625 C 388.19566,594.708 389.35669,596.24865 390.71875,597.25 C 392.08081,598.25135 393.78106,598.74307 395.34375,598.15625 C 397.02235,597.52587 397.87885,596.20587 398.8125,594.6875 C 399.74615,593.16913 400.62682,591.32056 401.46875,589.3125 C 403.15261,585.29637 404.68542,580.68812 405.78125,577.375 C 406.06431,576.68611 405.94117,575.897 405.46169,575.3271 C 404.98221,574.75719 404.2258,574.50089 403.49864,574.66193 C 402.77148,574.82297 402.19402,575.37469 402,576.09375 C 400.90417,579.40687 399.37397,583.98249 397.78125,587.78125 C 396.98489,589.68063 396.15677,591.37319 395.40625,592.59375 C 394.65573,593.81431 393.83873,594.44334 393.9375,594.40625 C 393.92034,594.41269 393.72113,594.49248 393.09375,594.03125 C 392.46637,593.57002 391.58006,592.57412 390.8125,590.9375 C 389.27737,587.66426 388.08968,580.34119 387.81634,571.81826 C 387.65042,566.64505 388.3256,554.76365 388.75,542.28125 z"
           id="path4547"
           style="fill:#000000;fill-opacity:1;fill-rule:evenodd;stroke:none;stroke-width:4;stroke-linecap:round;stroke-linejoin:round;stroke-miterlimit:4;stroke-dasharray:none;stroke-opacity:1" />
      </g>
      <path
         d="M 669.67208,669.61307 C 669.04255,663.31785 669.67209,683.46256 670.30161,697.94155 C 670.93113,712.42054 685.41012,726.89954 687.92821,723.75193 C 690.4463,720.60432 710.59099,607.91996 672.19017,487.05182 C 633.78936,366.18368 562.0239,353.59325 550.06299,362.40655 C 538.10208,371.21985 564.22721,371.53462 561.39437,424.09967 C 558.56153,476.66472 579.98005,517.98944 588.4638,534.10856 C 597.90663,552.04994 608.29374,574.24056 610.49706,580.85054 C 614.90371,594.0705 629.3827,595.95905 626.86461,587.77527 C 624.34652,579.59149 627.49414,591.5524 630.01223,602.88379 C 632.53032,614.21518 649.5274,627.43513 649.5274,617.99231 C 649.5274,608.54949 650.15691,640.6551 652.675,651.98648 C 655.19309,663.31786 670.30161,675.90829 669.67208,669.61307 z"
         id="path3368"
         style="fill:url(#radialGradient2533);fill-opacity:1;fill-rule:evenodd;stroke:none;stroke-width:4;stroke-linecap:round;stroke-linejoin:round;marker-mid:none;stroke-miterlimit:4;stroke-dasharray:none;stroke-opacity:1" />
      <path
         d="M 436.52384,514.92111 C 426.41846,508.63136 472.49788,488.56362 502.93836,458.89369 C 533.53574,429.07084 549.52295,395.94153 555.50341,397.8301 C 561.48386,399.71866 558.33626,422.38143 558.33626,442.21137 C 558.33627,461.78989 562.42815,479.03838 561.1691,485.96312 C 559.91006,492.88785 530.32255,487.85168 507.65977,492.25833 C 484.997,496.66499 440.5965,517.45601 436.52384,514.92111 z"
         id="path3443"
         style="fill:url(#linearGradient2535);fill-opacity:1;fill-rule:evenodd;stroke:none;stroke-width:1px;stroke-linecap:butt;stroke-linejoin:miter;stroke-opacity:1;filter:url(#filter3485)" />
      <path
         d="M 590.7865,539.02554 C 593.51015,547.5118 598.32891,562.52597 595.89615,566.18249 C 593.46339,569.839 581.97489,567.75277 570.03724,548.53608 C 558.0996,529.31939 549.46725,490.52363 549.46725,490.52363 M 577.73245,558.51139 C 579.88896,565.63276 583.70435,578.23209 581.63653,581.25502 C 579.56872,584.27795 570.04755,582.39081 560.36901,566.1921 C 550.69048,549.99338 539.31299,516.36266 539.31299,516.36266 M 563.63321,572.47699 C 565.25272,578.98735 568.11803,590.50569 566.13192,593.13667 C 564.1458,595.76765 555.6959,593.64467 547.73429,578.62364 C 539.77269,563.6026 531.05503,532.80432 531.05503,532.80432 M 552.81197,586.00009 C 554.02485,591.59941 556.1707,601.50588 554.44271,603.69865 C 552.71469,605.89142 545.66473,603.85541 539.31727,590.82435 C 532.96983,577.79328 526.34484,551.27685 526.34484,551.27685 M 510.87114,596.6053 C 510.74123,602.97997 510.51139,614.25825 508.09014,616.16824 C 505.66887,618.07823 498.60495,614.00101 495.11466,598.2272 C 491.62439,582.45339 491.29143,552.03052 491.29143,552.03052 M 494.00266,593.5546 C 493.16925,600.21622 491.69473,612.00216 488.94919,613.72194 C 486.20364,615.44171 479.24919,610.35239 477.31811,593.42664 C 475.38704,576.5009 478.36616,544.59812 478.36616,544.59812 M 475.70757,586.09927 C 474.11397,592.89419 471.29452,604.91597 468.25293,606.37887 C 465.21131,607.84174 458.53821,601.77669 458.37887,584.04617 C 458.21956,566.31564 462.91072,536.80555 462.91072,536.80555 M 539.16533,592.63807 C 539.97981,598.04546 541.42079,607.61236 539.78242,609.59999 C 538.14402,611.58764 531.97585,609.23151 526.94859,596.43919 C 521.92135,583.64684 517.28132,557.98735 517.28132,557.98735 M 525.74642,597.32275 C 526.06001,602.78214 526.6148,612.44103 524.80053,614.26952 C 522.98623,616.09802 517.06096,613.18446 513.23181,599.98391 C 509.40268,586.78334 507.1428,560.8058 507.1428,560.8058 M 457.8847,576.73437 C 455.69305,583.36062 451.81553,595.08399 448.65588,596.27056 C 445.4962,597.4571 439.38899,590.82257 440.80728,573.14814 C 442.22561,555.47372 442.87061,544.30488 442.87061,544.30488"
         id="path3404"
         style="fill:url(#radialGradient2537);fill-opacity:1;fill-rule:evenodd;stroke:none;stroke-width:4;stroke-linecap:round;stroke-linejoin:round;stroke-miterlimit:4;stroke-dasharray:none;stroke-opacity:1;display:inline" />
    </g>
    <g
       transform="matrix(-1,0,0,1,782.9651,0)"
       id="g2487">
      <g
         transform="translate(54,0)"
         id="g2489"
         style="fill:none;fill-opacity:1;display:inline">
        <path
           d="M 503.03125,358.1875 C 499.61097,358.4583 496.84611,359.32885 494.875,360.78125 C 492.93496,362.21075 491.27062,364.54896 489.3125,367.65625 C 487.35438,370.76354 485.18419,374.65295 482.65625,379.1875 C 477.60037,388.2566 471.13617,399.83451 462.46875,412.25 C 439.94202,443.49376 417.27515,462.92329 376.51562,485.98438 C 425.87387,466.8666 450.749,434.32845 465.75,414.53125 C 474.55181,401.92326 481.10044,390.22524 486.15625,381.15625 C 488.68416,376.62176 490.82423,372.73802 492.6875,369.78125 C 494.55077,366.82448 496.19981,364.80507 497.25,364.03125 C 499.28823,362.5294 505.70706,361.35857 514.40625,363.125 C 523.10544,364.89143 534.15169,369.28837 546.0625,377.71875 C 569.88411,394.5795 597.18364,427.54574 616.28125,487.65625 C 635.39678,547.82319 639.95504,606.01998 639.40625,649.53125 C 639.13186,671.28689 637.5704,689.36874 635.9375,702.1875 C 635.12105,708.59688 634.29864,713.69172 633.59375,717.25 C 633.24131,719.02914 632.91445,720.41525 632.65625,721.375 C 632.5822,721.65025 632.52998,721.80228 632.46875,722 C 632.17459,721.89424 631.86185,721.77039 631.3125,721.40625 C 629.8594,720.44305 627.87485,718.61071 625.96875,716.21875 C 622.15656,711.43482 618.59961,704.44737 618.3125,697.84375 C 618.16937,694.55201 618.52292,682.8645 618.375,666.59375 C 618.22708,650.323 617.54887,629.29434 615.21875,606.625 C 613.69862,590.91745 605.50111,517.53508 569.71875,475.40625 C 598.79114,514.48467 606.91064,574.12408 611.25,607.03125 C 613.5626,629.53008 614.22783,650.43605 614.375,666.625 C 614.52217,682.81395 614.14085,694.0835 614.3125,698.03125 C 614.65491,705.90662 618.62955,713.39909 622.84375,718.6875 C 624.95085,721.3317 627.10415,723.43118 629.09375,724.75 C 630.08855,725.40941 631.03091,725.88896 632.09375,726.09375 C 633.15659,726.29854 634.65957,726.05052 635.5,725 C 635.93167,724.46041 635.95417,724.20204 636.09375,723.8125 C 636.23333,723.42296 636.38386,722.98536 636.53125,722.4375 C 636.82603,721.34177 637.13562,719.87063 637.5,718.03125 C 638.22875,714.35249 639.08004,709.17347 639.90625,702.6875 C 641.55866,689.71555 643.12982,671.47992 643.40625,649.5625 C 643.95912,605.72766 639.37902,547.1387 620.09375,486.4375 C 600.79055,425.67987 573.02655,391.91692 548.375,374.46875 C 536.04923,365.74466 524.50837,361.11142 515.1875,359.21875 C 510.52707,358.27242 506.45153,357.9167 503.03125,358.1875 z"
           id="path2491"
           style="fill:#000000;fill-opacity:1;fill-rule:evenodd;stroke:none;stroke-width:4;stroke-linecap:round;stroke-linejoin:round;stroke-miterlimit:4;stroke-dasharray:none;stroke-opacity:1" />
        <path
           d="M 570.50956,523.0916 C 584.89839,549.08851 589.1673,581.92226 592.4375,604.15625 C 593.92464,616.0142 594.68832,626.55506 595.21875,634.875 C 595.74918,643.19494 595.98885,649.12168 596.71875,652.40625 C 598.12752,658.7457 602.72039,664.87654 606.96875,668.875 C 609.09293,670.87423 611.04249,672.33481 612.96875,673 C 613.93188,673.33259 615.12799,673.59403 616.3125,672.8125 C 617.49701,672.03097 617.77107,670.55438 617.65625,669.40625 C 617.5624,668.4751 616.83544,667.73351 615.90634,667.62111 C 614.97725,667.50872 614.09443,668.05559 613.78125,668.9375 C 612.85221,668.48683 611.35635,667.51002 609.71875,665.96875 C 605.94071,662.41295 601.73432,656.55443 600.625,651.5625 C 600.09586,649.18139 599.71938,642.9677 599.1875,634.625 C 598.65562,626.2823 597.90934,615.64143 596.40625,603.65625 C 595.6264,597.33901 589.65983,544.53872 570.50956,523.0916 z"
           id="path2493"
           style="fill:#000000;fill-opacity:1;fill-rule:evenodd;stroke:none;stroke-width:4;stroke-linecap:round;stroke-linejoin:round;stroke-miterlimit:4;stroke-dasharray:none;stroke-opacity:1" />
        <path
           d="M 550.33253,526.95658 C 559.151,541.92185 564.08452,558.50913 568.46875,574.65625 C 571.66237,587.50861 572.74817,597.39798 574.0625,603.3125 C 575.49254,609.74766 580.597,616.00845 585.5,619.8125 C 587.9515,621.71452 590.27141,623.08606 592.71875,623.21875 C 593.94242,623.28509 595.35675,622.89873 596.28125,621.875 C 597.20575,620.85127 597.53125,619.48035 597.53125,618 C 597.54145,617.27873 597.1625,616.60784 596.5395,616.24422 C 595.91651,615.88061 595.14599,615.88061 594.523,616.24422 C 593.9,616.60784 593.52105,617.27873 593.53125,618 C 593.53125,618.88035 593.32736,619.17104 593.3125,619.1875 C 593.29764,619.20396 593.34665,619.24093 592.9375,619.21875 C 592.1192,619.17438 590.05003,618.29528 587.9375,616.65625 C 583.71243,613.37818 579.0568,607.33373 577.96875,602.4375 C 576.76501,597.02063 575.63398,586.8029 572.375,573.6875 C 570.74171,567.73757 563.8641,542.51571 550.33253,526.95658 z"
           id="path2495"
           style="fill:#000000;fill-opacity:1;fill-rule:evenodd;stroke:none;stroke-width:4;stroke-linecap:round;stroke-linejoin:round;stroke-miterlimit:4;stroke-dasharray:none;stroke-opacity:1" />
        <path
           d="M 507.28125,422.0625 C 502.58473,474.94786 520.56541,510.99069 532.6875,535.03125 C 537.3914,543.96867 542.33533,554.00455 546.375,562.59375 C 550.41467,571.18295 553.57792,578.42126 554.59375,581.46875 C 556.99585,588.67505 562.11652,592.93508 566.71875,594.25 C 569.01987,594.90746 571.34388,594.92192 573.15625,593.625 C 574.96862,592.32808 575.56285,589.7277 574.78125,587.1875 C 574.45333,586.12608 573.32705,585.53146 572.26562,585.85938 C 571.2042,586.18729 570.60958,587.31358 570.9375,588.375 C 571.41494,589.9267 571.14444,590.13746 570.8125,590.375 C 570.48056,590.61254 569.3672,590.85045 567.8125,590.40625 C 564.70309,589.51785 560.4108,586.23241 558.40625,580.21875 C 557.21875,576.65627 554.06542,569.51895 550,560.875 C 545.93458,552.23105 540.95768,542.19146 536.21875,533.1875 C 533.68173,527.41311 509.75096,487.30001 507.28125,422.0625 L 507.28125,422.0625 z"
           id="path2497"
           style="fill:#000000;fill-opacity:1;fill-rule:evenodd;stroke:none;stroke-width:4;stroke-linecap:round;stroke-linejoin:round;stroke-miterlimit:4;stroke-dasharray:none;stroke-opacity:1" />
      </g>
      <g
         transform="translate(54,0)"
         id="g2499"
         style="fill:none;fill-opacity:1;display:inline">
        <path
           d="M 493.78931,489.35539 C 497.94331,512.32306 504.2053,531.26456 514.34375,549.59375 C 520.44721,559.41882 526.48481,565.01942 531.59375,567.71875 C 534.14822,569.06841 536.47577,569.67974 538.53125,569.65625 C 540.58673,569.63276 542.50359,568.8728 543.5625,567.28125 C 544.68901,565.58807 544.66534,563.66908 544.5,561.4375 C 544.33466,559.20592 543.85307,556.66305 543.21875,553.96875 C 541.95011,548.58015 540.04933,542.64939 538.6875,538.40625 C 538.35095,537.35346 537.22467,536.77283 536.17188,537.10938 C 535.11908,537.44592 534.53845,538.57221 534.875,539.625 C 536.23683,543.86814 538.13029,549.72081 539.34375,554.875 C 539.95048,557.4521 540.36092,559.87283 540.5,561.75 C 540.63908,563.62717 540.30862,564.92742 540.21875,565.0625 C 540.06127,565.2992 539.65588,565.64304 538.5,565.65625 C 537.34412,565.66946 535.5827,565.27317 533.46875,564.15625 C 529.24084,561.92242 523.58419,556.86037 517.75,547.46875 C 508.26179,528.72761 502.61537,515.77788 493.78931,489.35539 z"
           id="path2501"
           style="fill:#000000;fill-opacity:1;fill-rule:evenodd;stroke:none;stroke-width:4;stroke-linecap:round;stroke-linejoin:round;stroke-miterlimit:4;stroke-dasharray:none;stroke-opacity:1" />
        <path
           d="M 483.58365,515.28334 C 487.9646,534.75617 496.52697,551.55876 504.65625,567.21875 C 509.62609,575.53664 514.62004,580.32782 518.90625,582.6875 C 521.04935,583.86734 522.99459,584.46216 524.78125,584.46875 C 526.56791,584.47534 528.30574,583.80109 529.28125,582.375 C 530.32554,580.84835 530.29844,579.20659 530.1875,577.3125 C 530.07656,575.41841 529.71401,573.26749 529.21875,571 C 528.22823,566.46502 526.73452,561.49818 525.65625,557.9375 C 525.33696,556.87608 524.21767,556.27446 523.15625,556.59375 C 522.09483,556.91304 521.49321,558.03233 521.8125,559.09375 C 522.89077,562.65442 524.37314,567.543 525.3125,571.84375 C 525.78218,573.99413 526.12849,575.99023 526.21875,577.53125 C 526.30901,579.07227 525.98962,580.14018 526,580.125 C 525.9416,580.21038 525.69509,580.47201 524.8125,580.46875 C 523.92991,580.46549 522.51798,580.12642 520.8125,579.1875 C 517.40154,577.30966 512.80245,573.03707 508.09375,565.15625 C 504.26762,559.88388 491.27631,534.95195 483.58365,515.28334 z"
           id="path2503"
           style="fill:#000000;fill-opacity:1;fill-rule:evenodd;stroke:none;stroke-width:4;stroke-linecap:round;stroke-linejoin:round;stroke-miterlimit:4;stroke-dasharray:none;stroke-opacity:1" />
        <path
           d="M 478.72924,534.76236 C 481.87828,558.17885 487.59622,570.87987 491.96875,579.5625 C 496.06841,587.29725 500.34356,591.84434 504.125,594.1875 C 506.01572,595.35908 507.78796,596.00581 509.4375,596.09375 C 511.08704,596.18169 512.73343,595.64901 513.71875,594.34375 C 514.7774,592.94137 514.82879,591.41498 514.8125,589.6875 C 514.79621,587.96002 514.56381,586.00746 514.21875,583.9375 C 513.52863,579.79758 512.37225,575.25518 511.5625,572 C 511.42286,571.2722 510.89228,570.68126 510.18367,570.46432 C 509.47507,570.24738 508.70459,570.43999 508.18144,570.96488 C 507.65829,571.48976 507.46822,572.26087 507.6875,572.96875 C 508.49726,576.22393 509.59911,580.68917 510.25,584.59375 C 510.57544,586.54604 510.79953,588.34313 510.8125,589.71875 C 510.82547,591.09437 510.46566,592.02439 510.53125,591.9375 C 510.52352,591.94774 510.39846,592.13332 509.65625,592.09375 C 508.91404,592.05418 507.68397,591.72042 506.21875,590.8125 C 503.28831,588.99666 499.36195,584.97378 495.5,577.6875 C 493.44282,574.8376 486.95691,562.39966 478.72924,534.76236 z"
           id="path2505"
           style="fill:#000000;fill-opacity:1;fill-rule:evenodd;stroke:none;stroke-width:4;stroke-linecap:round;stroke-linejoin:round;stroke-miterlimit:4;stroke-dasharray:none;stroke-opacity:1" />
        <path
           d="M 472.05805,550.29492 C 472.80092,557.77099 473.9812,564.15636 475.36893,569.64516 C 477.86453,579.51576 481.03105,586.4869 483.53125,591.6875 C 486.81468,598.42823 490.31169,602.48124 493.5,604.625 C 495.09416,605.69688 496.59986,606.31192 498.0625,606.4375 C 499.52514,606.56308 501.06565,606.12312 502,604.9375 C 503.00968,603.65624 503.06789,602.34148 503.09375,600.84375 C 503.11961,599.34602 502.96274,597.62719 502.71875,595.84375 C 502.23077,592.27686 501.38768,588.36217 500.78125,585.5625 C 500.53963,584.47519 499.46231,583.78963 498.375,584.03125 C 497.28769,584.27287 496.60213,585.35019 496.84375,586.4375 C 497.45018,589.23718 498.29383,593.07187 498.75,596.40625 C 498.97808,598.07344 499.11363,599.59857 499.09375,600.75 C 499.07387,601.90143 498.72931,602.65362 498.875,602.46875 C 498.94533,602.3795 498.94985,602.48417 498.40625,602.4375 C 497.86265,602.39083 496.89652,602.10441 495.71875,601.3125 C 493.36321,599.72868 490.18903,596.22783 487.125,589.9375 C 484.76614,586.76913 477.52099,570.80902 472.05805,550.29492 z"
           id="path2507"
           style="fill:#000000;fill-opacity:1;fill-rule:evenodd;stroke:none;stroke-width:4;stroke-linecap:round;stroke-linejoin:round;stroke-miterlimit:4;stroke-dasharray:none;stroke-opacity:1" />
        <path
           d="M 439.15625,598.65625 C 440.95503,606.78556 443.69136,612.06717 446.53125,615.1875 C 447.9512,616.74767 449.38098,617.77238 450.875,618.28125 C 452.36902,618.79012 454.09551,618.73467 455.34375,617.75 C 456.68842,616.68926 457.06191,615.28052 457.46875,613.6875 C 457.87559,612.09448 458.1499,610.2357 458.34375,608.25 C 458.73145,604.27861 458.81004,599.84359 458.875,596.65625 C 458.90089,595.55168 458.02644,594.63526 456.92188,594.60937 C 455.81731,594.58349 454.90089,595.45793 454.875,596.5625 C 454.81004,599.74984 454.70876,604.13608 454.34375,607.875 C 454.16125,609.74446 453.91504,611.4607 453.59375,612.71875 C 453.27246,613.9768 452.7097,614.69949 452.84375,614.59375 C 452.88135,614.56409 452.80802,614.71135 452.1875,614.5 C 451.56698,614.28865 450.55373,613.66087 449.46875,612.46875 C 447.29879,610.08451 444.75401,605.42575 443.0625,597.78125 C 441.54565,590.61582 439.3391,568.36397 440.1434,552.22569 C 435.17651,566.49231 437.82963,589.39342 439.15625,598.65625 z"
           id="path2509"
           style="fill:#000000;fill-opacity:1;fill-rule:evenodd;stroke:none;stroke-width:4;stroke-linecap:round;stroke-linejoin:round;stroke-miterlimit:4;stroke-dasharray:none;stroke-opacity:1" />
        <path
           d="M 424.3125,542.5625 C 418.79666,562.59838 420.88165,585.34014 421.34375,593.65625 C 422.33738,602.36535 424.60334,608.1778 427.21875,611.75 C 428.52646,613.5361 429.92196,614.77437 431.40625,615.46875 C 432.89054,616.16313 434.61563,616.27341 436,615.40625 C 437.48907,614.47351 438.05864,613.08232 438.65625,611.46875 C 439.25386,609.85518 439.73654,607.96066 440.15625,605.90625 C 440.99567,601.79743 441.5833,597.1433 442,593.8125 C 442.09844,593.09904 441.80571,592.38774 441.2336,591.95024 C 440.66149,591.51274 439.89835,591.41659 439.2356,591.69852 C 438.57285,591.98045 438.11285,592.59692 438.03125,593.3125 C 437.61455,596.64329 437.01132,601.21426 436.21875,605.09375 C 435.82246,607.0335 435.38334,608.80559 434.90625,610.09375 C 434.42916,611.38191 433.7587,612.1041 433.875,612.03125 C 433.8866,612.02398 433.74595,612.14886 433.09375,611.84375 C 432.44155,611.53864 431.45299,610.76198 430.4375,609.375 C 428.40653,606.60104 426.24995,601.40415 425.3125,593.1875 C 424.02123,584.1938 423.55564,556.78303 424.3125,542.5625 z"
           id="path2511"
           style="fill:#000000;fill-opacity:1;fill-rule:evenodd;stroke:none;stroke-width:4;stroke-linecap:round;stroke-linejoin:round;stroke-miterlimit:4;stroke-dasharray:none;stroke-opacity:1" />
        <path
           d="M 410.37049,538.56493 C 402.15861,554.73458 402.6325,576.62684 402.375,584.0625 C 402.45691,593.17659 404.18338,599.43054 406.5,603.40625 C 407.65831,605.39411 408.96052,606.84251 410.40625,607.71875 C 411.85198,608.59499 413.6207,608.91101 415.125,608.1875 C 416.74087,607.41032 417.48635,606.03289 418.28125,604.4375 C 419.07615,602.84211 419.77751,600.91874 420.4375,598.84375 C 421.75748,594.69377 422.85944,589.95997 423.65625,586.5625 C 423.9065,585.48382 423.23493,584.4065 422.15625,584.15625 C 421.07757,583.906 420.00025,584.57757 419.75,585.65625 C 418.95319,589.05372 417.87354,593.69963 416.625,597.625 C 416.00073,599.58768 415.32649,601.37378 414.6875,602.65625 C 414.04851,603.93872 413.27992,604.60823 413.375,604.5625 C 413.35849,604.57044 413.16591,604.68485 412.5,604.28125 C 411.83409,603.87765 410.87884,602.96812 409.96875,601.40625 C 408.14858,598.28252 406.45243,592.64768 406.375,584.03125 C 405.98007,575.21255 406.72681,555.48287 410.37049,538.56493 z"
           id="path2513"
           style="fill:#000000;fill-opacity:1;fill-rule:evenodd;stroke:none;stroke-width:4;stroke-linecap:round;stroke-linejoin:round;stroke-miterlimit:4;stroke-dasharray:none;stroke-opacity:1" />
        <path
           d="M 463.45607,558.09596 C 462.92666,574.80086 466.94895,584.61987 471.09375,597.15625 C 473.69394,603.77266 476.60806,607.86553 479.375,610.125 C 480.75847,611.25473 482.09561,611.93763 483.46875,612.15625 C 484.84189,612.37487 486.38779,611.99684 487.3125,610.875 C 488.31448,609.65942 488.40686,608.42225 488.5,607 C 488.59314,605.57775 488.50785,603.96253 488.375,602.25 C 488.10929,598.82494 487.56348,595.04745 487.15625,592.34375 C 486.99229,591.24781 485.97094,590.49229 484.875,590.65625 C 483.77906,590.82021 483.02354,591.84156 483.1875,592.9375 C 483.59473,595.6412 484.15745,599.35536 484.40625,602.5625 C 484.53065,604.16607 484.57201,605.65045 484.5,606.75 C 484.42799,607.84955 484.06721,608.53426 484.25,608.3125 C 484.35551,608.18449 484.49504,608.28264 484.09375,608.21875 C 483.69246,608.15486 482.89803,607.80988 481.90625,607 C 479.92269,605.38023 477.23957,601.89466 474.8125,595.71875 C 472.28191,591.27599 467.35578,576.97203 463.45607,558.09596 z"
           id="path2515"
           style="fill:#000000;fill-opacity:1;fill-rule:evenodd;stroke:none;stroke-width:4;stroke-linecap:round;stroke-linejoin:round;stroke-miterlimit:4;stroke-dasharray:none;stroke-opacity:1" />
        <path
           d="M 452.9375,558.78125 C 450.50525,574.63764 455.88834,594.36593 457.3125,600.53125 C 459.293,607.3588 461.82765,611.68308 464.375,614.1875 C 465.64868,615.43971 466.93404,616.24974 468.28125,616.59375 C 469.62846,616.93776 471.19475,616.7195 472.21875,615.6875 C 473.3283,614.56925 473.49516,613.34515 473.71875,611.9375 C 473.94234,610.52985 474.03725,608.90499 474.0625,607.1875 C 474.113,603.75252 473.90679,599.94844 473.75,597.21875 C 473.68959,596.11418 472.74519,595.26772 471.64062,595.32812 C 470.53606,595.38853 469.68959,596.33293 469.75,597.4375 C 469.90679,600.16719 470.10978,603.90857 470.0625,607.125 C 470.03886,608.73322 469.95411,610.22424 469.78125,611.3125 C 469.60839,612.40076 469.17258,613.079 469.375,612.875 C 469.49184,612.75724 469.64371,612.81929 469.25,612.71875 C 468.85629,612.61821 468.10057,612.24143 467.1875,611.34375 C 465.36136,609.54838 463.0049,605.8105 461.15625,599.4375 C 459.26092,594.93237 455.10035,575.80203 452.9375,558.78125 L 452.9375,558.78125 z"
           id="path2517"
           style="fill:#000000;fill-opacity:1;fill-rule:evenodd;stroke:none;stroke-width:4;stroke-linecap:round;stroke-linejoin:round;stroke-miterlimit:4;stroke-dasharray:none;stroke-opacity:1" />
        <path
           d="M 388.75,542.28125 C 384.93375,553.66453 385.30026,566.71379 384.8125,573 C 384.08345,582.08526 385.26492,588.459 387.21875,592.625 C 388.19566,594.708 389.35669,596.24865 390.71875,597.25 C 392.08081,598.25135 393.78106,598.74307 395.34375,598.15625 C 397.02235,597.52587 397.87885,596.20587 398.8125,594.6875 C 399.74615,593.16913 400.62682,591.32056 401.46875,589.3125 C 403.15261,585.29637 404.68542,580.68812 405.78125,577.375 C 406.06431,576.68611 405.94117,575.897 405.46169,575.3271 C 404.98221,574.75719 404.2258,574.50089 403.49864,574.66193 C 402.77148,574.82297 402.19402,575.37469 402,576.09375 C 400.90417,579.40687 399.37397,583.98249 397.78125,587.78125 C 396.98489,589.68063 396.15677,591.37319 395.40625,592.59375 C 394.65573,593.81431 393.83873,594.44334 393.9375,594.40625 C 393.92034,594.41269 393.72113,594.49248 393.09375,594.03125 C 392.46637,593.57002 391.58006,592.57412 390.8125,590.9375 C 389.27737,587.66426 388.08968,580.34119 387.81634,571.81826 C 387.65042,566.64505 388.3256,554.76365 388.75,542.28125 z"
           id="path2519"
           style="fill:#000000;fill-opacity:1;fill-rule:evenodd;stroke:none;stroke-width:4;stroke-linecap:round;stroke-linejoin:round;stroke-miterlimit:4;stroke-dasharray:none;stroke-opacity:1" />
      </g>
      <path
         d="M 669.67208,669.61307 C 669.04255,663.31785 669.67209,683.46256 670.30161,697.94155 C 670.93113,712.42054 685.41012,726.89954 687.92821,723.75193 C 690.4463,720.60432 710.59099,607.91996 672.19017,487.05182 C 633.78936,366.18368 562.0239,353.59325 550.06299,362.40655 C 538.10208,371.21985 564.22721,371.53462 561.39437,424.09967 C 558.56153,476.66472 579.98005,517.98944 588.4638,534.10856 C 597.90663,552.04994 608.29374,574.24056 610.49706,580.85054 C 614.90371,594.0705 629.3827,595.95905 626.86461,587.77527 C 624.34652,579.59149 627.49414,591.5524 630.01223,602.88379 C 632.53032,614.21518 649.5274,627.43513 649.5274,617.99231 C 649.5274,608.54949 650.15691,640.6551 652.675,651.98648 C 655.19309,663.31786 670.30161,675.90829 669.67208,669.61307 z"
         id="path2521"
         style="fill:url(#radialGradient2527);fill-opacity:1;fill-rule:evenodd;stroke:none;stroke-width:4;stroke-linecap:round;stroke-linejoin:round;marker-mid:none;stroke-miterlimit:4;stroke-dasharray:none;stroke-opacity:1" />
      <path
         d="M 436.52384,514.92111 C 426.41846,508.63136 472.49788,488.56362 502.93836,458.89369 C 533.53574,429.07084 549.52295,395.94153 555.50341,397.8301 C 561.48386,399.71866 558.33626,422.38143 558.33626,442.21137 C 558.33627,461.78989 562.42815,479.03838 561.1691,485.96312 C 559.91006,492.88785 530.32255,487.85168 507.65977,492.25833 C 484.997,496.66499 440.5965,517.45601 436.52384,514.92111 z"
         id="path2523"
         style="fill:url(#linearGradient2529);fill-opacity:1;fill-rule:evenodd;stroke:none;stroke-width:1px;stroke-linecap:butt;stroke-linejoin:miter;stroke-opacity:1;filter:url(#filter3485)" />
      <path
         d="M 590.7865,539.02554 C 593.51015,547.5118 598.32891,562.52597 595.89615,566.18249 C 593.46339,569.839 581.97489,567.75277 570.03724,548.53608 C 558.0996,529.31939 549.46725,490.52363 549.46725,490.52363 M 577.73245,558.51139 C 579.88896,565.63276 583.70435,578.23209 581.63653,581.25502 C 579.56872,584.27795 570.04755,582.39081 560.36901,566.1921 C 550.69048,549.99338 539.31299,516.36266 539.31299,516.36266 M 563.63321,572.47699 C 565.25272,578.98735 568.11803,590.50569 566.13192,593.13667 C 564.1458,595.76765 555.6959,593.64467 547.73429,578.62364 C 539.77269,563.6026 531.05503,532.80432 531.05503,532.80432 M 552.81197,586.00009 C 554.02485,591.59941 556.1707,601.50588 554.44271,603.69865 C 552.71469,605.89142 545.66473,603.85541 539.31727,590.82435 C 532.96983,577.79328 526.34484,551.27685 526.34484,551.27685 M 510.87114,596.6053 C 510.74123,602.97997 510.51139,614.25825 508.09014,616.16824 C 505.66887,618.07823 498.60495,614.00101 495.11466,598.2272 C 491.62439,582.45339 491.29143,552.03052 491.29143,552.03052 M 494.00266,593.5546 C 493.16925,600.21622 491.69473,612.00216 488.94919,613.72194 C 486.20364,615.44171 479.24919,610.35239 477.31811,593.42664 C 475.38704,576.5009 478.36616,544.59812 478.36616,544.59812 M 475.70757,586.09927 C 474.11397,592.89419 471.29452,604.91597 468.25293,606.37887 C 465.21131,607.84174 458.53821,601.77669 458.37887,584.04617 C 458.21956,566.31564 462.91072,536.80555 462.91072,536.80555 M 539.16533,592.63807 C 539.97981,598.04546 541.42079,607.61236 539.78242,609.59999 C 538.14402,611.58764 531.97585,609.23151 526.94859,596.43919 C 521.92135,583.64684 517.28132,557.98735 517.28132,557.98735 M 525.74642,597.32275 C 526.06001,602.78214 526.6148,612.44103 524.80053,614.26952 C 522.98623,616.09802 517.06096,613.18446 513.23181,599.98391 C 509.40268,586.78334 507.1428,560.8058 507.1428,560.8058 M 457.8847,576.73437 C 455.69305,583.36062 451.81553,595.08399 448.65588,596.27056 C 445.4962,597.4571 439.38899,590.82257 440.80728,573.14814 C 442.22561,555.47372 442.87061,544.30488 442.87061,544.30488"
         id="path2525"
         style="fill:url(#radialGradient2531);fill-opacity:1;fill-rule:evenodd;stroke:none;stroke-width:4;stroke-linecap:round;stroke-linejoin:round;stroke-miterlimit:4;stroke-dasharray:none;stroke-opacity:1;display:inline" />
    </g>
  </g>
</svg>
