<?xml version="1.0" encoding="UTF-8" standalone="no"?>
<!-- Created with Inkscape (http://www.inkscape.org/) -->
<svg
   xmlns:dc="http://purl.org/dc/elements/1.1/"
   xmlns:cc="http://web.resource.org/cc/"
   xmlns:rdf="http://www.w3.org/1999/02/22-rdf-syntax-ns#"
   xmlns:svg="http://www.w3.org/2000/svg"
   xmlns="http://www.w3.org/2000/svg"
   xmlns:xlink="http://www.w3.org/1999/xlink"
   xmlns:sodipodi="http://sodipodi.sourceforge.net/DTD/sodipodi-0.dtd"
   xmlns:inkscape="http://www.inkscape.org/namespaces/inkscape"
   id="svg1363"
   sodipodi:version="0.32"
   inkscape:version="0.45.1"
   width="759.08966"
   height="814.40564"
   sodipodi:docbase="/home/plp/creations/mag-zrneni/final/n4/svg"
   sodipodi:docname="liftarn-z-_Wolf.svg"
   version="1.0"
   inkscape:output_extension="org.inkscape.output.svg.inkscape"
   inkscape:export-filename="./vlk-z-2.png"
   inkscape:export-xdpi="90"
   inkscape:export-ydpi="90">
  <metadata
     id="metadata1368">
    <rdf:RDF>
      <cc:Work
         rdf:about="">
        <dc:format>image/svg+xml</dc:format>
        <dc:type
           rdf:resource="http://purl.org/dc/dcmitype/StillImage" />
        <cc:license
           rdf:resource="http://web.resource.org/cc/PublicDomain" />
        <dc:description>Illustration to &quot;Burial Mound&quot; poem by Yanka Kupala. Engraving by Arlen Kashkurevich.</dc:description>
        <dc:title>Wolf</dc:title>
        <dc:creator>
          <cc:Agent>
            <dc:title>Staffan Vilcans (trace)</dc:title>
          </cc:Agent>
        </dc:creator>
      </cc:Work>
      <cc:License
         rdf:about="http://web.resource.org/cc/PublicDomain">
        <cc:permits
           rdf:resource="http://web.resource.org/cc/Reproduction" />
        <cc:permits
           rdf:resource="http://web.resource.org/cc/Distribution" />
        <cc:permits
           rdf:resource="http://web.resource.org/cc/DerivativeWorks" />
      </cc:License>
    </rdf:RDF>
  </metadata>
  <defs
     id="defs1366">
    <linearGradient
       inkscape:collect="always"
       id="linearGradient8021">
      <stop
         style="stop-color:#ececec;stop-opacity:1;"
         offset="0"
         id="stop8023" />
      <stop
         style="stop-color:#ececec;stop-opacity:0;"
         offset="1"
         id="stop8025" />
    </linearGradient>
    <linearGradient
       inkscape:collect="always"
       xlink:href="#linearGradient8021"
       id="linearGradient8027"
       x1="377.24805"
       y1="225.64366"
       x2="375.34628"
       y2="478.57382"
       gradientUnits="userSpaceOnUse" />
  </defs>
  <sodipodi:namedview
     inkscape:window-height="718"
     inkscape:window-width="1024"
     inkscape:pageshadow="2"
     inkscape:pageopacity="0.0"
     borderopacity="1.0"
     bordercolor="#666666"
     pagecolor="#ffffff"
     id="base"
     inkscape:zoom="0.52583681"
     inkscape:cx="416.48313"
     inkscape:cy="436.57099"
     inkscape:window-x="0"
     inkscape:window-y="27"
     inkscape:current-layer="layer2" />
  <g
     inkscape:groupmode="layer"
     id="layer2"
     inkscape:label="0"
     style="display:inline">
    <rect
       style="opacity:1;fill:#9292ac;fill-opacity:1;fill-rule:evenodd;stroke:none;stroke-width:0.5;stroke-linecap:round;stroke-linejoin:round;stroke-miterlimit:4;stroke-dasharray:none;stroke-dashoffset:0;stroke-opacity:1"
       id="rect2164"
       width="764.49573"
       height="815.84247"
       x="-1.9017307"
       y="0.46490392" />
    <path
       sodipodi:type="arc"
       style="opacity:1;fill:url(#linearGradient8027);fill-opacity:1;fill-rule:evenodd;stroke:none;stroke-width:0.5;stroke-linecap:round;stroke-linejoin:round;stroke-miterlimit:4;stroke-dasharray:none;stroke-dashoffset:0;stroke-opacity:1"
       id="path7046"
       sodipodi:cx="391.98782"
       sodipodi:cy="415.02182"
       sodipodi:rx="355.00784"
       sodipodi:ry="357.47318"
       d="M 746.99567 415.02182 A 355.00784 357.47318 0 1 1  36.97998,415.02182 A 355.00784 357.47318 0 1 1  746.99567 415.02182 z"
       transform="translate(-19.722658,4.9306644)" />
  </g>
  <g
     inkscape:groupmode="layer"
     id="layer3"
     inkscape:label="1"
     style="display:inline"
     sodipodi:insensitive="true">
    <path
       style="opacity:1;fill:#000000;fill-opacity:1;fill-rule:evenodd;stroke:none;stroke-width:0.5;stroke-linecap:round;stroke-linejoin:round;stroke-miterlimit:4;stroke-dasharray:none;stroke-dashoffset:0;stroke-opacity:1"
       d="M 667.4375,-0.5625 C 655.95822,8.0168828 643.65839,37.261144 640.90625,61.4375 C 625.05372,72.856461 604.84362,64.161648 597,63.3125 C 591.54423,71.127264 595.77241,61.438535 595.375,62.15625 C 595.0657,61.403862 594.72666,60.406248 594.3125,58.9375 C 593.79049,59.804348 593.27621,60.409615 592.75,60.8125 C 592.55169,59.521011 592.36129,58.194825 592.15625,58.96875 C 591.95877,59.714088 591.77086,60.285891 591.59375,60.875 C 590.40924,47.380524 553.95011,19.710942 537.03125,4.40625 C 517.46129,30.897047 533.98688,82.345825 533.90625,98.1875 C 543.65753,79.404117 537.15915,97.354894 535.40625,103.40625 C 545.99514,93.862695 536.02497,101.93164 537,110.4375 C 541.61921,109.73557 534.42273,120.90972 533,126.78125 C 532.97729,125.22275 524.2983,133.86154 523.34375,135.09375 C 521.43804,135.31786 520.07487,137.48268 519.40625,139.28125 C 518.82743,136.60594 518.38169,135.55493 518,135.3125 L 517.96875,135.0625 C 517.68209,133.49931 517.59617,134.0961 517.5625,135.40625 C 517.1431,135.7718 516.79172,136.87017 516.40625,137.25 C 516.37732,136.02068 516.23804,135.21675 515.53125,135.84375 C 515.47513,135.89354 515.42345,135.94674 515.375,136 C 515.19539,135.3928 515.02792,134.59474 514.8125,133.4375 C 513.09538,133.20616 513.284,136.26618 513.5,139.8125 C 513.40436,141.60417 513.31079,143.67162 513.125,146.6875 C 512.28086,144.23576 511.70185,142.92326 511.21875,142.3125 C 511.3026,138.75925 511.18786,138.51453 510.9375,142.03125 C 510.54846,141.2079 510.29094,140.02957 509.75,139.21875 C 508.29731,139.4799 508.04539,141.61145 507.1875,142.8125 C 507.10368,144.26172 507.02929,145.26014 506.9375,146 C 506.77765,146.15405 506.61325,146.31882 506.4375,146.46875 C 504.77439,139.67433 504.81331,147.64719 501.5625,149.4375 C 499.41468,146.63872 498.45164,151.23115 497.625,147.96875 C 497.32427,150.28434 496.6947,151.84429 496.09375,153 C 495.84261,153.11551 495.56934,153.35154 495.25,153.78125 C 494.22292,155.23354 490.77876,158.40254 490.125,162.3125 C 488.97681,162.71134 488.53849,157.72895 487.96875,158.9375 C 486.68047,161.67022 489.0195,169.93169 486.75,167.9375 C 485.08833,166.47741 485.27871,163.32656 485.25,162.9375 C 485.19811,163.09059 485.02819,163.97961 484.53125,166.15625 C 483.03498,169.527 480.34627,174.67536 479.25,171.625 C 477.9129,182.84885 475.75744,165.40587 475.40625,178.15625 C 475.8641,193.79203 472.82615,170.50492 471.84375,183.96875 C 469.03243,184.44952 470.61146,196.5052 467.59375,185.75 C 466.92862,193.76565 462.35592,197.07989 461.78125,204.6875 C 453.2748,184.21251 463.26243,227.60175 453.78125,203.21875 C 450.66746,208.5728 450.75258,218.60628 445.375,212.1875 C 443.41712,216.19038 440.43336,219.8075 438.59375,223.8125 C 413.3761,225.02196 393.58016,250.47338 375.09375,254.90625 C 370.3788,255.90458 359.56341,258.61722 351.09375,260.9375 C 342.62409,263.25778 332.95038,265.16757 329.5625,265.1875 C 324.40227,265.21785 313.6095,268.49667 297.71875,274.84375 C 296.02481,275.52034 284.95127,279.5469 273.09375,283.8125 C 217.33336,303.87148 214.04253,305.30853 204.9375,313.5 C 190.89622,326.13242 161.91157,348.43333 154.6875,352.15625 C 151.11933,353.9951 147.88436,356.18951 147.5,357.0625 C 147.11565,357.93548 141.43047,363.19793 134.875,368.75 C 132.7223,370.5732 130.89418,372.15895 129.28125,373.625 L 129.1875,373.71875 C 123.89945,378.53658 121.2386,381.90907 119.3125,386.78125 L 104,407 C 109.25462,405.7675 99.153147,416.78932 100.4375,417.4375 C 102.30372,418.37934 103.24557,414.35516 104.65625,412.8125 C 104.90731,413.23909 104.69461,414.68575 104.25,416.46875 L 98.15625,424.21875 C 83.120158,447.54074 114.82824,405.76921 92.21875,436.875 C 92.698878,436.44161 95.945149,433.16902 96.8125,432.71875 C 98.801894,431.68596 94.69586,436.68708 93.625,438.65625 C 90.283538,443.28942 93.870042,439.75914 90.75,446.8125 C 90.19256,448.73435 92.052853,447.1401 90.625,452.5625 C 85.421778,464.4042 104.37679,435.91381 83.65625,466.65625 C 88.12256,460.8408 89.540156,460.29767 89.625,461.6875 C 87.986579,463.80403 88.032465,464.69427 88.90625,464.90625 C 88.307971,466.66424 87.502022,468.53163 87,469.40625 C 91.662477,463.84253 90.58077,466.28675 88.90625,469.59375 C 85.216445,473.56873 75.810547,477.50726 79.5625,480.53125 C 81.327025,481.95343 83.961371,479.40821 86.15625,478.84375 C 81.482551,483.09903 73.622856,485.45312 72.125,491.59375 C 70.894907,496.63664 81.294268,488.59149 86.65625,486.21875 C 86.655237,486.25981 86.65705,486.30276 86.65625,486.34375 C 63.789162,500.59845 95.482483,482.78509 79.15625,500.65625 C 87.685603,501.90392 83.722522,505.25217 80.78125,512.03125 C 81.255035,515.17858 78.034016,522.80319 86.78125,520.59375 C 80.00281,531.97982 96.202936,518.19152 87.59375,529.78125 C 74.752507,542.03185 89.512984,526.67945 91.96875,531.21875 C 93.44623,533.94976 73.938821,544.75658 94.5625,536.59375 C 63.194168,558.87322 116.27083,530.88783 90.65625,549.3125 C 108.08308,542.0328 91.560764,552.9369 95.4375,555.71875 C 113.03074,550.12789 89.454545,564.85401 100.78125,563.09375 C 107.30559,563.26327 109.35485,564.37001 109.125,565.8125 C 109.12359,565.82132 109.12658,565.8349 109.125,565.84375 C 107.16334,567.26985 105.23208,568.95899 103.6875,570.5625 C 100.95601,572.12428 98.183737,573.39719 97.90625,573.59375 C 98.135586,573.54871 99.72643,573.02067 102.3125,572.09375 C 101.65038,572.89402 101.1334,573.61112 100.84375,574.21875 C 100.41989,575.10792 99.845631,578.31866 99.25,582.96875 L 97.1875,583.9375 C 95.902401,589.57062 81.72809,596.58723 98.4375,590.25 C 98.429674,590.32426 98.414077,590.39414 98.40625,590.46875 C 93.740697,593.1218 91.029141,594.66166 89.625,595.4375 C 91.94796,594.23953 96.312316,592.11256 98.28125,591.8125 C 98.164858,592.95463 98.021539,594.16377 97.90625,595.375 C 96.253132,596.94289 93.519167,598.73037 90.5625,600.8125 C 92.987377,599.88881 95.274888,598.32077 97.71875,597.5 C 97.657009,598.17444 97.592192,598.84089 97.53125,599.53125 C 96.696186,600.00301 95.918608,600.45264 95.4375,600.8125 C 86.499238,607.49803 96.234278,601.01022 93.28125,606.84375 C 94.343753,609.55911 90.094132,614.99118 85.6875,618.09375 C 88.586842,617.02702 91.475659,615.97295 94.375,614.90625 C 94.834821,615.08292 95.290182,615.26084 95.75,615.4375 L 96.3125,615.15625 C 95.009379,632.87483 93.148108,650.7994 92.0625,655.90625 C 90.245333,664.45445 90.508893,678.76421 92.75,693.71875 C 93.314774,697.48737 90.922232,699.51834 78.03125,706.0625 C 64.022427,713.17413 62.15261,714.87757 57.25,724.9375 C 52.942496,733.7763 50.379522,736.48945 44.53125,738.5 C 32.377302,742.67833 7.9830993,768.76622 1.59375,782.8125 L 0,783.96875 L 0.1875,786.875 C 0.081066575,787.41874 0,787.94238 0,788.40625 C 0,789.31191 0.15116962,790.1701 0.4375,791 L 1.90625,814.40625 L 760.6875,814.40625 L 758.78125,687 L 728.9375,684.15625 C 727.2119,680.93197 720.60971,679.02202 681.0625,670.375 C 672.04714,668.40377 662.95939,664.60092 655.40625,659.59375 C 648.97111,655.32771 641.8141,651.24946 639.53125,650.53125 C 637.24837,649.81303 632.39588,646.45227 628.71875,643.09375 C 625.04161,639.7352 618.11199,635.98349 613.34375,634.75 C 608.57554,633.51649 602.13733,630.69244 599.03125,628.46875 C 595.92515,626.24508 589.19588,623.64653 584.0625,622.6875 C 578.92908,621.72849 574.35757,620.57633 573.90625,620.125 C 573.45493,619.67366 571.52607,609.63706 569.625,597.8125 L 566.15625,576.3125 L 572.375,550.625 C 575.79704,536.50889 579.60727,519.43199 580.84375,512.65625 C 583.42344,498.52039 586.07606,484.6615 590.625,461.3125 C 592.38509,452.27819 594.09359,439.80485 594.4375,433.59375 C 594.78142,427.38266 595.14775,421.20593 595.25,419.875 C 595.35229,418.54404 596.60454,416.24226 598.03125,414.75 C 599.45791,413.25771 604.56327,407.04811 609.375,400.9375 L 618.125,389.8125 L 617.6875,369.25 L 619.90625,368.3125 C 619.39274,368.47713 619.97723,367.10791 620.40625,366.78125 C 621.53595,365.03588 626.01161,360.65773 619.09375,363.90625 C 628.38494,358.82294 633.79788,341.08219 635.25,329.40625 C 632.30566,328.18269 638.08716,322.53097 637.75,323.53125 C 638.56819,321.25888 636.14477,320.99394 636,319.71875 C 638.42029,316.46295 638.39523,315.23159 638.09375,313.84375 C 639.1004,309.98162 636.97142,309.85357 641.3125,307 C 635.32545,308.57639 633.69928,307.92699 639.375,302.75 C 639.45783,301.45488 638.47027,300.94855 636.4375,299 C 645.41597,292.33207 632.72666,298.76868 639.0625,292.1875 C 637.502,292.69943 636.5614,292.91576 636.03125,292.90625 C 636.53376,292.35191 636.95109,291.54889 637.28125,290.46875 C 638.43332,289.87788 639.59554,289.29788 640.75,288.75 C 642.25485,287.68291 643.61988,286.44292 645,285.21875 C 636.79397,287.601 647.27078,282.91382 647.21875,281.28125 C 643.82632,280.62652 643.47517,280.26197 647.59375,277.28125 C 654.05482,269.65924 639.50108,284.32315 650.8125,272.59375 C 651.82239,271.54655 643.07728,274.05838 646.46875,273.0625 C 654.41807,264.32209 642.15862,273.22117 648.09375,267 C 646.59219,264.39649 645.60237,265.00702 647.21875,262.46875 C 649.8463,258.05207 650.05205,257.80936 647.78125,257.09375 C 643.2176,256.11918 647.43368,252.47415 649.59375,251.25 C 644.0373,252.98005 649.41494,249.2918 648.78125,247.03125 C 641.24487,248.9159 648.54742,245.64279 650.5,243.5625 C 650.92023,243.11479 636.95692,249.95506 646.6875,242.90625 C 647.66101,242.03159 653.40497,232.69632 645.84375,238.0625 C 648.91333,225.26878 652.55671,234.16328 655.21875,229.625 C 662.04328,237.72388 659.42414,219.36377 662.8125,230.75 C 665.91746,231.17452 667.24575,231.51736 668.875,228.125 L 668.875,226.09375 C 681.64953,231.91601 696.25292,232.61826 715.5,241.65625 C 735.10315,234.87871 752.90634,228.4553 747.9375,204.71875 C 732.26929,180.48032 696.04326,161.32202 701.875,129.53125 C 706.98989,101.64833 683.47267,90.837547 682.625,65.90625 C 690.38885,50.981007 680.10402,63.438797 676.75,61.90625 C 677.29704,59.625117 680.93063,52.31809 682.90625,48.59375 C 684.77813,43.442415 681.87445,48.633184 680.03125,46.375 C 677.76585,49.090951 676.50136,50.523553 675.84375,51.1875 C 675.80623,51.009481 675.75627,50.834264 675.71875,50.65625 C 677.49123,47.517259 683.47324,38.513553 675.59375,45.59375 C 681.37741,34.192822 676.97693,37.393758 673.4375,39.78125 C 674.73365,28.385809 671.85738,10.503452 667.4375,-0.5625 z M 682.90625,48.59375 C 682.67751,49.223235 682.41452,49.932909 682.03125,50.90625 C 685.0125,44.884834 684.46264,45.659711 682.90625,48.59375 z M 588.9375,60.25 C 588.95574,60.259349 588.99035,60.329958 589,60.4375 L 588.875,60.40625 C 588.90298,60.296718 588.91926,60.240651 588.9375,60.25 z M 321.90625,458.71875 C 321.6984,458.92462 321.51049,459.13142 321.3125,459.34375 C 321.28494,459.27922 321.24619,459.22081 321.21875,459.15625 C 321.45675,458.99979 321.65987,458.88364 321.90625,458.71875 z M 338.34375,460.90625 C 338.61324,460.89355 338.80549,460.93096 338.9375,461.0625 C 341.9831,464.09707 320.11853,471.67374 337.375,467.25 C 338.40317,467.63443 340.27379,473.17271 353,465.25 C 355.474,464.8624 366.08326,463.8707 354.6875,472.4375 C 373.69496,461.43938 352.68428,479.26051 374.875,467.09375 C 376.9405,470.88878 374.45593,475.29115 387.1875,467.34375 C 388.65,467.53997 393.17497,472.01896 401.75,465.0625 C 405.48496,469.27585 404.31597,468.61492 410.8125,467.5625 C 400.93713,478.4198 414.94279,468.60264 420.90625,466.0625 C 420.92043,466.45706 420.93961,466.83539 421.03125,467.25 C 421.69766,467.24191 422.21427,467.35873 422.625,467.5625 C 421.94123,468.62702 420.76551,470.11814 418.875,472.25 L 423.84375,468.625 C 424.85626,469.80014 425.84148,471.36231 429.6875,471.6875 C 430.20696,475.59516 429.39113,482.07791 445.5,471.59375 C 438.54028,481.98739 443.76691,476.12042 444.59375,482.375 C 444.69282,482.3635 464.54796,478.4976 455.3125,486.59375 C 463.27271,484.36461 458.69262,491.32438 458.5,493.09375 C 485.53789,485.00495 447.48609,502.37234 469.53125,496.375 C 463.95205,502.42808 471.35851,503.97365 471.5,508.03125 L 477.375,504.75 C 476.48739,518.96146 474.70509,526.06025 468.5625,545.1875 C 463.90139,559.70158 459.15332,572.67922 458.03125,574.03125 C 456.66595,575.67633 455.69639,577.99151 455.09375,580.6875 C 449.5669,585.7048 442.15515,588.16405 451.25,587.3125 C 451.9889,587.14229 453.2878,586.68803 454.40625,586.3125 C 454.39094,586.74925 454.37502,587.17989 454.375,587.625 C 451.76541,589.39501 448.66182,590.49439 446.0625,592.3125 C 439.61583,596.82163 452.05023,590.50748 454.5,590.71875 C 454.52599,591.06206 454.52792,591.40456 454.5625,591.75 C 453.99026,592.4993 452.69012,593.68794 450.375,595.53125 C 453.04199,595.00169 454.44984,594.87221 455.03125,595 C 455.07013,595.21981 455.11394,595.43655 455.15625,595.65625 C 453.3932,597.62389 441.37214,603.01863 454.625,601.34375 C 455.0029,601.57063 455.37211,601.80436 455.75,602.03125 C 452.8403,604.16519 449.94097,606.27228 447.03125,608.40625 L 457.15625,602.71875 C 457.33711,603.19076 457.52018,603.66342 457.71875,604.125 C 463.74029,618.12246 462.93838,629.25598 455.78125,630.6875 C 452.93285,631.25721 447.24991,634.31765 443.15625,637.46875 C 439.06258,640.61985 432.62248,644.07253 428.84375,645.15625 C 419.26102,647.90453 418.47207,647.78939 410.625,642 C 405.19955,637.99722 402.1495,637.11597 396.9375,638.09375 C 391.08269,639.19212 389.148,638.28111 381.46875,630.9375 C 376.63348,626.31356 371.50535,622.40332 370.09375,622.25 C 368.68214,622.09667 366.66236,621.85992 365.59375,621.71875 C 364.52516,621.57759 361.41088,617.30053 358.6875,612.21875 C 355.96411,607.13695 350.76277,597.46322 347.125,590.6875 C 343.48726,583.91177 339.35754,577.4418 337.9375,576.3125 C 336.51747,575.18321 331.85501,571.48163 327.59375,568.09375 C 325.09813,566.10963 323.03796,564.17789 321.375,562.25 C 321.42127,562.21078 321.45305,562.19597 321.5,562.15625 C 321.44405,562.1797 321.39904,562.1957 321.34375,562.21875 C 314.64675,554.43167 314.5988,546.49366 320.15625,533.4375 C 322.14099,528.77472 323.38662,523.80798 322.90625,522.40625 C 322.4259,521.00447 323.12947,516.55811 324.46875,512.5 C 325.80804,508.44191 328.19027,499.01717 329.75,491.5625 C 332.15122,480.08582 332.13151,477.50044 329.75,474.78125 C 328.20224,473.01405 326.29325,469.81693 324.40625,466.0625 C 326.26989,465.06049 328.4989,463.66279 331.28125,461.65625 C 316.34411,476.04289 334.30139,461.09668 338.34375,460.90625 z M 526.28125,482.6875 C 526.48614,486.29372 526.6942,490.90222 527.6875,491.53125 C 529.71282,492.81384 528.35012,484.31398 530.65625,484.96875 C 541.73017,488.11285 526.39961,497.72106 536.21875,490.53125 C 536.75637,508.18101 536.96019,511.21241 537.6875,509.6875 C 533.4085,531.69127 528.45654,551.68444 522.71875,570.125 C 521.4639,574.15791 520.5973,577.57842 520.125,580.59375 L 516.4375,582.5 C 521.59616,584.99703 518.44325,585.91281 513.9375,590.28125 C 526.53579,589.88584 512.68436,593.30253 515.6875,596.875 C 521.0044,595.46056 512.44824,603.18244 520.8125,600.96875 C 520.34581,600.50066 520.87721,599.19811 523.1875,596.46875 C 523.48999,596.88046 523.81385,597.28059 524.15625,597.6875 C 524.61767,598.23587 525.08929,598.8227 525.53125,599.4375 C 524.5753,599.73849 523.49358,600.11645 522.15625,600.59375 C 521.64552,600.75805 521.23337,600.85736 520.8125,600.96875 C 521.23892,601.39645 522.48558,601.11261 523.96875,600.5625 C 522.49045,601.49508 522.99507,601.32778 525.84375,599.90625 C 526.17505,600.38368 526.49539,600.86847 526.8125,601.375 C 531.74708,609.25717 534.83931,620.28571 532.3125,622.8125 C 531.08124,624.04376 525.61035,625.27209 520.15625,625.53125 C 514.70216,625.79042 507.28032,626.70256 503.6875,627.5625 C 497.40964,629.06509 497.08171,628.8068 495.09375,621.1875 C 490.49816,603.57394 490.43853,598.44921 494.5625,581.28125 C 496.84756,571.76859 500.52081,558.89856 502.71875,552.6875 C 511.51938,527.81799 523.03723,493.61749 525.84375,484.0625 C 525.9799,483.59898 526.13608,483.13953 526.28125,482.6875 z M 526.8125,601.375 C 504.29491,613.72988 519.65045,606.09072 526.8125,601.375 z M 221.8125,523.1875 C 221.61216,523.94834 220.47526,525.06286 218,526.6875 C 219.20727,525.54969 220.47977,524.38125 221.8125,523.1875 z M 239.8125,524.1875 C 238.81427,524.89534 228.59603,531.33232 221.90625,537.4375 C 220.94777,538.31223 247.21507,520.40238 229.9375,539.09375 C 255.38146,527.75623 224.41455,544.94209 231.21875,543.65625 C 238.33819,542.31085 242.95363,541.38915 246,540.71875 C 246.30452,540.3633 246.68796,539.96148 247.09375,539.53125 C 239.96743,540.2039 226.46692,542.18593 247.46875,539.09375 C 247.31029,539.2574 247.23856,539.37773 247.09375,539.53125 C 251.03382,539.15935 252.88413,539.2038 246,540.71875 C 238.93275,548.96795 257.91004,538.04616 247.875,551.59375 C 264.92547,544.822 252.28073,556.55497 266.8125,552.375 L 269.6875,550.375 C 269.23147,554.04787 268.72875,557.69862 268.34375,559.875 C 267.89755,562.39727 267.70031,564.59944 267.8125,566.5625 L 258.9375,571.53125 C 259.26119,571.50007 260.79236,578.86834 266.03125,572.8125 C 266.45442,572.02112 267.01295,571.2857 267.65625,570.71875 C 267.07755,571.57505 266.5379,572.22684 266.03125,572.8125 C 264.51994,575.63887 264.52796,579.14044 266.9375,578.09375 C 274.46305,576.84393 264.89471,582.57418 274.90625,579.40625 C 275.18312,579.30541 275.55756,579.14456 275.9375,578.96875 C 275.92428,578.94125 275.91922,578.90349 275.90625,578.875 C 275.93868,578.89642 275.96736,578.91608 276,578.9375 C 275.97959,578.947 275.9577,578.9594 275.9375,578.96875 C 276.41593,579.96433 277.06713,580.31043 278.21875,580.3125 C 277.13905,581.55937 275.79711,583.30863 275.5625,583.6875 C 275.76389,583.48137 276.79337,582.25255 278.28125,580.375 C 278.4658,580.48516 278.65799,580.60525 278.84375,580.71875 C 278.45143,581.44184 277.94574,582.37399 277.125,583.71875 C 270.11834,589.86033 280.88108,584.9764 282.28125,586.75 C 283.9423,586.61216 285.13163,586.64389 286.03125,586.75 C 286.20467,586.59633 286.47874,586.36779 286.6875,586.1875 C 286.88293,586.34025 287.08513,586.50077 287.28125,586.65625 C 287.16828,586.73621 287.04685,586.79886 286.9375,586.875 C 287.42477,586.98895 287.78022,587.13467 288.0625,587.28125 C 300.65595,597.44941 314.51262,613.05058 325.375,629.65625 C 332.75209,640.93384 338.78125,651.09474 338.78125,652.25 C 338.78125,655.85126 331.32583,659.25536 318.90625,661.28125 C 312.33898,662.35249 304.36657,664.21361 301.1875,665.4375 C 298.00845,666.66138 293.50078,667.65625 291.1875,667.65625 C 287.36619,667.65625 287.11616,666.83207 288.375,658.4375 C 289.70815,649.54741 289.55124,649.18748 284.53125,649.1875 C 279.80166,649.1875 268.43164,652.761 257.6875,657.59375 C 244.39091,663.57463 212.70119,669.72176 190.9375,670.5625 C 167.91249,671.45195 166.9493,671.68823 152.15625,679.84375 C 143.81251,684.44374 135.23551,688.1875 133.0625,688.1875 C 130.20488,688.1875 127.49626,684.63977 123.28125,675.34375 C 116.48108,660.3463 115.96021,658.12388 117.625,651.25 C 118.30875,648.42678 120.02197,639.6952 121.46875,631.84375 C 123.88718,618.7193 125.09837,616.51275 136.21875,604.625 C 138.79258,601.87357 141.30192,599.32234 143.5,597.21875 C 156.60778,594.95587 120.32183,616.50239 151.53125,601.03125 C 153.08792,600.52704 155.63644,597.97081 156.21875,599.5 C 156.78154,600.97792 156.92269,602.05432 156.8125,602.8125 C 157.693,602.93066 158.68178,603.05994 159.90625,603.3125 C 160.94365,603.52648 158.739,605.0842 158.15625,605.96875 C 155.94696,607.804 149.70026,609.25594 151.53125,611.46875 C 154.16611,614.65305 160.41362,610.74941 164.1875,608.75 C 148.12453,619.88865 164.19552,614.48767 170.78125,611.59375 C 155.31513,627.18855 188.84804,602.48853 171.96875,616.75 L 179.375,611.78125 C 192.61882,620.18476 204.36105,624.81381 210.53125,623.65625 C 218.438,622.17294 220.40377,618.45071 217.40625,610.6875 C 216.19797,607.55816 215.78557,600.0285 216.46875,593.75 C 217.14963,587.49286 216.685,579.26306 215.4375,575.28125 C 211.09039,561.40621 207.56502,540.18621 209,536.53125 C 209.46135,535.35617 212.16159,532.37171 215.90625,528.71875 C 217.79466,529.55528 221.62093,531.912 218.9375,536.03125 C 233.24609,527.99581 238.94037,524.65145 239.8125,524.1875 z M 156.8125,602.8125 C 147.46665,601.5583 156.19622,607.05309 156.8125,602.8125 z M 286.03125,586.75 C 283.38015,589.09915 284.70933,588.40274 286.90625,586.875 C 286.65388,586.81725 286.35838,586.78859 286.03125,586.75 z M 281.53125,582.4375 C 282.22228,582.90381 282.92133,583.36822 283.625,583.875 C 282.14058,584.38206 280.70796,584.5453 281.53125,582.4375 z M 284.53125,584.5625 C 284.70388,584.69004 284.88923,584.80766 285.0625,584.9375 C 284.18156,585.40444 283.37891,585.8207 282.3125,586.40625 C 283.36511,585.54491 283.94434,585.06581 284.53125,584.5625 z M 150.34375,591.6875 C 150.4917,591.6875 150.73588,591.75904 151.0625,591.90625 L 145.65625,595.21875 C 148.04386,593.05226 149.80741,591.6875 150.34375,591.6875 z M 525.59375,599.5625 C 525.65387,599.64687 525.72154,599.72706 525.78125,599.8125 C 525.19862,600.07121 524.61694,600.32261 524.0625,600.53125 C 524.48884,600.26334 524.92818,599.96449 525.59375,599.5625 z "
       id="path7050" />
  </g>
</svg>
