/* XPM */
static char *nela[] = {
/* columns rows colors chars-per-pixel */
"32 32 173 2",
"   c #040404",
".  c #0C0A06",
"X  c #0D0D0C",
"o  c #110C03",
"O  c #141313",
"+  c #181817",
"@  c #1B1B1B",
"#  c #261907",
"$  c #2C251D",
"%  c #3F2D15",
"&  c #3F3116",
"*  c #232323",
"=  c #2E2920",
"-  c #2B2B2B",
";  c #3F372D",
":  c #333333",
">  c #3F3D35",
",  c #3D3D3B",
"<  c #452B01",
"1  c #412B0B",
"2  c #4D3711",
"3  c #40351F",
"4  c #5B3F12",
"5  c #463B26",
"6  c #493B2A",
"7  c #744500",
"8  c #61441B",
"9  c #764E10",
"0  c #4D422B",
"q  c #50452E",
"w  c #4D4233",
"e  c #47453E",
"r  c #504632",
"t  c #674320",
"y  c #715834",
"u  c #464646",
"i  c #4B4B4B",
"p  c #545454",
"a  c #5D5B52",
"s  c #5B5A5A",
"d  c #6E5C40",
"f  c #666152",
"g  c #6A6452",
"h  c #726D5D",
"j  c #616161",
"k  c #6F6F6F",
"l  c #737373",
"z  c #7E7E7E",
"x  c #914E0D",
"c  c #8C560A",
"v  c #9F540D",
"b  c #BE5E00",
"n  c #BE630A",
"m  c #A5691F",
"M  c #AD7113",
"N  c #C25E00",
"B  c #C66000",
"V  c #CB6200",
"C  c #D46500",
"Z  c #D86701",
"A  c #DE6B06",
"S  c #E1750C",
"D  c #F27C01",
"F  c #FF7E00",
"G  c #F57E0B",
"H  c #896E46",
"J  c #877454",
"K  c #B08012",
"L  c #BD8A10",
"P  c #C98E0D",
"I  c #DB8E08",
"U  c #CF950C",
"Y  c #EC8A05",
"T  c #FF8301",
"R  c #F48C01",
"E  c #FF8B00",
"W  c #E49E07",
"Q  c #EC9904",
"!  c #F69400",
"~  c #FF9401",
"^  c #FF9B01",
"/  c #F68314",
"(  c #F6871B",
")  c #F6891F",
"_  c #FFA401",
"`  c #FFAB00",
"'  c #FFA60D",
"]  c #FFA80C",
"[  c #FFB400",
"{  c #FFBA00",
"}  c #FFB10D",
"|  c #FFBA0C",
" . c #FFA013",
".. c #E98125",
"X. c #EA842B",
"o. c #F78C24",
"O. c #FF8F20",
"+. c #F78E28",
"@. c #FD932B",
"#. c #EB8A32",
"$. c #F18E37",
"%. c #ED903A",
"&. c #FF9936",
"*. c #F2933C",
"=. c #F69A38",
"-. c #FF9C3B",
";. c #FFA020",
":. c #FBBC2F",
">. c #FFA333",
",. c #FFAE34",
"<. c #FFA638",
"1. c #FFB437",
"2. c #FFB73C",
"3. c #FFB93A",
"4. c #FFC030",
"5. c #F49744",
"6. c #F49A44",
"7. c #FF9F42",
"8. c #F89E4B",
"9. c #FFA344",
"0. c #FFAC43",
"q. c #FDA34C",
"w. c #FFAC4B",
"e. c #FFB443",
"r. c #FFB947",
"t. c #FFB34C",
"y. c #FFBB4C",
"u. c #FDA653",
"i. c #FFAB54",
"p. c #FFAC5C",
"a. c #FFB553",
"s. c #FFBA54",
"d. c #FFB35A",
"f. c #FFBB5B",
"g. c #FFAF61",
"h. c #FFB263",
"j. c #FFBB63",
"k. c #FFB46B",
"l. c #FFBC6B",
"z. c #FFB771",
"x. c #FFBC74",
"c. c #FFBE7B",
"v. c #FFCD56",
"b. c #FFC663",
"n. c #FFCA61",
"m. c #FFCE6E",
"M. c #FFC07E",
"N. c #828282",
"B. c #8C8C8C",
"V. c #B4B4B4",
"C. c #FFBF81",
"Z. c #FFC184",
"A. c #FFC48B",
"S. c #FFC790",
"D. c #FFC994",
"F. c #FFCC9B",
"G. c #FFD79B",
"H. c #FFCFA1",
"J. c #FFD1A4",
"K. c #FFD4AA",
"L. c #FFDCAA",
"P. c #FFDFBF",
"I. c #FFE1A8",
"U. c #FFF0CC",
"Y. c #FFE9D2",
"T. c #FFEBD8",
"R. c #FFF0D5",
"E. c #FFF6EC",
"W. c #FFF9EE",
"Q. c #FFF7F0",
"!. c #FFFBF6",
"~. c #FFFFFE",
"^. c None",
/* pixels */
"^.^.^.^.^.^.^.^.^.^.^.^.^.^.^.^.^.^.^.^.^.^.^.^.^.^.^.^.^.^.^.^.",
"^.^.^.^.^.^.^.5.^.^.^.^.^.^.^.^.^.^.^.^.^.^.^.^.^.^.^.^.^.^.^.^.",
"^.^.^.^.^.z.h.p.u.8.8.5.*.$.#.X.X...^.^.^.^.^.^.^.^.^.^.^.^.^.^.",
"^.^.^.^.C.K.K.H.F.D.A.A.C.z.k.p.u.q.q.6.5.*.%.#.A S ^.^.^.^.^.^.",
"^.^.^.^.Z.K.H.F.D.S.A.C.c.x.z.k.g.g.u.q.q.9.-.-.u.:.Q ^.^.^.^.^.",
"^.^.^.^.C.K.H.F.D.S.C.C.x.z.k.h.p.p.u.q.9.-.&.@.T =.Z Z ^.^.^.^.",
"^.^.^.^.C.H.F.S.S.C.A.P.H.k.h.g.p.u.q.9.-.-.@.T F @.Z C ^.^.^.^.",
"^.^.^.^.c.F.D.A.Z.C.T.~.~.A.p.p.u.J.Q.H.-.@.T F F +.C C ^.^.^.^.",
"^.^.^.^.x.F.A.A.C.c.E.~.~.H.p.i.g.~.~.~.q.F F F F o.C C ^.^.^.^.",
"^.^.^.^.x.D.A.Z.C.c.K.~.E.l.p.u.i.!.~.~.O.F F F F o.V C ^.^.^.^.",
"^.^.^.^.k.A.Z.M.c.x.k.x.j.d.i.w.9.M.Y.k.F F F F F ( V C ^.^.^.^.",
"^.^.^.^.k.A.Z.c.x.l.k.j.d.d.w.0.0.>.E T T F F F F / V V ^.^.^.^.",
"^.^.^.^.k.Z.M.x.x.l.j.d.d.t.t.0.>.~ E E T T T F F / V V ^.^.^.^.",
"^.^.^.^.h.c.M.x.l.j.f.f.s.t.t.,.~ a.K.<.E T T T F G V B ^.^.^.^.",
"^.^.^.^.h.M.x.l.j.f.f.s.t.r.1.^  .!.~.E.~ E T T F G V V ^.^.^.^.",
"^.^.^.^.p.x.b.l.j.f.s.y.r.1.^ ^ 1.~.~.~.;.E E T T D B B ^.^.^.^.",
"^.^.^.^.d.x.l.j.f.s.s.y.2._ _ _ _ L.~.G.~ ~ E E T D B B ^.^.^.^.",
"^.^.^.^.d.l.j.f.f.y.y.3.] ` _ ` _ _ ] ^ ^ ~ ~ E T D N B ^.^.^.^.",
"^.^.^.^.i.j.j.s.v.t.b.I.v.` ` ` ` ` _ _ ^ ^ ~ E T D B N ^.^.^.^.",
"^.^.^.^.w.j.f.s.y.2.R.~.~.4.[ [ ` ` _ _ ^ ^ ~ E E D b N ^.^.^.^.",
"^.h ^.^.w.d.f.a.2.] W.~.~.v.{ [ [ ` ` _ _ ^ ^ ~ E D n n ^.^.^.^.",
"^.^.f ^.0.d.a.2.' ^ m.!.U.| { { [ [ ` ` _ ^ ~ ~ E Y b x e a ^.^.",
"^.^.^.g w.a.e.^ ^ _ ` } [ { { { { [ ` _ ^ ^ ^ ~ E D v t - * * + ",
"^.^.^.> J w.~ ^ ^ _ _ ` [ { { { [ [ ` ` _ ^ ~ Y m y 6 6 i u X ^.",
"^.^.^.^.6 H R ! ! ! _ _ ` W U L K P W _ I M 8 % ; s p , : : O ^.",
"^.^.^.^.^.= d c 9 4 2 & & ; 0 0 q r 5 X X   o k l - - - : - ^.^.",
"^.^.^.^.^.^.*     - s k N.B.N.j i , , . < # w z * * * - - * ^.^.",
"^.^.^.^.^.^.^.. O k V.B.s : - - : : : o 7 1 $ * @ * - * - ^.^.^.",
"^.^.^.^.^.^.^.^.@ l u * * * * - - : + ^.^.^.  X + + + O ^.^.^.^.",
"^.^.^.^.^.^.^.^.+ * * @ @ @ * - - @ ^.^.^.^.^.^.^.^.^.^.^.^.^.^.",
"^.^.^.^.^.^.^.^.  X + + @ * * @ X ^.^.^.^.^.^.^.^.^.^.^.^.^.^.^.",
"^.^.^.^.^.^.^.^.^.^.^.^.  ^.^.^.^.^.^.^.^.^.^.^.^.^.^.^.^.^.^.^."
};
