/* XPM */
static char *nela___[] = {
/* columns rows colors chars-per-pixel */
"16 16 161 2",
"   c #0C0C0C",
".  c #111111",
"X  c #151515",
"o  c #161616",
"O  c #1C1C1C",
"+  c #1F1F1F",
"@  c #392F1F",
"#  c #242424",
"$  c #272624",
"%  c #272727",
"&  c #2A2A2A",
"*  c #313131",
"=  c #353534",
"-  c #373737",
";  c #383838",
":  c #3F3F3F",
">  c #533207",
",  c #493311",
"<  c #51361D",
"1  c #42392C",
"2  c #503E24",
"3  c #7C5A0F",
"4  c #624B2D",
"5  c #404040",
"6  c #424242",
"7  c #524F4B",
"8  c #565656",
"9  c #635E4D",
"0  c #635E51",
"q  c #8E5F0B",
"w  c #825D14",
"e  c #B25C09",
"r  c #986F12",
"t  c #A16609",
"y  c #AF6610",
"u  c #A66916",
"i  c #AC7D17",
"p  c #C15E00",
"a  c #C55F00",
"s  c #C86100",
"d  c #CB6200",
"f  c #CF6300",
"g  c #D26400",
"h  c #D56500",
"j  c #DD7000",
"k  c #FA7D02",
"l  c #FF7E00",
"z  c #FF7F00",
"x  c #FA8000",
"c  c #FF8000",
"v  c #FA8400",
"b  c #F98600",
"n  c #FF8700",
"m  c #FA8007",
"M  c #FF8C00",
"N  c #FB820B",
"B  c #FF840B",
"V  c #FF9100",
"C  c #FA9401",
"Z  c #FF9400",
"A  c #FF9500",
"S  c #FF9B00",
"D  c #FF9F00",
"F  c #FF9209",
"G  c #FB8410",
"H  c #FB8817",
"J  c #FF8B1A",
"K  c #FF9E14",
"L  c #FFA000",
"P  c #FFA400",
"I  c #FFA600",
"U  c #FFA900",
"Y  c #FFAA00",
"T  c #FFAB00",
"R  c #FFAB02",
"E  c #FFAF00",
"W  c #FFB200",
"Q  c #FFB400",
"!  c #FFB900",
"~  c #FFBC00",
"^  c #FFA210",
"/  c #FFAB11",
"(  c #FFA813",
")  c #EA872B",
"_  c #EE8A2E",
"`  c #FC9E2A",
"'  c #F18F34",
"]  c #FF9936",
"[  c #FF9A37",
"{  c #F5953C",
"}  c #FFA022",
"|  c #FFB42E",
" . c #FFA637",
".. c #F79A45",
"X. c #DEA150",
"o. c #FFA043",
"O. c #FFAF41",
"+. c #FFAC4C",
"@. c #FFAD4D",
"#. c #FFB745",
"$. c #FFB74E",
"%. c #FFBB48",
"&. c #FFBB4B",
"*. c #F8A353",
"=. c #FFA650",
"-. c #FFAB50",
";. c #FFAB56",
":. c #FFAD5C",
">. c #FFB153",
",. c #FFB550",
"<. c #FFBB54",
"1. c #FFBC57",
"2. c #FFB35B",
"3. c #FFB45A",
"4. c #FFBA5A",
"5. c #FFB85D",
"6. c #FBAD63",
"7. c #FFAF60",
"8. c #FFB663",
"9. c #FFBC60",
"0. c #FFBC64",
"q. c #FFB369",
"w. c #FFB46A",
"e. c #FEB46C",
"r. c #FFBA6B",
"t. c #FFBC6A",
"y. c #FFB86C",
"u. c #FFBE6E",
"i. c #FDB673",
"p. c #FFB974",
"a. c #FFBA77",
"s. c #FFBC74",
"d. c #FFBE77",
"f. c #FFBD7D",
"g. c #FFCD62",
"h. c #FFC66B",
"j. c #808080",
"k. c #FFC081",
"l. c #FEC084",
"z. c #FFC184",
"x. c #FFC185",
"c. c #FFC287",
"v. c #FFC389",
"b. c #FFC48A",
"n. c #FFC58D",
"m. c #FFC791",
"M. c #FFC994",
"N. c #FFCA96",
"B. c #FFCE9E",
"V. c #FFD391",
"C. c #FFDE90",
"Z. c #FFD2A6",
"A. c #FFD3A9",
"S. c #FFE4B0",
"D. c #FFE1C2",
"F. c #FFE4C9",
"G. c #FFF0D1",
"H. c #FFF2E5",
"J. c #FFFCF7",
"K. c #FFFFFE",
"L. c None",
/* pixels */
"L.L.L.L.L.L.L.L.L.L.L.L.L.L.L.L.",
"L.L.e.l.i.6.*...{ ' _ ) L.L.L.L.",
"L.L.N.B.m.k.a.q.:.=.o.[ ` j L.L.",
"L.L.n.N.v.F.Z.:.w.v.[ B H h L.L.",
"L.L.l.b.f.H.D.;.A.K.J k G g L.L.",
"L.L.f.k.d.y.2.+.@.@.c k N f L.L.",
"L.L.p.d.t.5.,.#.`  .n c m s L.L.",
"L.L.y.u.5.<.#.^ V.J.F n k s L.L.",
"L.L.8.0.<.%./ P | h.Z n x s L.L.",
"L.L.3.4.&.S.g.T T P S Z v p L.L.",
"L.L.>.,.( G.C.~ W T D Z v e 0 L.",
"L.9 X.K P R W ~ Q T D C y < - o ",
"L.L.4 u t q 3 r i w , 2 7 6 * L.",
"L.L.L.. - j.8 : ; @ > 1 O $ $ L.",
"L.L.L.L.: * + $ & L.L.  . L.L.L.",
"L.L.L.L.L.. o o L.L.L.L.L.L.L.L."
};
